<svg width="327" height="136" viewBox="0 0 327 136" fill="none" xmlns="http://www.w3.org/2000/svg">
	<path d="M31.3026 132L28.3196 121.091H29.6619L31.9418 129.976H32.0483L34.3707 121.091H35.8622L38.1847 129.976H38.2912L40.571 121.091H41.9134L38.9304 132H37.5668L35.1591 123.307H35.0739L32.6662 132H31.3026ZM46.0575 132.17C45.2692 132.17 44.5891 131.996 44.0174 131.648C43.4492 131.297 43.0107 130.807 42.7017 130.178C42.3963 129.546 42.2436 128.811 42.2436 127.973C42.2436 127.135 42.3963 126.396 42.7017 125.757C43.0107 125.114 43.4403 124.614 43.9908 124.255C44.5447 123.893 45.1911 123.712 45.9297 123.712C46.3558 123.712 46.7766 123.783 47.1921 123.925C47.6076 124.067 47.9858 124.298 48.3267 124.617C48.6676 124.933 48.9393 125.352 49.1417 125.874C49.3441 126.396 49.4453 127.039 49.4453 127.803V128.335H43.1385V127.249H48.1669C48.1669 126.787 48.0746 126.375 47.8899 126.013C47.7088 125.651 47.4496 125.365 47.1122 125.155C46.7784 124.946 46.3842 124.841 45.9297 124.841C45.429 124.841 44.9957 124.965 44.63 125.214C44.2678 125.459 43.989 125.778 43.7937 126.173C43.5984 126.567 43.5007 126.989 43.5007 127.44V128.165C43.5007 128.783 43.6072 129.306 43.8203 129.736C44.0369 130.162 44.337 130.487 44.7205 130.711C45.104 130.931 45.5497 131.041 46.0575 131.041C46.3878 131.041 46.6861 130.995 46.9524 130.903C47.2223 130.807 47.4549 130.665 47.6502 130.477C47.8455 130.285 47.9964 130.047 48.103 129.763L49.3175 130.104C49.1896 130.516 48.9748 130.878 48.6729 131.19C48.3711 131.499 47.9982 131.741 47.5543 131.915C47.1104 132.085 46.6115 132.17 46.0575 132.17ZM52.6147 121.091V132H51.3576V121.091H52.6147ZM58.241 132.17C57.474 132.17 56.8135 131.989 56.2595 131.627C55.7055 131.265 55.2794 130.766 54.9811 130.13C54.6828 129.495 54.5336 128.768 54.5336 127.952C54.5336 127.121 54.6863 126.387 54.9917 125.752C55.3007 125.113 55.7304 124.614 56.2808 124.255C56.8348 123.893 57.4811 123.712 58.2197 123.712C58.795 123.712 59.3135 123.818 59.7751 124.031C60.2368 124.244 60.615 124.543 60.9097 124.926C61.2045 125.31 61.3873 125.757 61.4584 126.268H60.2013C60.1054 125.896 59.8923 125.565 59.5621 125.278C59.2354 124.987 58.795 124.841 58.241 124.841C57.751 124.841 57.3213 124.969 56.952 125.224C56.5862 125.477 56.3003 125.833 56.0944 126.295C55.892 126.753 55.7907 127.291 55.7907 127.909C55.7907 128.541 55.8902 129.092 56.089 129.56C56.2915 130.029 56.5756 130.393 56.9413 130.652C57.3106 130.912 57.7439 131.041 58.241 131.041C58.5677 131.041 58.8643 130.984 59.1306 130.871C59.3969 130.757 59.6224 130.594 59.8071 130.381C59.9917 130.168 60.1231 129.912 60.2013 129.614H61.4584C61.3873 130.097 61.2116 130.532 60.931 130.919C60.654 131.302 60.2865 131.608 59.8284 131.835C59.3738 132.059 58.8447 132.17 58.241 132.17ZM66.6199 132.17C65.8813 132.17 65.2332 131.995 64.6757 131.643C64.1217 131.292 63.6885 130.8 63.376 130.168C63.067 129.536 62.9126 128.797 62.9126 127.952C62.9126 127.099 63.067 126.355 63.376 125.72C63.6885 125.084 64.1217 124.591 64.6757 124.239C65.2332 123.887 65.8813 123.712 66.6199 123.712C67.3586 123.712 68.0049 123.887 68.5589 124.239C69.1164 124.591 69.5496 125.084 69.8586 125.72C70.1711 126.355 70.3273 127.099 70.3273 127.952C70.3273 128.797 70.1711 129.536 69.8586 130.168C69.5496 130.8 69.1164 131.292 68.5589 131.643C68.0049 131.995 67.3586 132.17 66.6199 132.17ZM66.6199 131.041C67.181 131.041 67.6427 130.897 68.0049 130.61C68.3671 130.322 68.6352 129.944 68.8092 129.475C68.9832 129.006 69.0702 128.499 69.0702 127.952C69.0702 127.405 68.9832 126.895 68.8092 126.423C68.6352 125.951 68.3671 125.569 68.0049 125.278C67.6427 124.987 67.181 124.841 66.6199 124.841C66.0589 124.841 65.5972 124.987 65.235 125.278C64.8728 125.569 64.6047 125.951 64.4307 126.423C64.2567 126.895 64.1697 127.405 64.1697 127.952C64.1697 128.499 64.2567 129.006 64.4307 129.475C64.6047 129.944 64.8728 130.322 65.235 130.61C65.5972 130.897 66.0589 131.041 66.6199 131.041ZM72.2463 132V123.818H73.4608V125.097H73.5673C73.7377 124.66 74.013 124.321 74.3929 124.079C74.7729 123.834 75.2292 123.712 75.7619 123.712C76.3017 123.712 76.7509 123.834 77.1096 124.079C77.4718 124.321 77.7541 124.66 77.9565 125.097H78.0417C78.2512 124.674 78.5655 124.338 78.9846 124.09C79.4036 123.838 79.9061 123.712 80.492 123.712C81.2235 123.712 81.8219 123.941 82.2871 124.399C82.7523 124.853 82.9849 125.562 82.9849 126.524V132H81.7278V126.524C81.7278 125.92 81.5627 125.489 81.2324 125.23C80.9022 124.971 80.5133 124.841 80.0659 124.841C79.4906 124.841 79.0449 125.015 78.7289 125.363C78.4128 125.707 78.2548 126.144 78.2548 126.673V132H76.9764V126.396C76.9764 125.931 76.8255 125.556 76.5236 125.272C76.2218 124.985 75.8329 124.841 75.3571 124.841C75.0304 124.841 74.725 124.928 74.4409 125.102C74.1603 125.276 73.9331 125.517 73.7591 125.826C73.5886 126.132 73.5034 126.485 73.5034 126.886V132H72.2463ZM88.7138 132.17C87.9254 132.17 87.2454 131.996 86.6737 131.648C86.1055 131.297 85.6669 130.807 85.358 130.178C85.0526 129.546 84.8999 128.811 84.8999 127.973C84.8999 127.135 85.0526 126.396 85.358 125.757C85.6669 125.114 86.0966 124.614 86.647 124.255C87.201 123.893 87.8473 123.712 88.5859 123.712C89.0121 123.712 89.4329 123.783 89.8484 123.925C90.2638 124.067 90.642 124.298 90.983 124.617C91.3239 124.933 91.5955 125.352 91.7979 125.874C92.0004 126.396 92.1016 127.039 92.1016 127.803V128.335H85.7947V127.249H90.8232C90.8232 126.787 90.7308 126.375 90.5462 126.013C90.3651 125.651 90.1058 125.365 89.7685 125.155C89.4347 124.946 89.0405 124.841 88.5859 124.841C88.0852 124.841 87.652 124.965 87.2862 125.214C86.924 125.459 86.6452 125.778 86.4499 126.173C86.2546 126.567 86.157 126.989 86.157 127.44V128.165C86.157 128.783 86.2635 129.306 86.4766 129.736C86.6932 130.162 86.9933 130.487 87.3768 130.711C87.7603 130.931 88.206 131.041 88.7138 131.041C89.044 131.041 89.3423 130.995 89.6087 130.903C89.8786 130.807 90.1112 130.665 90.3065 130.477C90.5018 130.285 90.6527 130.047 90.7592 129.763L91.9737 130.104C91.8459 130.516 91.631 130.878 91.3292 131.19C91.0273 131.499 90.6545 131.741 90.2106 131.915C89.7667 132.085 89.2678 132.17 88.7138 132.17ZM101.791 123.818V124.884H97.5508V123.818H101.791ZM98.7866 121.858H100.044V129.656C100.044 130.011 100.095 130.278 100.198 130.455C100.305 130.629 100.44 130.746 100.603 130.807C100.77 130.864 100.946 130.892 101.13 130.892C101.269 130.892 101.382 130.885 101.471 130.871C101.56 130.853 101.631 130.839 101.684 130.828L101.94 131.957C101.855 131.989 101.736 132.021 101.583 132.053C101.43 132.089 101.237 132.107 101.002 132.107C100.647 132.107 100.299 132.03 99.9585 131.877C99.6211 131.725 99.3406 131.492 99.1168 131.18C98.8967 130.867 98.7866 130.473 98.7866 129.997V121.858ZM106.918 132.17C106.179 132.17 105.531 131.995 104.974 131.643C104.42 131.292 103.986 130.8 103.674 130.168C103.365 129.536 103.21 128.797 103.21 127.952C103.21 127.099 103.365 126.355 103.674 125.72C103.986 125.084 104.42 124.591 104.974 124.239C105.531 123.887 106.179 123.712 106.918 123.712C107.656 123.712 108.303 123.887 108.857 124.239C109.414 124.591 109.847 125.084 110.156 125.72C110.469 126.355 110.625 127.099 110.625 127.952C110.625 128.797 110.469 129.536 110.156 130.168C109.847 130.8 109.414 131.292 108.857 131.643C108.303 131.995 107.656 132.17 106.918 132.17ZM106.918 131.041C107.479 131.041 107.941 130.897 108.303 130.61C108.665 130.322 108.933 129.944 109.107 129.475C109.281 129.006 109.368 128.499 109.368 127.952C109.368 127.405 109.281 126.895 109.107 126.423C108.933 125.951 108.665 125.569 108.303 125.278C107.941 124.987 107.479 124.841 106.918 124.841C106.357 124.841 105.895 124.987 105.533 125.278C105.171 125.569 104.903 125.951 104.729 126.423C104.555 126.895 104.468 127.405 104.468 127.952C104.468 128.499 104.555 129.006 104.729 129.475C104.903 129.944 105.171 130.322 105.533 130.61C105.895 130.897 106.357 131.041 106.918 131.041ZM122.899 123.818C122.835 123.278 122.576 122.859 122.122 122.561C121.667 122.263 121.109 122.114 120.449 122.114C119.966 122.114 119.543 122.192 119.181 122.348C118.823 122.504 118.542 122.719 118.34 122.993C118.141 123.266 118.041 123.577 118.041 123.925C118.041 124.216 118.111 124.466 118.249 124.676C118.391 124.882 118.572 125.054 118.792 125.192C119.013 125.327 119.243 125.439 119.485 125.528C119.726 125.613 119.948 125.683 120.151 125.736L121.259 126.034C121.543 126.109 121.859 126.212 122.207 126.343C122.558 126.474 122.894 126.654 123.214 126.881C123.537 127.105 123.803 127.392 124.013 127.744C124.222 128.096 124.327 128.527 124.327 129.038C124.327 129.628 124.172 130.161 123.863 130.636C123.558 131.112 123.111 131.49 122.521 131.771C121.935 132.051 121.223 132.192 120.385 132.192C119.604 132.192 118.927 132.066 118.356 131.814C117.787 131.561 117.34 131.21 117.013 130.759C116.69 130.308 116.507 129.784 116.465 129.188H117.828C117.864 129.599 118.002 129.94 118.244 130.21C118.489 130.477 118.798 130.675 119.171 130.807C119.547 130.935 119.952 130.999 120.385 130.999C120.889 130.999 121.342 130.917 121.743 130.754C122.145 130.587 122.462 130.356 122.697 130.061C122.931 129.763 123.048 129.415 123.048 129.017C123.048 128.655 122.947 128.36 122.745 128.133C122.542 127.906 122.276 127.721 121.946 127.579C121.616 127.437 121.259 127.312 120.875 127.206L119.533 126.822C118.68 126.577 118.006 126.228 117.509 125.773C117.011 125.319 116.763 124.724 116.763 123.989C116.763 123.378 116.928 122.845 117.258 122.391C117.592 121.933 118.04 121.577 118.601 121.325C119.165 121.07 119.796 120.942 120.492 120.942C121.195 120.942 121.82 121.068 122.367 121.32C122.913 121.569 123.347 121.909 123.666 122.343C123.989 122.776 124.16 123.268 124.178 123.818H122.899ZM132.465 123.818C132.401 123.278 132.142 122.859 131.687 122.561C131.232 122.263 130.675 122.114 130.014 122.114C129.531 122.114 129.109 122.192 128.747 122.348C128.388 122.504 128.107 122.719 127.905 122.993C127.706 123.266 127.607 123.577 127.607 123.925C127.607 124.216 127.676 124.466 127.814 124.676C127.956 124.882 128.138 125.054 128.358 125.192C128.578 125.327 128.809 125.439 129.05 125.528C129.292 125.613 129.514 125.683 129.716 125.736L130.824 126.034C131.108 126.109 131.424 126.212 131.772 126.343C132.124 126.474 132.459 126.654 132.779 126.881C133.102 127.105 133.368 127.392 133.578 127.744C133.787 128.096 133.892 128.527 133.892 129.038C133.892 129.628 133.738 130.161 133.429 130.636C133.123 131.112 132.676 131.49 132.086 131.771C131.501 132.051 130.789 132.192 129.95 132.192C129.169 132.192 128.493 132.066 127.921 131.814C127.353 131.561 126.905 131.21 126.579 130.759C126.256 130.308 126.073 129.784 126.03 129.188H127.394C127.429 129.599 127.568 129.94 127.809 130.21C128.054 130.477 128.363 130.675 128.736 130.807C129.112 130.935 129.517 130.999 129.95 130.999C130.455 130.999 130.907 130.917 131.309 130.754C131.71 130.587 132.028 130.356 132.262 130.061C132.497 129.763 132.614 129.415 132.614 129.017C132.614 128.655 132.513 128.36 132.31 128.133C132.108 127.906 131.841 127.721 131.511 127.579C131.181 127.437 130.824 127.312 130.441 127.206L129.098 126.822C128.246 126.577 127.571 126.228 127.074 125.773C126.577 125.319 126.328 124.724 126.328 123.989C126.328 123.378 126.493 122.845 126.824 122.391C127.157 121.933 127.605 121.577 128.166 121.325C128.731 121.07 129.361 120.942 130.057 120.942C130.76 120.942 131.385 121.068 131.932 121.32C132.479 121.569 132.912 121.909 133.232 122.343C133.555 122.776 133.725 123.268 133.743 123.818H132.465ZM144.715 121.091V132H143.436L137.492 123.435H137.385V132H136.064V121.091H137.343L143.309 129.678H143.415V121.091H144.715ZM147.358 132V121.091H153.942V122.263H148.679V125.949H153.601V127.121H148.679V130.828H154.027V132H147.358ZM155.726 122.263V121.091H163.908V122.263H160.478V132H159.157V122.263H155.726ZM170.166 132V121.091H173.852C174.704 121.091 175.404 121.237 175.951 121.528C176.497 121.815 176.902 122.211 177.165 122.716C177.428 123.22 177.559 123.793 177.559 124.436C177.559 125.079 177.428 125.649 177.165 126.146C176.902 126.643 176.499 127.034 175.956 127.318C175.413 127.598 174.718 127.739 173.873 127.739H170.89V126.545H173.831C174.413 126.545 174.882 126.46 175.237 126.29C175.595 126.119 175.855 125.878 176.014 125.565C176.178 125.249 176.259 124.873 176.259 124.436C176.259 123.999 176.178 123.618 176.014 123.291C175.851 122.964 175.59 122.712 175.231 122.534C174.873 122.353 174.399 122.263 173.809 122.263H171.487V132H170.166ZM175.301 127.099L177.985 132H176.451L173.809 127.099H175.301ZM182.933 132.17C182.144 132.17 181.464 131.996 180.892 131.648C180.324 131.297 179.886 130.807 179.577 130.178C179.271 129.546 179.119 128.811 179.119 127.973C179.119 127.135 179.271 126.396 179.577 125.757C179.886 125.114 180.315 124.614 180.866 124.255C181.42 123.893 182.066 123.712 182.805 123.712C183.231 123.712 183.652 123.783 184.067 123.925C184.483 124.067 184.861 124.298 185.202 124.617C185.543 124.933 185.814 125.352 186.017 125.874C186.219 126.396 186.32 127.039 186.32 127.803V128.335H180.013V127.249H185.042C185.042 126.787 184.95 126.375 184.765 126.013C184.584 125.651 184.325 125.365 183.987 125.155C183.653 124.946 183.259 124.841 182.805 124.841C182.304 124.841 181.871 124.965 181.505 125.214C181.143 125.459 180.864 125.778 180.669 126.173C180.473 126.567 180.376 126.989 180.376 127.44V128.165C180.376 128.783 180.482 129.306 180.695 129.736C180.912 130.162 181.212 130.487 181.596 130.711C181.979 130.931 182.425 131.041 182.933 131.041C183.263 131.041 183.561 130.995 183.827 130.903C184.097 130.807 184.33 130.665 184.525 130.477C184.721 130.285 184.871 130.047 184.978 129.763L186.192 130.104C186.065 130.516 185.85 130.878 185.548 131.19C185.246 131.499 184.873 131.741 184.429 131.915C183.985 132.085 183.487 132.17 182.933 132.17ZM191.535 135.239C190.928 135.239 190.406 135.161 189.969 135.004C189.532 134.852 189.168 134.649 188.877 134.397C188.589 134.148 188.36 133.882 188.19 133.598L189.191 132.895C189.305 133.044 189.449 133.214 189.623 133.406C189.797 133.602 190.035 133.77 190.337 133.912C190.642 134.058 191.042 134.131 191.535 134.131C192.196 134.131 192.741 133.971 193.17 133.651C193.6 133.332 193.815 132.831 193.815 132.149V130.487H193.708C193.616 130.636 193.485 130.821 193.314 131.041C193.147 131.258 192.906 131.451 192.59 131.622C192.277 131.789 191.855 131.872 191.322 131.872C190.662 131.872 190.069 131.716 189.543 131.403C189.021 131.091 188.607 130.636 188.302 130.04C188 129.443 187.849 128.719 187.849 127.866C187.849 127.028 187.996 126.299 188.291 125.677C188.586 125.052 188.996 124.569 189.522 124.228C190.047 123.884 190.654 123.712 191.343 123.712C191.876 123.712 192.299 123.8 192.611 123.978C192.927 124.152 193.169 124.351 193.336 124.575C193.506 124.795 193.637 124.976 193.73 125.118H193.858V123.818H195.072V132.234C195.072 132.938 194.912 133.509 194.593 133.95C194.277 134.393 193.85 134.718 193.314 134.924C192.782 135.134 192.189 135.239 191.535 135.239ZM191.493 130.743C191.997 130.743 192.423 130.627 192.771 130.397C193.119 130.166 193.384 129.834 193.565 129.401C193.746 128.967 193.836 128.449 193.836 127.845C193.836 127.256 193.748 126.735 193.57 126.284C193.392 125.833 193.13 125.48 192.782 125.224C192.434 124.969 192.004 124.841 191.493 124.841C190.96 124.841 190.516 124.976 190.161 125.246C189.809 125.516 189.545 125.878 189.367 126.332C189.193 126.787 189.106 127.291 189.106 127.845C189.106 128.413 189.195 128.916 189.373 129.353C189.554 129.786 189.82 130.127 190.172 130.375C190.527 130.62 190.967 130.743 191.493 130.743ZM197.373 132V123.818H198.63V132H197.373ZM198.012 122.455C197.767 122.455 197.556 122.371 197.379 122.204C197.205 122.037 197.118 121.837 197.118 121.602C197.118 121.368 197.205 121.167 197.379 121C197.556 120.833 197.767 120.75 198.012 120.75C198.257 120.75 198.467 120.833 198.641 121C198.819 121.167 198.907 121.368 198.907 121.602C198.907 121.837 198.819 122.037 198.641 122.204C198.467 122.371 198.257 122.455 198.012 122.455ZM206.728 125.651L205.599 125.97C205.528 125.782 205.423 125.599 205.285 125.422C205.15 125.24 204.965 125.091 204.731 124.974C204.496 124.857 204.196 124.798 203.831 124.798C203.33 124.798 202.913 124.914 202.579 125.145C202.248 125.372 202.083 125.661 202.083 126.013C202.083 126.325 202.197 126.572 202.424 126.753C202.652 126.934 203.007 127.085 203.49 127.206L204.704 127.504C205.436 127.682 205.981 127.953 206.339 128.319C206.698 128.681 206.877 129.148 206.877 129.72C206.877 130.189 206.742 130.608 206.473 130.977C206.206 131.347 205.833 131.638 205.354 131.851C204.875 132.064 204.317 132.17 203.681 132.17C202.847 132.17 202.156 131.989 201.609 131.627C201.062 131.265 200.716 130.736 200.571 130.04L201.764 129.741C201.877 130.182 202.092 130.512 202.408 130.732C202.728 130.952 203.145 131.062 203.66 131.062C204.246 131.062 204.711 130.938 205.056 130.69C205.404 130.437 205.578 130.136 205.578 129.784C205.578 129.5 205.478 129.262 205.279 129.07C205.081 128.875 204.775 128.729 204.363 128.634L203 128.314C202.25 128.136 201.7 127.861 201.348 127.488C201 127.112 200.826 126.641 200.826 126.077C200.826 125.615 200.956 125.207 201.215 124.852C201.478 124.496 201.835 124.218 202.286 124.015C202.74 123.813 203.255 123.712 203.831 123.712C204.64 123.712 205.276 123.889 205.737 124.244C206.203 124.599 206.533 125.068 206.728 125.651ZM212.328 123.818V124.884H208.088V123.818H212.328ZM209.324 121.858H210.581V129.656C210.581 130.011 210.632 130.278 210.735 130.455C210.842 130.629 210.977 130.746 211.14 130.807C211.307 130.864 211.483 130.892 211.667 130.892C211.806 130.892 211.92 130.885 212.008 130.871C212.097 130.853 212.168 130.839 212.221 130.828L212.477 131.957C212.392 131.989 212.273 132.021 212.12 132.053C211.968 132.089 211.774 132.107 211.54 132.107C211.184 132.107 210.836 132.03 210.496 131.877C210.158 131.725 209.878 131.492 209.654 131.18C209.434 130.867 209.324 130.473 209.324 129.997V121.858ZM214.219 132V123.818H215.433V125.054H215.519C215.668 124.649 215.938 124.321 216.328 124.069C216.719 123.816 217.159 123.69 217.649 123.69C217.742 123.69 217.857 123.692 217.996 123.696C218.134 123.699 218.239 123.705 218.31 123.712V124.99C218.267 124.979 218.17 124.963 218.017 124.942C217.868 124.917 217.71 124.905 217.543 124.905C217.145 124.905 216.79 124.988 216.477 125.155C216.169 125.319 215.923 125.546 215.742 125.837C215.565 126.125 215.476 126.453 215.476 126.822V132H214.219ZM222.208 132.192C221.689 132.192 221.219 132.094 220.796 131.899C220.373 131.7 220.038 131.414 219.789 131.041C219.541 130.665 219.416 130.21 219.416 129.678C219.416 129.209 219.509 128.829 219.693 128.538C219.878 128.243 220.125 128.012 220.434 127.845C220.743 127.678 221.084 127.554 221.457 127.472C221.833 127.387 222.211 127.32 222.591 127.27C223.088 127.206 223.491 127.158 223.8 127.126C224.113 127.091 224.34 127.032 224.482 126.95C224.628 126.869 224.701 126.727 224.701 126.524V126.482C224.701 125.956 224.557 125.548 224.269 125.256C223.985 124.965 223.554 124.82 222.975 124.82C222.375 124.82 221.904 124.951 221.563 125.214C221.222 125.477 220.983 125.757 220.844 126.055L219.651 125.629C219.864 125.132 220.148 124.745 220.503 124.468C220.862 124.187 221.252 123.992 221.675 123.882C222.101 123.768 222.52 123.712 222.932 123.712C223.195 123.712 223.497 123.744 223.838 123.808C224.182 123.868 224.514 123.994 224.834 124.186C225.157 124.377 225.425 124.667 225.638 125.054C225.851 125.441 225.958 125.96 225.958 126.609V132H224.701V130.892H224.637C224.551 131.07 224.409 131.26 224.21 131.462C224.012 131.664 223.747 131.837 223.417 131.979C223.087 132.121 222.684 132.192 222.208 132.192ZM222.399 131.062C222.897 131.062 223.316 130.965 223.657 130.77C224.001 130.574 224.26 130.322 224.434 130.013C224.612 129.704 224.701 129.379 224.701 129.038V127.888C224.647 127.952 224.53 128.01 224.349 128.064C224.171 128.113 223.965 128.158 223.731 128.197C223.5 128.232 223.275 128.264 223.055 128.293C222.838 128.317 222.662 128.339 222.527 128.357C222.201 128.399 221.895 128.468 221.611 128.564C221.331 128.657 221.103 128.797 220.929 128.985C220.759 129.17 220.674 129.422 220.674 129.741C220.674 130.178 220.835 130.509 221.158 130.732C221.485 130.952 221.899 131.062 222.399 131.062ZM231.81 123.818V124.884H227.57V123.818H231.81ZM228.806 121.858H230.063V129.656C230.063 130.011 230.115 130.278 230.218 130.455C230.324 130.629 230.459 130.746 230.623 130.807C230.789 130.864 230.965 130.892 231.15 130.892C231.288 130.892 231.402 130.885 231.491 130.871C231.58 130.853 231.651 130.839 231.704 130.828L231.96 131.957C231.874 131.989 231.755 132.021 231.603 132.053C231.45 132.089 231.256 132.107 231.022 132.107C230.667 132.107 230.319 132.03 229.978 131.877C229.641 131.725 229.36 131.492 229.136 131.18C228.916 130.867 228.806 130.473 228.806 129.997V121.858ZM233.701 132V123.818H234.958V132H233.701ZM234.341 122.455C234.096 122.455 233.884 122.371 233.707 122.204C233.533 122.037 233.446 121.837 233.446 121.602C233.446 121.368 233.533 121.167 233.707 121C233.884 120.833 234.096 120.75 234.341 120.75C234.586 120.75 234.795 120.833 234.969 121C235.147 121.167 235.235 121.368 235.235 121.602C235.235 121.837 235.147 122.037 234.969 122.204C234.795 122.371 234.586 122.455 234.341 122.455ZM240.585 132.17C239.846 132.17 239.198 131.995 238.641 131.643C238.087 131.292 237.653 130.8 237.341 130.168C237.032 129.536 236.877 128.797 236.877 127.952C236.877 127.099 237.032 126.355 237.341 125.72C237.653 125.084 238.087 124.591 238.641 124.239C239.198 123.887 239.846 123.712 240.585 123.712C241.323 123.712 241.97 123.887 242.524 124.239C243.081 124.591 243.514 125.084 243.823 125.72C244.136 126.355 244.292 127.099 244.292 127.952C244.292 128.797 244.136 129.536 243.823 130.168C243.514 130.8 243.081 131.292 242.524 131.643C241.97 131.995 241.323 132.17 240.585 132.17ZM240.585 131.041C241.146 131.041 241.608 130.897 241.97 130.61C242.332 130.322 242.6 129.944 242.774 129.475C242.948 129.006 243.035 128.499 243.035 127.952C243.035 127.405 242.948 126.895 242.774 126.423C242.6 125.951 242.332 125.569 241.97 125.278C241.608 124.987 241.146 124.841 240.585 124.841C240.024 124.841 239.562 124.987 239.2 125.278C238.838 125.569 238.57 125.951 238.396 126.423C238.222 126.895 238.134 127.405 238.134 127.952C238.134 128.499 238.222 129.006 238.396 129.475C238.57 129.944 238.838 130.322 239.2 130.61C239.562 130.897 240.024 131.041 240.585 131.041ZM247.468 127.078V132H246.211V123.818H247.426V125.097H247.532C247.724 124.681 248.015 124.347 248.406 124.095C248.796 123.839 249.301 123.712 249.919 123.712C250.472 123.712 250.957 123.825 251.373 124.053C251.788 124.276 252.111 124.617 252.342 125.075C252.573 125.53 252.688 126.105 252.688 126.801V132H251.431V126.886C251.431 126.244 251.264 125.743 250.931 125.384C250.597 125.022 250.139 124.841 249.556 124.841C249.155 124.841 248.796 124.928 248.48 125.102C248.168 125.276 247.921 125.53 247.74 125.864C247.559 126.197 247.468 126.602 247.468 127.078ZM259.375 132V121.091H263.061C263.917 121.091 264.616 121.245 265.16 121.554C265.706 121.86 266.111 122.273 266.374 122.795C266.637 123.317 266.768 123.9 266.768 124.543C266.768 125.185 266.637 125.77 266.374 126.295C266.115 126.821 265.714 127.24 265.17 127.552C264.627 127.861 263.931 128.016 263.082 128.016H260.44V126.844H263.04C263.625 126.844 264.096 126.743 264.451 126.54C264.806 126.338 265.064 126.064 265.223 125.72C265.387 125.372 265.468 124.979 265.468 124.543C265.468 124.106 265.387 123.715 265.223 123.371C265.064 123.026 264.804 122.756 264.446 122.561C264.087 122.362 263.611 122.263 263.018 122.263H260.696V132H259.375ZM271.962 132.17C271.223 132.17 270.575 131.995 270.017 131.643C269.464 131.292 269.03 130.8 268.718 130.168C268.409 129.536 268.254 128.797 268.254 127.952C268.254 127.099 268.409 126.355 268.718 125.72C269.03 125.084 269.464 124.591 270.017 124.239C270.575 123.887 271.223 123.712 271.962 123.712C272.7 123.712 273.347 123.887 273.901 124.239C274.458 124.591 274.891 125.084 275.2 125.72C275.513 126.355 275.669 127.099 275.669 127.952C275.669 128.797 275.513 129.536 275.2 130.168C274.891 130.8 274.458 131.292 273.901 131.643C273.347 131.995 272.7 132.17 271.962 132.17ZM271.962 131.041C272.523 131.041 272.984 130.897 273.347 130.61C273.709 130.322 273.977 129.944 274.151 129.475C274.325 129.006 274.412 128.499 274.412 127.952C274.412 127.405 274.325 126.895 274.151 126.423C273.977 125.951 273.709 125.569 273.347 125.278C272.984 124.987 272.523 124.841 271.962 124.841C271.401 124.841 270.939 124.987 270.577 125.278C270.215 125.569 269.946 125.951 269.772 126.423C269.598 126.895 269.511 127.405 269.511 127.952C269.511 128.499 269.598 129.006 269.772 129.475C269.946 129.944 270.215 130.322 270.577 130.61C270.939 130.897 271.401 131.041 271.962 131.041ZM277.588 132V123.818H278.803V125.054H278.888C279.037 124.649 279.307 124.321 279.697 124.069C280.088 123.816 280.528 123.69 281.018 123.69C281.111 123.69 281.226 123.692 281.365 123.696C281.503 123.699 281.608 123.705 281.679 123.712V124.99C281.636 124.979 281.539 124.963 281.386 124.942C281.237 124.917 281.079 124.905 280.912 124.905C280.514 124.905 280.159 124.988 279.847 125.155C279.538 125.319 279.293 125.546 279.112 125.837C278.934 126.125 278.845 126.453 278.845 126.822V132H277.588ZM287.24 123.818V124.884H283V123.818H287.24ZM284.236 121.858H285.493V129.656C285.493 130.011 285.544 130.278 285.647 130.455C285.754 130.629 285.889 130.746 286.052 130.807C286.219 130.864 286.395 130.892 286.58 130.892C286.718 130.892 286.832 130.885 286.92 130.871C287.009 130.853 287.08 130.839 287.134 130.828L287.389 131.957C287.304 131.989 287.185 132.021 287.032 132.053C286.88 132.089 286.686 132.107 286.452 132.107C286.097 132.107 285.749 132.03 285.408 131.877C285.07 131.725 284.79 131.492 284.566 131.18C284.346 130.867 284.236 130.473 284.236 129.997V121.858ZM291.539 132.192C291.02 132.192 290.55 132.094 290.127 131.899C289.705 131.7 289.369 131.414 289.12 131.041C288.872 130.665 288.748 130.21 288.748 129.678C288.748 129.209 288.84 128.829 289.025 128.538C289.209 128.243 289.456 128.012 289.765 127.845C290.074 127.678 290.415 127.554 290.788 127.472C291.164 127.387 291.542 127.32 291.922 127.27C292.419 127.206 292.822 127.158 293.131 127.126C293.444 127.091 293.671 127.032 293.813 126.95C293.959 126.869 294.032 126.727 294.032 126.524V126.482C294.032 125.956 293.888 125.548 293.6 125.256C293.316 124.965 292.885 124.82 292.306 124.82C291.706 124.82 291.235 124.951 290.894 125.214C290.553 125.477 290.314 125.757 290.175 126.055L288.982 125.629C289.195 125.132 289.479 124.745 289.834 124.468C290.193 124.187 290.583 123.992 291.006 123.882C291.432 123.768 291.851 123.712 292.263 123.712C292.526 123.712 292.828 123.744 293.169 123.808C293.513 123.868 293.845 123.994 294.165 124.186C294.488 124.377 294.756 124.667 294.969 125.054C295.182 125.441 295.289 125.96 295.289 126.609V132H294.032V130.892H293.968C293.882 131.07 293.74 131.26 293.542 131.462C293.343 131.664 293.078 131.837 292.748 131.979C292.418 132.121 292.015 132.192 291.539 132.192ZM291.73 131.062C292.228 131.062 292.647 130.965 292.988 130.77C293.332 130.574 293.591 130.322 293.765 130.013C293.943 129.704 294.032 129.379 294.032 129.038V127.888C293.978 127.952 293.861 128.01 293.68 128.064C293.502 128.113 293.297 128.158 293.062 128.197C292.831 128.232 292.606 128.264 292.386 128.293C292.169 128.317 291.993 128.339 291.858 128.357C291.532 128.399 291.226 128.468 290.942 128.564C290.662 128.657 290.434 128.797 290.26 128.985C290.09 129.17 290.005 129.422 290.005 129.741C290.005 130.178 290.166 130.509 290.489 130.732C290.816 130.952 291.23 131.062 291.73 131.062ZM298.84 121.091V132H297.583V121.091H298.84Z" fill="black"/>
	<g clip-path="url(#clip0_0_1)">
		<path d="M100.793 67.2473C97.5335 61.6645 91.2359 58.4925 85.7611 55.6059C80.3813 52.7511 74.4635 49.8645 70.7292 44.7892C67.2165 40.0312 67.3114 32.4817 70.9824 27.8188C73.8305 24.2027 78.261 21.9188 82.8497 21.8237C84.7168 21.8237 86.6156 21.9823 88.4827 22.4898C88.9574 22.5849 89.9384 22.9021 90.1916 22.9656C84.5586 22.9656 79.875 27.4064 79.875 32.7989C79.875 38.1914 84.4637 42.5371 90.1916 42.5371C95.9196 42.5371 100.477 38.1914 100.477 32.7989C100.477 32.3866 100.477 31.9742 100.382 31.5618C100.382 31.2446 100.287 30.8957 100.223 30.5785C100.223 30.4199 100.129 30.3247 100.129 30.1661C100.129 30.071 100.129 29.9124 100.034 29.8489C99.9386 29.5952 99.8753 29.278 99.7804 29.0242C98.7994 25.8204 96.1727 23.4414 93.2296 22.0457C91.679 21.3161 89.9701 20.5548 88.2295 20.2376C81.5206 18.7785 73.7672 19.9204 68.0393 23.9172C66.5519 24.9957 65.0962 26.2011 63.9569 27.5333C61.3303 30.3882 59.3049 34.1629 58.7353 38.0328C56.1087 54.4957 71.9951 60.0785 83.4193 66.4543C85.7928 67.7548 87.9131 69.4995 89.622 71.6247C91.2676 73.6866 92.5651 76.0656 92.8815 78.7618C93.2929 81.9656 92.7866 85.328 91.2359 88.1828C89.1156 92.2113 84.9383 94.5903 80.6028 95.3833C78.3243 95.7957 75.8559 95.8909 73.4191 95.5419C71.3621 95.2882 69.3368 94.7172 67.438 93.9876C71.8368 92.8457 75.128 88.9758 75.128 84.4081C75.128 78.9204 70.5393 74.4796 64.8114 74.4796C59.0834 74.4796 54.5264 78.8887 54.5264 84.4081C54.5264 87.4532 56.077 90.0543 58.2923 92.021C60.7607 94.3048 63.862 95.7005 67.0266 96.6839C71.2672 97.921 75.761 98.5554 80.1914 98.3333C81.5838 98.2382 82.8813 98.0796 84.2105 97.921C85.6662 97.6672 87.0586 97.2548 88.546 96.8425C100.73 92.9091 107.66 79.1425 100.793 67.2473Z" fill="#A19060"/>
		<path d="M46.0135 67.2473C42.754 61.6645 36.4564 58.4925 30.9816 55.6059C25.5701 52.7511 19.6839 49.8645 15.9497 44.7892C12.4369 40.0312 12.5319 32.4817 16.2028 27.8188C19.051 24.2027 23.4815 21.9188 28.0702 21.8237C29.9373 21.8237 31.8361 21.9823 33.7032 22.4898C34.1779 22.5849 35.1905 22.9021 35.4121 22.9656C29.7791 22.9656 25.1271 27.4064 25.1271 32.7989C25.1271 38.1914 29.7158 42.5371 35.4121 42.5371C41.1084 42.5371 45.7287 38.1914 45.7287 32.7989C45.7287 32.3866 45.7287 31.9742 45.6338 31.5618C45.6338 31.2446 45.5388 30.8957 45.4756 30.5785C45.4756 30.4199 45.3806 30.3247 45.3806 30.1661C45.3806 30.071 45.3806 29.9124 45.2857 29.8489C45.1907 29.5952 45.1274 29.278 45.0325 29.0242C44.0515 25.8204 41.4248 23.4414 38.4818 22.0457C36.9311 21.3161 35.2222 20.5548 33.4817 20.2376C26.7727 18.7785 19.0194 19.9204 13.2914 23.9172C11.8673 25.0591 10.3799 26.2962 9.24068 27.5968C6.70899 30.3882 4.65199 34.0677 4.08236 38.0011C1.45572 54.464 17.3421 60.0468 28.7031 66.4226C31.0765 67.7231 33.1968 69.4677 34.9057 71.593C36.5513 73.6548 37.8488 76.0339 38.1653 78.7301C38.5767 81.9339 38.0704 85.2962 36.5197 88.1511C34.3994 92.1796 30.2221 94.5586 25.8866 95.3516C23.608 95.764 21.1396 95.8274 18.7029 95.5102C16.6459 95.2565 14.6205 94.6855 12.7218 93.9559C17.1522 92.814 20.4118 88.9441 20.4118 84.3763C20.4118 78.8887 15.8231 74.4478 10.1268 74.4478C4.55705 74.3527 0 78.8887 0 84.3763C0 87.4215 1.55066 90.0226 3.76589 91.9892C6.2343 94.2731 9.33562 95.6688 12.5002 96.6522C16.7408 97.8892 21.2346 98.5237 25.665 98.3016C27.0575 98.2064 28.355 98.0478 29.6841 97.8892C31.1398 97.6355 32.5323 97.2231 34.0196 96.8108C45.9502 92.9091 52.8808 79.1425 46.0135 67.2473Z" fill="#A19060"/>
		<path d="M133.009 19.5715C135.952 19.5715 138.42 19.8253 140.351 20.3962C142.313 20.9672 144.022 21.7919 145.414 22.8704C146.807 24.0124 147.946 25.4081 148.769 27.121C149.591 28.8339 150.319 30.8005 150.984 33.1796L167.25 78.0005H167.725V19.5715H185.383V98.3333H153.99L132.724 40.0629H132.281V98.3333H114.717V19.5715H133.009Z" fill="#FF5100"/>
		<path d="M201.586 98.3968V19.5715H258.328C258.328 20.5548 258.328 21.8554 258.233 23.3462C258.138 24.8371 258.074 26.3914 257.916 28.0091C257.821 29.5634 257.6 31.1177 257.41 32.6086C257.157 34.0995 256.84 35.3048 256.524 36.2882H220.985V50.372H253.201C253.201 51.1968 253.201 52.4339 253.106 53.7978C253.106 55.2887 252.948 56.843 252.789 58.3973C252.631 59.9516 252.473 61.5059 252.22 63.0602C251.967 64.6145 251.65 65.9151 251.334 66.9935H220.89V81.5849H258.328C258.328 82.5683 258.328 83.8688 258.233 85.3597C258.138 86.8505 258.074 88.4048 257.916 90.0226C257.821 91.5769 257.6 93.1312 257.41 94.622C257.157 96.0812 256.84 97.3183 256.524 98.3016H201.586V98.3968Z" fill="#FF5100"/>
		<path d="M265.037 19.5715H327C327 20.3962 327 21.6333 326.905 22.9973C326.81 24.4564 326.747 26.0425 326.588 27.5968C326.494 29.1511 326.272 30.7054 326.114 32.2597C325.861 33.814 325.544 35.1145 325.228 36.193H305.354V98.3333H285.986V36.2882H265.195V19.5715H265.037Z" fill="#FF5100"/>
	</g>
	<defs>
		<clipPath id="clip0_0_1">
			<rect width="320" height="118" fill="white"/>
		</clipPath>
	</defs>
</svg>
