<svg
        width="221"
        height="59"
        viewBox="0 0 221 59"
        fill="none"
        xmlns="http://www.w3.org/2000/svg"
      >
        <g clip-path="url(#clip0_106_399)">
          <path
            opacity="0.2"
            d="M208.646 0H12.3541C5.53112 0 0 5.53731 0 12.3679V46.6321C0 53.4627 5.53112 59 12.3541 59H208.646C215.469 59 221 53.4627 221 46.6321V12.3679C221 5.53731 215.469 0 208.646 0Z"
            fill="#AAAAAA"
          />
          <path
            d="M66.8456 30.8506L75.1229 39.1371H70.2751V44.2376H63.4161V39.1371H58.5684L66.8456 30.8506Z"
            fill="#F05523"
          />
          <path
            d="M56.2161 21.0205C58.3015 17.2904 62.2845 14.7624 66.8456 14.7624C71.4067 14.7624 75.3897 17.2904 77.4751 21.0205C82.4414 21.0502 86.4738 25.102 86.4738 30.0788C86.4738 35.0557 82.4167 39.1371 77.4256 39.1371H77.3812L74.1938 35.9462H75.0537H77.4306C80.6624 35.9462 83.2914 33.3143 83.2914 30.0788C83.2914 27.2985 81.3444 24.9634 78.7451 24.3648C78.3201 24.2659 77.8803 24.2115 77.4306 24.2115C76.7536 24.2115 76.1112 24.3302 75.5083 24.5429C75.2167 23.4892 74.7374 22.5146 74.1098 21.6538C72.4741 19.4127 69.8304 17.9533 66.8505 17.9533C63.8707 17.9533 61.2319 19.4127 59.5913 21.6538C58.9637 22.5146 58.4844 23.4892 58.1928 24.5429C57.5899 24.3302 56.9426 24.2115 56.2705 24.2115C55.8159 24.2115 55.381 24.2659 54.956 24.3648C52.3567 24.9634 50.4097 27.2985 50.4097 30.0788C50.4097 33.3143 53.0387 35.9462 56.2705 35.9462H58.6474H59.5073L56.3199 39.1371H56.2754C51.2844 39.1371 47.2273 35.0755 47.2273 30.0788C47.2273 25.102 51.2597 21.0502 56.226 21.0205H56.2161Z"
            fill="#F05523"
          />
          <path
            d="M112.536 25.285V36.7971H109.611V35.3426C109.235 35.8423 108.751 36.2331 108.148 36.5151C107.545 36.7971 106.893 36.9405 106.186 36.9405C105.287 36.9405 104.491 36.7526 103.799 36.3716C103.107 35.9907 102.564 35.4317 102.168 34.6896C101.773 33.9475 101.575 33.0669 101.575 32.0428V25.29H104.481V31.6273C104.481 32.5425 104.708 33.245 105.168 33.7348C105.623 34.2245 106.245 34.4719 107.036 34.4719C107.827 34.4719 108.469 34.2245 108.924 33.7348C109.378 33.245 109.611 32.5376 109.611 31.6273V25.29H112.536V25.285Z"
            fill="#F05523"
          />
          <path
            d="M119.85 25.6264C120.507 25.2751 121.258 25.097 122.103 25.097C123.086 25.097 123.976 25.3394 124.771 25.8243C125.567 26.3091 126.195 26.9967 126.659 27.8922C127.124 28.7876 127.356 29.8216 127.356 30.999C127.356 32.1764 127.124 33.2203 126.659 34.1256C126.195 35.0309 125.567 35.7334 124.771 36.2331C123.976 36.7328 123.086 36.9801 122.103 36.9801C121.258 36.9801 120.517 36.807 119.874 36.4607C119.232 36.1144 118.708 35.679 118.308 35.1497V42.2786H115.402V25.285H118.308V26.9473C118.683 26.4229 119.197 25.9826 119.855 25.6264H119.85ZM123.961 29.1982C123.679 28.6936 123.304 28.3077 122.839 28.0455C122.375 27.7833 121.876 27.6498 121.337 27.6498C120.798 27.6498 120.314 27.7833 119.855 28.0554C119.39 28.3275 119.019 28.7183 118.733 29.2279C118.451 29.7424 118.308 30.341 118.308 31.0336C118.308 31.7262 118.451 32.3298 118.733 32.8393C119.014 33.3538 119.39 33.7447 119.855 34.0118C120.319 34.2839 120.813 34.4175 121.337 34.4175C121.861 34.4175 122.38 34.279 122.839 34.0019C123.304 33.7249 123.674 33.3291 123.961 32.8196C124.243 32.305 124.386 31.6965 124.386 30.9891C124.386 30.2817 124.243 29.6979 123.961 29.1933V29.1982Z"
            fill="#F05523"
          />
          <path
            d="M132.377 21.4213V36.7971H129.471V21.4213H132.377Z"
            fill="#F05523"
          />
          <path
            d="M137.358 36.243C136.473 35.7532 135.776 35.0557 135.272 34.1553C134.768 33.2549 134.516 32.216 134.516 31.0386C134.516 29.8611 134.773 28.8222 135.292 27.9219C135.811 27.0215 136.523 26.3239 137.417 25.8341C138.316 25.3444 139.32 25.097 140.427 25.097C141.533 25.097 142.537 25.3444 143.436 25.8341C144.335 26.3239 145.042 27.0215 145.561 27.9219C146.08 28.8222 146.337 29.8611 146.337 31.0386C146.337 32.216 146.07 33.2549 145.536 34.1553C145.003 35.0557 144.286 35.7532 143.377 36.243C142.472 36.7328 141.459 36.9801 140.338 36.9801C139.216 36.9801 138.232 36.7328 137.348 36.243H137.358ZM141.83 34.0613C142.295 33.804 142.665 33.4231 142.942 32.9086C143.219 32.3941 143.357 31.7708 143.357 31.0386C143.357 29.9452 143.07 29.1042 142.497 28.5155C141.924 27.9268 141.222 27.63 140.392 27.63C139.562 27.63 138.865 27.9268 138.307 28.5155C137.748 29.1042 137.467 29.9452 137.467 31.0386C137.467 32.1319 137.738 32.9729 138.287 33.5616C138.835 34.1503 139.522 34.4422 140.352 34.4422C140.876 34.4422 141.37 34.3136 141.835 34.0563L141.83 34.0613Z"
            fill="#F05523"
          />
          <path
            d="M148.432 27.9021C148.897 27.0017 149.524 26.3091 150.32 25.8243C151.115 25.3394 152.005 25.097 152.988 25.097C153.848 25.097 154.594 25.2702 155.242 25.6165C155.884 25.9628 156.398 26.3981 156.788 26.9275V25.285H159.714V36.7971H156.788V35.115C156.413 35.6543 155.899 36.0995 155.242 36.4557C154.584 36.807 153.828 36.9851 152.968 36.9851C152 36.9851 151.115 36.7377 150.325 36.2381C149.529 35.7384 148.902 35.0359 148.437 34.1306C147.972 33.2252 147.74 32.1814 147.74 31.0039C147.74 29.8265 147.972 28.8074 148.437 27.907L148.432 27.9021ZM156.373 29.223C156.097 28.7183 155.721 28.3275 155.252 28.0604C154.782 27.7932 154.278 27.6547 153.734 27.6547C153.191 27.6547 152.697 27.7883 152.242 28.0505C151.787 28.3127 151.417 28.6986 151.13 29.2032C150.849 29.7078 150.705 30.3064 150.705 30.999C150.705 31.6916 150.849 32.2952 151.13 32.8146C151.412 33.3341 151.787 33.7298 152.252 34.0118C152.716 34.2889 153.211 34.4274 153.734 34.4274C154.258 34.4274 154.777 34.2938 155.252 34.0217C155.726 33.7496 156.097 33.3637 156.373 32.8591C156.65 32.3545 156.788 31.746 156.788 31.0435C156.788 30.341 156.65 29.7325 156.373 29.223Z"
            fill="#F05523"
          />
          <path
            d="M162.501 27.9021C162.965 27.0017 163.598 26.3091 164.399 25.8243C165.199 25.3394 166.094 25.097 167.077 25.097C167.823 25.097 168.535 25.2603 169.217 25.5868C169.894 25.9133 170.432 26.3437 170.838 26.8829V21.4163H173.783V36.7921H170.838V35.0903C170.477 35.6592 169.973 36.1144 169.32 36.4607C168.668 36.807 167.917 36.9801 167.057 36.9801C166.089 36.9801 165.204 36.7328 164.399 36.2331C163.598 35.7334 162.961 35.0309 162.501 34.1256C162.036 33.2203 161.804 32.1764 161.804 30.999C161.804 29.8216 162.036 28.8025 162.501 27.9021ZM170.442 29.223C170.165 28.7183 169.79 28.3275 169.32 28.0604C168.851 27.7932 168.347 27.6547 167.803 27.6547C167.26 27.6547 166.766 27.7883 166.311 28.0505C165.856 28.3127 165.486 28.6986 165.199 29.2032C164.917 29.7078 164.774 30.3064 164.774 30.999C164.774 31.6916 164.917 32.2952 165.199 32.8146C165.481 33.3341 165.856 33.7298 166.321 34.0118C166.785 34.2889 167.28 34.4274 167.803 34.4274C168.327 34.4274 168.846 34.2938 169.32 34.0217C169.795 33.7496 170.165 33.3637 170.442 32.8591C170.719 32.3545 170.857 31.746 170.857 31.0435C170.857 30.341 170.719 29.7325 170.442 29.223Z"
            fill="#F05523"
          />
        </g>
        <defs>
          <clipPath id="clip0_106_399">
            <rect width="221" height="59" fill="white" />
          </clipPath>
        </defs>
      </svg>