<svg width="584" height="149" viewBox="0 0 584 149" fill="none" xmlns="http://www.w3.org/2000/svg">
	<path d="M74.608 64V19.008H83.312V64H74.608ZM92.5455 64V19.008H98.6255L101.25 27.712V64H92.5455ZM123.65 64L96.9615 29.44L98.6255 19.008L125.314 53.568L123.65 64ZM123.65 64L121.154 55.552V19.008H129.922V64H123.65ZM150.182 64V19.968H158.95V64H150.182ZM135.846 26.752V19.008H173.286V26.752H135.846ZM185.696 45.184V38.4H196.128C198.261 38.4 199.904 37.8667 201.056 36.8C202.25 35.6907 202.848 34.176 202.848 32.256C202.848 30.5067 202.25 29.056 201.056 27.904C199.904 26.7093 198.261 26.112 196.128 26.112H185.696V19.008H196.896C199.797 19.008 202.336 19.584 204.512 20.736C206.73 21.8453 208.437 23.3813 209.632 25.344C210.869 27.3067 211.488 29.568 211.488 32.128C211.488 34.7733 210.869 37.0773 209.632 39.04C208.437 40.96 206.73 42.4747 204.512 43.584C202.293 44.6507 199.712 45.184 196.768 45.184H185.696ZM179.296 64V19.008H188V64H179.296ZM203.872 64L189.024 44.544L197.024 42.048L214.432 64H203.872ZM240.039 64.704C236.754 64.704 233.682 64.1067 230.823 62.912C228.007 61.7173 225.532 60.0747 223.399 57.984C221.308 55.8507 219.666 53.376 218.471 50.56C217.276 47.7013 216.679 44.6507 216.679 41.408C216.679 38.1653 217.255 35.1573 218.407 32.384C219.602 29.568 221.244 27.1147 223.335 25.024C225.468 22.8907 227.943 21.248 230.759 20.096C233.575 18.9013 236.626 18.304 239.911 18.304C243.239 18.304 246.311 18.9013 249.127 20.096C251.943 21.248 254.396 22.8907 256.487 25.024C258.62 27.1147 260.284 29.568 261.479 32.384C262.674 35.2 263.271 38.2293 263.271 41.472C263.271 44.7147 262.674 47.744 261.479 50.56C260.284 53.376 258.62 55.8507 256.487 57.984C254.396 60.0747 251.943 61.7173 249.127 62.912C246.354 64.1067 243.324 64.704 240.039 64.704ZM239.911 56.576C242.812 56.576 245.33 55.936 247.463 54.656C249.596 53.376 251.26 51.6053 252.455 49.344C253.692 47.0827 254.311 44.4373 254.311 41.408C254.311 39.1893 253.97 37.1627 253.287 35.328C252.604 33.4933 251.623 31.9147 250.343 30.592C249.063 29.2267 247.548 28.1813 245.799 27.456C244.05 26.7307 242.087 26.368 239.911 26.368C237.095 26.368 234.599 27.008 232.423 28.288C230.29 29.5253 228.604 31.2747 227.367 33.536C226.172 35.7973 225.575 38.4213 225.575 41.408C225.575 43.6693 225.916 45.7387 226.599 47.616C227.324 49.4933 228.306 51.0933 229.543 52.416C230.823 53.7387 232.338 54.7627 234.087 55.488C235.879 56.2133 237.82 56.576 239.911 56.576ZM289.071 47.296V40.192H299.503C300.868 40.192 302.105 39.9147 303.215 39.36C304.324 38.8053 305.199 38.016 305.839 36.992C306.479 35.9253 306.799 34.6453 306.799 33.152C306.799 31.7013 306.479 30.4427 305.839 29.376C305.199 28.3093 304.324 27.4987 303.215 26.944C302.105 26.3893 300.868 26.112 299.503 26.112H289.071V19.008H300.399C303.257 19.008 305.817 19.584 308.079 20.736C310.383 21.888 312.196 23.5307 313.519 25.664C314.841 27.7547 315.503 30.2507 315.503 33.152C315.503 36.0533 314.841 38.5707 313.519 40.704C312.196 42.7947 310.383 44.416 308.079 45.568C305.817 46.72 303.257 47.296 300.399 47.296H289.071ZM282.671 64V19.008H291.375V64H282.671ZM328.071 45.184V38.4H338.503C340.636 38.4 342.279 37.8667 343.431 36.8C344.625 35.6907 345.223 34.176 345.223 32.256C345.223 30.5067 344.625 29.056 343.431 27.904C342.279 26.7093 340.636 26.112 338.503 26.112H328.071V19.008H339.271C342.172 19.008 344.711 19.584 346.887 20.736C349.105 21.8453 350.812 23.3813 352.007 25.344C353.244 27.3067 353.863 29.568 353.863 32.128C353.863 34.7733 353.244 37.0773 352.007 39.04C350.812 40.96 349.105 42.4747 346.887 43.584C344.668 44.6507 342.087 45.184 339.143 45.184H328.071ZM321.671 64V19.008H330.375V64H321.671ZM346.247 64L331.399 44.544L339.399 42.048L356.807 64H346.247ZM382.414 64.704C379.129 64.704 376.057 64.1067 373.198 62.912C370.382 61.7173 367.907 60.0747 365.774 57.984C363.683 55.8507 362.041 53.376 360.846 50.56C359.651 47.7013 359.054 44.6507 359.054 41.408C359.054 38.1653 359.63 35.1573 360.782 32.384C361.977 29.568 363.619 27.1147 365.71 25.024C367.843 22.8907 370.318 21.248 373.134 20.096C375.95 18.9013 379.001 18.304 382.286 18.304C385.614 18.304 388.686 18.9013 391.502 20.096C394.318 21.248 396.771 22.8907 398.862 25.024C400.995 27.1147 402.659 29.568 403.854 32.384C405.049 35.2 405.646 38.2293 405.646 41.472C405.646 44.7147 405.049 47.744 403.854 50.56C402.659 53.376 400.995 55.8507 398.862 57.984C396.771 60.0747 394.318 61.7173 391.502 62.912C388.729 64.1067 385.699 64.704 382.414 64.704ZM382.286 56.576C385.187 56.576 387.705 55.936 389.838 54.656C391.971 53.376 393.635 51.6053 394.83 49.344C396.067 47.0827 396.686 44.4373 396.686 41.408C396.686 39.1893 396.345 37.1627 395.662 35.328C394.979 33.4933 393.998 31.9147 392.718 30.592C391.438 29.2267 389.923 28.1813 388.174 27.456C386.425 26.7307 384.462 26.368 382.286 26.368C379.47 26.368 376.974 27.008 374.798 28.288C372.665 29.5253 370.979 31.2747 369.742 33.536C368.547 35.7973 367.95 38.4213 367.95 41.408C367.95 43.6693 368.291 45.7387 368.974 47.616C369.699 49.4933 370.681 51.0933 371.918 52.416C373.198 53.7387 374.713 54.7627 376.462 55.488C378.254 56.2133 380.195 56.576 382.286 56.576ZM412.546 64V19.008H418.69L436.93 48.192H433.41L451.586 19.008H457.73V64H449.09V33.92L450.754 34.432L438.082 54.784H432.194L419.522 34.432L421.25 33.92V64H412.546ZM487.977 64.704C484.691 64.704 481.619 64.1067 478.76 62.912C475.945 61.7173 473.47 60.0747 471.337 57.984C469.246 55.8507 467.603 53.376 466.409 50.56C465.214 47.7013 464.617 44.6507 464.617 41.408C464.617 38.1653 465.193 35.1573 466.345 32.384C467.539 29.568 469.182 27.1147 471.273 25.024C473.406 22.8907 475.881 21.248 478.697 20.096C481.513 18.9013 484.563 18.304 487.849 18.304C491.177 18.304 494.249 18.9013 497.065 20.096C499.881 21.248 502.334 22.8907 504.425 25.024C506.558 27.1147 508.222 29.568 509.417 32.384C510.611 35.2 511.209 38.2293 511.209 41.472C511.209 44.7147 510.611 47.744 509.417 50.56C508.222 53.376 506.558 55.8507 504.425 57.984C502.334 60.0747 499.881 61.7173 497.065 62.912C494.291 64.1067 491.262 64.704 487.977 64.704ZM487.849 56.576C490.75 56.576 493.267 55.936 495.401 54.656C497.534 53.376 499.198 51.6053 500.393 49.344C501.63 47.0827 502.249 44.4373 502.249 41.408C502.249 39.1893 501.907 37.1627 501.225 35.328C500.542 33.4933 499.561 31.9147 498.281 30.592C497.001 29.2267 495.486 28.1813 493.737 27.456C491.987 26.7307 490.025 26.368 487.849 26.368C485.033 26.368 482.537 27.008 480.361 28.288C478.227 29.5253 476.542 31.2747 475.305 33.536C474.11 35.7973 473.513 38.4213 473.513 41.408C473.513 43.6693 473.854 45.7387 474.537 47.616C475.262 49.4933 476.243 51.0933 477.481 52.416C478.761 53.7387 480.275 54.7627 482.025 55.488C483.817 56.2133 485.758 56.576 487.849 56.576Z" fill="url(#paint0_linear_0_1)"/>
	<path d="M20.4102 102.131C20.3192 101.324 19.9442 100.699 19.2852 100.256C18.6261 99.8068 17.7965 99.5824 16.7965 99.5824C16.0806 99.5824 15.4613 99.696 14.9386 99.9233C14.4158 100.145 14.0096 100.452 13.7198 100.844C13.4357 101.23 13.2937 101.67 13.2937 102.165C13.2937 102.58 13.3903 102.937 13.5835 103.239C13.7823 103.54 14.0408 103.793 14.359 103.997C14.6829 104.196 15.0295 104.364 15.3988 104.5C15.7681 104.631 16.1232 104.739 16.4641 104.824L18.1687 105.267C18.7255 105.403 19.2965 105.588 19.8817 105.821C20.467 106.054 21.0096 106.361 21.5096 106.741C22.0096 107.122 22.413 107.594 22.7198 108.156C23.0323 108.719 23.1886 109.392 23.1886 110.176C23.1886 111.165 22.9329 112.043 22.4215 112.81C21.9158 113.577 21.18 114.182 20.2141 114.625C19.2539 115.068 18.092 115.29 16.7283 115.29C15.4215 115.29 14.2908 115.082 13.3363 114.668C12.3817 114.253 11.6346 113.665 11.0948 112.903C10.555 112.136 10.2567 111.227 10.1999 110.176H12.842C12.8931 110.807 13.0977 111.332 13.4556 111.753C13.8192 112.168 14.2823 112.477 14.8448 112.682C15.413 112.881 16.0352 112.98 16.7113 112.98C17.4556 112.98 18.1175 112.864 18.6971 112.631C19.2823 112.392 19.7425 112.062 20.0778 111.642C20.413 111.216 20.5806 110.719 20.5806 110.151C20.5806 109.634 20.4329 109.21 20.1374 108.881C19.8477 108.551 19.4528 108.278 18.9528 108.062C18.4585 107.847 17.8988 107.656 17.2738 107.491L15.2113 106.929C13.8136 106.548 12.7056 105.989 11.8874 105.25C11.0749 104.511 10.6687 103.534 10.6687 102.318C10.6687 101.312 10.9414 100.435 11.4869 99.6847C12.0323 98.9347 12.771 98.3523 13.7028 97.9375C14.6346 97.517 15.6857 97.3068 16.8562 97.3068C18.038 97.3068 19.0806 97.5142 19.984 97.929C20.8931 98.3438 21.609 98.9148 22.1317 99.642C22.6545 100.364 22.9272 101.193 22.9499 102.131H20.4102ZM34.4237 109.571V101.909H36.9805V115H34.4748V112.733H34.3384C34.0373 113.432 33.5543 114.014 32.8896 114.48C32.2305 114.94 31.4094 115.17 30.4265 115.17C29.5856 115.17 28.8413 114.986 28.1935 114.616C27.5515 114.241 27.0458 113.688 26.6765 112.955C26.3129 112.222 26.131 111.315 26.131 110.236V101.909H28.6793V109.929C28.6793 110.821 28.9265 111.531 29.4208 112.06C29.9151 112.588 30.5572 112.852 31.3469 112.852C31.8242 112.852 32.2987 112.733 32.7702 112.494C33.2475 112.256 33.6424 111.895 33.9549 111.412C34.2731 110.929 34.4293 110.315 34.4237 109.571ZM40.609 115V97.5455H43.1573V104.031H43.3107C43.4585 103.759 43.6715 103.443 43.9499 103.085C44.2283 102.727 44.6147 102.415 45.109 102.148C45.6033 101.875 46.2567 101.739 47.0692 101.739C48.1261 101.739 49.0692 102.006 49.8988 102.54C50.7283 103.074 51.3789 103.844 51.8505 104.849C52.3278 105.855 52.5664 107.065 52.5664 108.48C52.5664 109.895 52.3306 111.108 51.859 112.119C51.3874 113.125 50.7397 113.901 49.9158 114.446C49.092 114.986 48.1516 115.256 47.0948 115.256C46.2994 115.256 45.6488 115.122 45.1431 114.855C44.6431 114.588 44.2511 114.276 43.967 113.918C43.6829 113.56 43.4641 113.241 43.3107 112.963H43.0977V115H40.609ZM43.1062 108.455C43.1062 109.375 43.2397 110.182 43.5067 110.875C43.7738 111.568 44.1602 112.111 44.6658 112.503C45.1715 112.889 45.7908 113.082 46.5238 113.082C47.2852 113.082 47.9215 112.881 48.4329 112.477C48.9442 112.068 49.3306 111.514 49.592 110.815C49.859 110.116 49.9925 109.33 49.9925 108.455C49.9925 107.591 49.8619 106.815 49.6005 106.128C49.3448 105.44 48.9585 104.898 48.4414 104.5C47.93 104.102 47.2908 103.903 46.5238 103.903C45.7852 103.903 45.1602 104.094 44.6488 104.474C44.1431 104.855 43.7596 105.386 43.4982 106.068C43.2369 106.75 43.1062 107.545 43.1062 108.455ZM65.2376 105.105L62.9279 105.514C62.8313 105.219 62.6779 104.937 62.4677 104.67C62.2631 104.403 61.9847 104.185 61.6325 104.014C61.2802 103.844 60.8398 103.759 60.3114 103.759C59.5898 103.759 58.9876 103.92 58.5046 104.244C58.0217 104.562 57.7802 104.974 57.7802 105.48C57.7802 105.918 57.9421 106.27 58.266 106.537C58.5898 106.804 59.1126 107.023 59.8342 107.193L61.9137 107.67C63.1183 107.949 64.016 108.378 64.6069 108.957C65.1978 109.537 65.4933 110.29 65.4933 111.216C65.4933 112 65.266 112.699 64.8114 113.312C64.3626 113.92 63.7347 114.398 62.9279 114.744C62.1268 115.091 61.1978 115.264 60.141 115.264C58.6751 115.264 57.479 114.952 56.5529 114.327C55.6268 113.696 55.0586 112.801 54.8484 111.642L57.3114 111.267C57.4648 111.909 57.7802 112.395 58.2575 112.724C58.7347 113.048 59.3569 113.21 60.1239 113.21C60.9592 113.21 61.6268 113.037 62.1268 112.69C62.6268 112.338 62.8768 111.909 62.8768 111.403C62.8768 110.994 62.7234 110.651 62.4165 110.372C62.1154 110.094 61.6523 109.884 61.0273 109.741L58.8114 109.256C57.5898 108.977 56.6864 108.534 56.1012 107.926C55.5217 107.318 55.2319 106.548 55.2319 105.616C55.2319 104.844 55.4478 104.168 55.8796 103.588C56.3114 103.009 56.908 102.557 57.6694 102.233C58.4308 101.903 59.3029 101.739 60.2859 101.739C61.7006 101.739 62.8143 102.045 63.6268 102.659C64.4393 103.267 64.9762 104.082 65.2376 105.105ZM73.8093 115.264C72.5423 115.264 71.4513 114.977 70.5366 114.403C69.6275 113.824 68.9286 113.026 68.44 112.009C67.9513 110.991 67.707 109.827 67.707 108.514C67.707 107.185 67.957 106.011 68.457 104.994C68.957 103.972 69.6616 103.173 70.5707 102.599C71.4798 102.026 72.5508 101.739 73.7837 101.739C74.7781 101.739 75.6644 101.923 76.4428 102.293C77.2212 102.656 77.8491 103.168 78.3263 103.827C78.8093 104.486 79.0962 105.256 79.1871 106.136H76.707C76.5707 105.523 76.2582 104.994 75.7695 104.551C75.2866 104.108 74.6388 103.886 73.8263 103.886C73.1161 103.886 72.494 104.074 71.9599 104.449C71.4315 104.818 71.0195 105.347 70.7241 106.034C70.4286 106.716 70.2809 107.523 70.2809 108.455C70.2809 109.409 70.4258 110.233 70.7156 110.926C71.0053 111.619 71.4144 112.156 71.9428 112.537C72.4769 112.918 73.1048 113.108 73.8263 113.108C74.3093 113.108 74.7468 113.02 75.1388 112.844C75.5366 112.662 75.869 112.403 76.136 112.068C76.4087 111.733 76.5991 111.33 76.707 110.858H79.1871C79.0962 111.705 78.8207 112.46 78.3604 113.125C77.9002 113.79 77.2837 114.312 76.511 114.693C75.744 115.074 74.8434 115.264 73.8093 115.264ZM81.9123 115V101.909H84.3754V103.989H84.5117C84.7504 103.284 85.1708 102.73 85.7731 102.327C86.381 101.918 87.0685 101.713 87.8356 101.713C87.9947 101.713 88.1822 101.719 88.3981 101.73C88.6197 101.741 88.793 101.756 88.918 101.773V104.21C88.8157 104.182 88.6339 104.151 88.3725 104.116C88.1112 104.077 87.8498 104.057 87.5884 104.057C86.9862 104.057 86.4492 104.185 85.9776 104.44C85.5117 104.69 85.1424 105.04 84.8697 105.489C84.5969 105.932 84.4606 106.437 84.4606 107.006V115H81.9123ZM91.1232 115V101.909H93.6715V115H91.1232ZM92.4102 99.8892C91.967 99.8892 91.5863 99.7415 91.2681 99.446C90.9556 99.1449 90.7994 98.7869 90.7994 98.3722C90.7994 97.9517 90.9556 97.5937 91.2681 97.2983C91.5863 96.9972 91.967 96.8466 92.4102 96.8466C92.8533 96.8466 93.2312 96.9972 93.5437 97.2983C93.8619 97.5937 94.021 97.9517 94.021 98.3722C94.021 98.7869 93.8619 99.1449 93.5437 99.446C93.2312 99.7415 92.8533 99.8892 92.4102 99.8892ZM97.3043 115V97.5455H99.8526V104.031H100.006C100.154 103.759 100.367 103.443 100.645 103.085C100.924 102.727 101.31 102.415 101.804 102.148C102.299 101.875 102.952 101.739 103.765 101.739C104.821 101.739 105.765 102.006 106.594 102.54C107.424 103.074 108.074 103.844 108.546 104.849C109.023 105.855 109.262 107.065 109.262 108.48C109.262 109.895 109.026 111.108 108.554 112.119C108.083 113.125 107.435 113.901 106.611 114.446C105.787 114.986 104.847 115.256 103.79 115.256C102.995 115.256 102.344 115.122 101.838 114.855C101.338 114.588 100.946 114.276 100.662 113.918C100.378 113.56 100.159 113.241 100.006 112.963H99.793V115H97.3043ZM99.8015 108.455C99.8015 109.375 99.935 110.182 100.202 110.875C100.469 111.568 100.855 112.111 101.361 112.503C101.867 112.889 102.486 113.082 103.219 113.082C103.98 113.082 104.617 112.881 105.128 112.477C105.64 112.068 106.026 111.514 106.287 110.815C106.554 110.116 106.688 109.33 106.688 108.455C106.688 107.591 106.557 106.815 106.296 106.128C106.04 105.44 105.654 104.898 105.137 104.5C104.625 104.102 103.986 103.903 103.219 103.903C102.48 103.903 101.855 104.094 101.344 104.474C100.838 104.855 100.455 105.386 100.194 106.068C99.9322 106.75 99.8015 107.545 99.8015 108.455ZM117.765 115.264C116.475 115.264 115.365 114.989 114.433 114.438C113.507 113.881 112.791 113.099 112.285 112.094C111.785 111.082 111.535 109.898 111.535 108.54C111.535 107.199 111.785 106.017 112.285 104.994C112.791 103.972 113.495 103.173 114.399 102.599C115.308 102.026 116.37 101.739 117.586 101.739C118.325 101.739 119.041 101.861 119.734 102.105C120.427 102.349 121.049 102.733 121.6 103.256C122.152 103.778 122.586 104.457 122.904 105.293C123.223 106.122 123.382 107.131 123.382 108.318V109.222H112.975V107.312H120.885C120.885 106.642 120.748 106.048 120.475 105.531C120.203 105.009 119.819 104.597 119.325 104.295C118.836 103.994 118.262 103.844 117.603 103.844C116.887 103.844 116.262 104.02 115.728 104.372C115.2 104.719 114.791 105.173 114.501 105.736C114.217 106.293 114.075 106.898 114.075 107.551V109.043C114.075 109.918 114.228 110.662 114.535 111.276C114.848 111.889 115.282 112.358 115.839 112.682C116.396 113 117.047 113.159 117.791 113.159C118.274 113.159 118.714 113.091 119.112 112.955C119.51 112.812 119.853 112.602 120.143 112.324C120.433 112.045 120.654 111.702 120.808 111.293L123.22 111.727C123.027 112.437 122.68 113.06 122.18 113.594C121.686 114.122 121.064 114.534 120.314 114.83C119.569 115.119 118.72 115.264 117.765 115.264ZM146.853 97.5455V115H144.433L135.561 102.199H135.399V115H132.765V97.5455H135.203L144.083 110.364H144.245V97.5455H146.853ZM156.005 115.264C154.777 115.264 153.706 114.983 152.792 114.42C151.877 113.858 151.167 113.071 150.661 112.06C150.155 111.048 149.902 109.866 149.902 108.514C149.902 107.156 150.155 105.969 150.661 104.952C151.167 103.935 151.877 103.145 152.792 102.582C153.706 102.02 154.777 101.739 156.005 101.739C157.232 101.739 158.303 102.02 159.218 102.582C160.132 103.145 160.843 103.935 161.348 104.952C161.854 105.969 162.107 107.156 162.107 108.514C162.107 109.866 161.854 111.048 161.348 112.06C160.843 113.071 160.132 113.858 159.218 114.42C158.303 114.983 157.232 115.264 156.005 115.264ZM156.013 113.125C156.809 113.125 157.468 112.915 157.99 112.494C158.513 112.074 158.9 111.514 159.15 110.815C159.405 110.116 159.533 109.347 159.533 108.506C159.533 107.67 159.405 106.903 159.15 106.205C158.9 105.5 158.513 104.935 157.99 104.509C157.468 104.082 156.809 103.869 156.013 103.869C155.212 103.869 154.547 104.082 154.019 104.509C153.496 104.935 153.107 105.5 152.851 106.205C152.601 106.903 152.476 107.67 152.476 108.506C152.476 109.347 152.601 110.116 152.851 110.815C153.107 111.514 153.496 112.074 154.019 112.494C154.547 112.915 155.212 113.125 156.013 113.125ZM167.391 115L163.539 101.909H166.172L168.738 111.523H168.865L171.439 101.909H174.073L176.63 111.48H176.757L179.306 101.909H181.939L178.096 115H175.496L172.837 105.548H172.641L169.982 115H167.391ZM194.519 115.29C193.689 115.29 192.939 115.136 192.269 114.83C191.598 114.517 191.067 114.065 190.675 113.474C190.289 112.884 190.096 112.159 190.096 111.301C190.096 110.562 190.238 109.955 190.522 109.477C190.806 109 191.189 108.622 191.672 108.344C192.155 108.065 192.695 107.855 193.292 107.713C193.888 107.571 194.496 107.463 195.115 107.389C195.9 107.298 196.536 107.224 197.025 107.168C197.513 107.105 197.868 107.006 198.09 106.869C198.311 106.733 198.422 106.511 198.422 106.205V106.145C198.422 105.401 198.212 104.824 197.792 104.415C197.377 104.006 196.757 103.801 195.934 103.801C195.076 103.801 194.4 103.991 193.905 104.372C193.417 104.747 193.078 105.165 192.891 105.625L190.496 105.08C190.78 104.284 191.195 103.642 191.74 103.153C192.292 102.659 192.925 102.301 193.641 102.08C194.357 101.852 195.11 101.739 195.9 101.739C196.422 101.739 196.976 101.801 197.561 101.926C198.152 102.045 198.703 102.267 199.215 102.591C199.732 102.915 200.155 103.378 200.485 103.98C200.814 104.577 200.979 105.352 200.979 106.307V115H198.49V113.21H198.388C198.223 113.54 197.976 113.864 197.647 114.182C197.317 114.5 196.894 114.764 196.377 114.974C195.86 115.185 195.24 115.29 194.519 115.29ZM195.073 113.244C195.777 113.244 196.38 113.105 196.88 112.827C197.385 112.548 197.769 112.185 198.03 111.736C198.297 111.281 198.431 110.795 198.431 110.278V108.591C198.34 108.682 198.164 108.767 197.902 108.847C197.647 108.92 197.354 108.986 197.025 109.043C196.695 109.094 196.374 109.142 196.061 109.188C195.749 109.227 195.488 109.261 195.277 109.29C194.783 109.352 194.331 109.457 193.922 109.605C193.519 109.753 193.195 109.966 192.951 110.244C192.712 110.517 192.593 110.881 192.593 111.335C192.593 111.966 192.826 112.443 193.292 112.767C193.757 113.085 194.351 113.244 195.073 113.244ZM206.922 107.227V115H204.373V101.909H206.819V104.04H206.981C207.282 103.347 207.754 102.79 208.396 102.369C209.044 101.949 209.859 101.739 210.842 101.739C211.734 101.739 212.515 101.926 213.186 102.301C213.856 102.67 214.376 103.222 214.745 103.955C215.115 104.687 215.299 105.594 215.299 106.673V115H212.751V106.98C212.751 106.031 212.504 105.29 212.01 104.756C211.515 104.216 210.836 103.946 209.973 103.946C209.382 103.946 208.856 104.074 208.396 104.33C207.941 104.585 207.581 104.96 207.314 105.455C207.052 105.943 206.922 106.534 206.922 107.227ZM223.618 115.256C222.561 115.256 221.618 114.986 220.788 114.446C219.964 113.901 219.316 113.125 218.845 112.119C218.379 111.108 218.146 109.895 218.146 108.48C218.146 107.065 218.382 105.855 218.853 104.849C219.331 103.844 219.984 103.074 220.814 102.54C221.643 102.006 222.583 101.739 223.635 101.739C224.447 101.739 225.1 101.875 225.595 102.148C226.095 102.415 226.481 102.727 226.754 103.085C227.032 103.443 227.248 103.759 227.402 104.031H227.555V97.5455H230.103V115H227.615V112.963H227.402C227.248 113.241 227.027 113.56 226.737 113.918C226.453 114.276 226.061 114.588 225.561 114.855C225.061 115.122 224.413 115.256 223.618 115.256ZM224.18 113.082C224.913 113.082 225.532 112.889 226.038 112.503C226.549 112.111 226.936 111.568 227.197 110.875C227.464 110.182 227.598 109.375 227.598 108.455C227.598 107.545 227.467 106.75 227.206 106.068C226.944 105.386 226.561 104.855 226.055 104.474C225.549 104.094 224.924 103.903 224.18 103.903C223.413 103.903 222.774 104.102 222.262 104.5C221.751 104.898 221.365 105.44 221.103 106.128C220.848 106.815 220.72 107.591 220.72 108.455C220.72 109.33 220.85 110.116 221.112 110.815C221.373 111.514 221.76 112.068 222.271 112.477C222.788 112.881 223.424 113.082 224.18 113.082ZM245.581 120.182C244.541 120.182 243.646 120.045 242.896 119.773C242.152 119.5 241.544 119.139 241.072 118.69C240.6 118.241 240.248 117.75 240.015 117.216L242.206 116.312C242.359 116.562 242.564 116.827 242.819 117.105C243.081 117.389 243.433 117.631 243.876 117.83C244.325 118.028 244.902 118.128 245.606 118.128C246.572 118.128 247.37 117.892 248.001 117.42C248.632 116.955 248.947 116.21 248.947 115.188V112.614H248.785C248.632 112.892 248.41 113.202 248.12 113.543C247.836 113.884 247.444 114.179 246.944 114.429C246.444 114.679 245.794 114.804 244.993 114.804C243.958 114.804 243.027 114.562 242.197 114.08C241.373 113.591 240.72 112.872 240.237 111.923C239.76 110.969 239.521 109.795 239.521 108.403C239.521 107.011 239.757 105.818 240.228 104.824C240.706 103.83 241.359 103.068 242.189 102.54C243.018 102.006 243.958 101.739 245.01 101.739C245.822 101.739 246.478 101.875 246.978 102.148C247.478 102.415 247.868 102.727 248.146 103.085C248.43 103.443 248.649 103.759 248.802 104.031H248.99V101.909H251.487V115.29C251.487 116.415 251.225 117.338 250.703 118.06C250.18 118.781 249.473 119.315 248.581 119.662C247.694 120.009 246.694 120.182 245.581 120.182ZM245.555 112.69C246.288 112.69 246.907 112.52 247.413 112.179C247.924 111.832 248.311 111.338 248.572 110.696C248.839 110.048 248.973 109.273 248.973 108.369C248.973 107.489 248.842 106.713 248.581 106.043C248.319 105.372 247.936 104.849 247.43 104.474C246.924 104.094 246.299 103.903 245.555 103.903C244.788 103.903 244.149 104.102 243.637 104.5C243.126 104.892 242.74 105.426 242.478 106.102C242.223 106.778 242.095 107.534 242.095 108.369C242.095 109.227 242.225 109.98 242.487 110.628C242.748 111.276 243.135 111.781 243.646 112.145C244.163 112.509 244.799 112.69 245.555 112.69ZM260.547 115.264C259.257 115.264 258.146 114.989 257.214 114.438C256.288 113.881 255.572 113.099 255.066 112.094C254.566 111.082 254.316 109.898 254.316 108.54C254.316 107.199 254.566 106.017 255.066 104.994C255.572 103.972 256.277 103.173 257.18 102.599C258.089 102.026 259.152 101.739 260.368 101.739C261.106 101.739 261.822 101.861 262.515 102.105C263.208 102.349 263.831 102.733 264.382 103.256C264.933 103.778 265.368 104.457 265.686 105.293C266.004 106.122 266.163 107.131 266.163 108.318V109.222H255.757V107.312H263.666C263.666 106.642 263.529 106.048 263.257 105.531C262.984 105.009 262.6 104.597 262.106 104.295C261.618 103.994 261.044 103.844 260.385 103.844C259.669 103.844 259.044 104.02 258.51 104.372C257.981 104.719 257.572 105.173 257.282 105.736C256.998 106.293 256.856 106.898 256.856 107.551V109.043C256.856 109.918 257.01 110.662 257.316 111.276C257.629 111.889 258.064 112.358 258.62 112.682C259.177 113 259.828 113.159 260.572 113.159C261.055 113.159 261.495 113.091 261.893 112.955C262.291 112.812 262.635 112.602 262.924 112.324C263.214 112.045 263.436 111.702 263.589 111.293L266.001 111.727C265.808 112.437 265.461 113.06 264.961 113.594C264.467 114.122 263.845 114.534 263.095 114.83C262.35 115.119 261.501 115.264 260.547 115.264ZM275.101 101.909V103.955H267.951V101.909H275.101ZM269.868 98.7727H272.417V111.156C272.417 111.651 272.49 112.023 272.638 112.273C272.786 112.517 272.976 112.685 273.209 112.776C273.448 112.861 273.706 112.903 273.985 112.903C274.189 112.903 274.368 112.889 274.522 112.861C274.675 112.832 274.794 112.81 274.88 112.793L275.34 114.898C275.192 114.955 274.982 115.011 274.709 115.068C274.436 115.131 274.096 115.165 273.686 115.17C273.016 115.182 272.391 115.062 271.811 114.812C271.232 114.562 270.763 114.176 270.405 113.653C270.047 113.131 269.868 112.474 269.868 111.685V98.7727ZM288.081 115.29C287.252 115.29 286.502 115.136 285.831 114.83C285.161 114.517 284.63 114.065 284.238 113.474C283.851 112.884 283.658 112.159 283.658 111.301C283.658 110.562 283.8 109.955 284.084 109.477C284.368 109 284.752 108.622 285.235 108.344C285.718 108.065 286.257 107.855 286.854 107.713C287.451 107.571 288.059 107.463 288.678 107.389C289.462 107.298 290.098 107.224 290.587 107.168C291.076 107.105 291.431 107.006 291.652 106.869C291.874 106.733 291.985 106.511 291.985 106.205V106.145C291.985 105.401 291.775 104.824 291.354 104.415C290.939 104.006 290.32 103.801 289.496 103.801C288.638 103.801 287.962 103.991 287.468 104.372C286.979 104.747 286.641 105.165 286.453 105.625L284.059 105.08C284.343 104.284 284.757 103.642 285.303 103.153C285.854 102.659 286.488 102.301 287.203 102.08C287.919 101.852 288.672 101.739 289.462 101.739C289.985 101.739 290.539 101.801 291.124 101.926C291.715 102.045 292.266 102.267 292.777 102.591C293.294 102.915 293.718 103.378 294.047 103.98C294.377 104.577 294.542 105.352 294.542 106.307V115H292.053V113.21H291.951C291.786 113.54 291.539 113.864 291.209 114.182C290.88 114.5 290.456 114.764 289.939 114.974C289.422 115.185 288.803 115.29 288.081 115.29ZM288.635 113.244C289.34 113.244 289.942 113.105 290.442 112.827C290.948 112.548 291.331 112.185 291.593 111.736C291.86 111.281 291.993 110.795 291.993 110.278V108.591C291.902 108.682 291.726 108.767 291.465 108.847C291.209 108.92 290.917 108.986 290.587 109.043C290.257 109.094 289.936 109.142 289.624 109.188C289.311 109.227 289.05 109.261 288.84 109.29C288.346 109.352 287.894 109.457 287.485 109.605C287.081 109.753 286.757 109.966 286.513 110.244C286.275 110.517 286.155 110.881 286.155 111.335C286.155 111.966 286.388 112.443 286.854 112.767C287.32 113.085 287.914 113.244 288.635 113.244ZM303.45 115.264C302.183 115.264 301.092 114.977 300.177 114.403C299.268 113.824 298.569 113.026 298.081 112.009C297.592 110.991 297.348 109.827 297.348 108.514C297.348 107.185 297.598 106.011 298.098 104.994C298.598 103.972 299.302 103.173 300.211 102.599C301.12 102.026 302.191 101.739 303.424 101.739C304.419 101.739 305.305 101.923 306.083 102.293C306.862 102.656 307.49 103.168 307.967 103.827C308.45 104.486 308.737 105.256 308.828 106.136H306.348C306.211 105.523 305.899 104.994 305.41 104.551C304.927 104.108 304.279 103.886 303.467 103.886C302.757 103.886 302.135 104.074 301.6 104.449C301.072 104.818 300.66 105.347 300.365 106.034C300.069 106.716 299.922 107.523 299.922 108.455C299.922 109.409 300.066 110.233 300.356 110.926C300.646 111.619 301.055 112.156 301.583 112.537C302.118 112.918 302.745 113.108 303.467 113.108C303.95 113.108 304.387 113.02 304.779 112.844C305.177 112.662 305.51 112.403 305.777 112.068C306.049 111.733 306.24 111.33 306.348 110.858H308.828C308.737 111.705 308.461 112.46 308.001 113.125C307.541 113.79 306.924 114.312 306.152 114.693C305.385 115.074 304.484 115.264 303.45 115.264ZM317.067 115.264C315.8 115.264 314.709 114.977 313.794 114.403C312.885 113.824 312.186 113.026 311.698 112.009C311.209 110.991 310.965 109.827 310.965 108.514C310.965 107.185 311.215 106.011 311.715 104.994C312.215 103.972 312.919 103.173 313.828 102.599C314.738 102.026 315.809 101.739 317.042 101.739C318.036 101.739 318.922 101.923 319.701 102.293C320.479 102.656 321.107 103.168 321.584 103.827C322.067 104.486 322.354 105.256 322.445 106.136H319.965C319.828 105.523 319.516 104.994 319.027 104.551C318.544 104.108 317.897 103.886 317.084 103.886C316.374 103.886 315.752 104.074 315.218 104.449C314.689 104.818 314.277 105.347 313.982 106.034C313.686 106.716 313.539 107.523 313.539 108.455C313.539 109.409 313.684 110.233 313.973 110.926C314.263 111.619 314.672 112.156 315.201 112.537C315.735 112.918 316.363 113.108 317.084 113.108C317.567 113.108 318.005 113.02 318.397 112.844C318.794 112.662 319.127 112.403 319.394 112.068C319.667 111.733 319.857 111.33 319.965 110.858H322.445C322.354 111.705 322.078 112.46 321.618 113.125C321.158 113.79 320.542 114.312 319.769 114.693C319.002 115.074 318.101 115.264 317.067 115.264ZM330.812 115.264C329.522 115.264 328.412 114.989 327.48 114.438C326.554 113.881 325.838 113.099 325.332 112.094C324.832 111.082 324.582 109.898 324.582 108.54C324.582 107.199 324.832 106.017 325.332 104.994C325.838 103.972 326.542 103.173 327.446 102.599C328.355 102.026 329.417 101.739 330.633 101.739C331.372 101.739 332.088 101.861 332.781 102.105C333.474 102.349 334.096 102.733 334.647 103.256C335.199 103.778 335.633 104.457 335.951 105.293C336.27 106.122 336.429 107.131 336.429 108.318V109.222H326.022V107.312H333.931C333.931 106.642 333.795 106.048 333.522 105.531C333.25 105.009 332.866 104.597 332.372 104.295C331.883 103.994 331.309 103.844 330.65 103.844C329.934 103.844 329.309 104.02 328.775 104.372C328.247 104.719 327.838 105.173 327.548 105.736C327.264 106.293 327.122 106.898 327.122 107.551V109.043C327.122 109.918 327.275 110.662 327.582 111.276C327.895 111.889 328.329 112.358 328.886 112.682C329.443 113 330.093 113.159 330.838 113.159C331.321 113.159 331.761 113.091 332.159 112.955C332.556 112.812 332.9 112.602 333.19 112.324C333.48 112.045 333.701 111.702 333.855 111.293L336.267 111.727C336.074 112.437 335.727 113.06 335.227 113.594C334.733 114.122 334.11 114.534 333.36 114.83C332.616 115.119 331.767 115.264 330.812 115.264ZM349.066 105.105L346.756 105.514C346.659 105.219 346.506 104.937 346.296 104.67C346.091 104.403 345.813 104.185 345.461 104.014C345.108 103.844 344.668 103.759 344.14 103.759C343.418 103.759 342.816 103.92 342.333 104.244C341.85 104.562 341.608 104.974 341.608 105.48C341.608 105.918 341.77 106.27 342.094 106.537C342.418 106.804 342.941 107.023 343.662 107.193L345.742 107.67C346.946 107.949 347.844 108.378 348.435 108.957C349.026 109.537 349.321 110.29 349.321 111.216C349.321 112 349.094 112.699 348.64 113.312C348.191 113.92 347.563 114.398 346.756 114.744C345.955 115.091 345.026 115.264 343.969 115.264C342.503 115.264 341.307 114.952 340.381 114.327C339.455 113.696 338.887 112.801 338.676 111.642L341.14 111.267C341.293 111.909 341.608 112.395 342.086 112.724C342.563 113.048 343.185 113.21 343.952 113.21C344.787 113.21 345.455 113.037 345.955 112.69C346.455 112.338 346.705 111.909 346.705 111.403C346.705 110.994 346.551 110.651 346.245 110.372C345.944 110.094 345.48 109.884 344.855 109.741L342.64 109.256C341.418 108.977 340.515 108.534 339.929 107.926C339.35 107.318 339.06 106.548 339.06 105.616C339.06 104.844 339.276 104.168 339.708 103.588C340.14 103.009 340.736 102.557 341.498 102.233C342.259 101.903 343.131 101.739 344.114 101.739C345.529 101.739 346.642 102.045 347.455 102.659C348.267 103.267 348.804 104.082 349.066 105.105ZM361.933 105.105L359.623 105.514C359.527 105.219 359.373 104.937 359.163 104.67C358.958 104.403 358.68 104.185 358.328 104.014C357.975 103.844 357.535 103.759 357.007 103.759C356.285 103.759 355.683 103.92 355.2 104.244C354.717 104.562 354.475 104.974 354.475 105.48C354.475 105.918 354.637 106.27 354.961 106.537C355.285 106.804 355.808 107.023 356.529 107.193L358.609 107.67C359.814 107.949 360.711 108.378 361.302 108.957C361.893 109.537 362.189 110.29 362.189 111.216C362.189 112 361.961 112.699 361.507 113.312C361.058 113.92 360.43 114.398 359.623 114.744C358.822 115.091 357.893 115.264 356.836 115.264C355.37 115.264 354.174 114.952 353.248 114.327C352.322 113.696 351.754 112.801 351.544 111.642L354.007 111.267C354.16 111.909 354.475 112.395 354.953 112.724C355.43 113.048 356.052 113.21 356.819 113.21C357.654 113.21 358.322 113.037 358.822 112.69C359.322 112.338 359.572 111.909 359.572 111.403C359.572 110.994 359.419 110.651 359.112 110.372C358.811 110.094 358.348 109.884 357.723 109.741L355.507 109.256C354.285 108.977 353.382 108.534 352.797 107.926C352.217 107.318 351.927 106.548 351.927 105.616C351.927 104.844 352.143 104.168 352.575 103.588C353.007 103.009 353.603 102.557 354.365 102.233C355.126 101.903 355.998 101.739 356.981 101.739C358.396 101.739 359.51 102.045 360.322 102.659C361.135 103.267 361.672 104.082 361.933 105.105ZM377.453 101.909V103.955H370.302V101.909H377.453ZM372.22 98.7727H374.768V111.156C374.768 111.651 374.842 112.023 374.99 112.273C375.137 112.517 375.328 112.685 375.561 112.776C375.799 112.861 376.058 112.903 376.336 112.903C376.541 112.903 376.72 112.889 376.873 112.861C377.027 112.832 377.146 112.81 377.231 112.793L377.691 114.898C377.544 114.955 377.333 115.011 377.061 115.068C376.788 115.131 376.447 115.165 376.038 115.17C375.368 115.182 374.743 115.062 374.163 114.812C373.583 114.562 373.115 114.176 372.757 113.653C372.399 113.131 372.22 112.474 372.22 111.685V98.7727ZM385.645 115.264C384.418 115.264 383.347 114.983 382.432 114.42C381.517 113.858 380.807 113.071 380.301 112.06C379.796 111.048 379.543 109.866 379.543 108.514C379.543 107.156 379.796 105.969 380.301 104.952C380.807 103.935 381.517 103.145 382.432 102.582C383.347 102.02 384.418 101.739 385.645 101.739C386.873 101.739 387.944 102.02 388.858 102.582C389.773 103.145 390.483 103.935 390.989 104.952C391.495 105.969 391.748 107.156 391.748 108.514C391.748 109.866 391.495 111.048 390.989 112.06C390.483 113.071 389.773 113.858 388.858 114.42C387.944 114.983 386.873 115.264 385.645 115.264ZM385.654 113.125C386.449 113.125 387.108 112.915 387.631 112.494C388.154 112.074 388.54 111.514 388.79 110.815C389.046 110.116 389.174 109.347 389.174 108.506C389.174 107.67 389.046 106.903 388.79 106.205C388.54 105.5 388.154 104.935 387.631 104.509C387.108 104.082 386.449 103.869 385.654 103.869C384.853 103.869 384.188 104.082 383.659 104.509C383.137 104.935 382.748 105.5 382.492 106.205C382.242 106.903 382.117 107.67 382.117 108.506C382.117 109.347 382.242 110.116 382.492 110.815C382.748 111.514 383.137 112.074 383.659 112.494C384.188 112.915 384.853 113.125 385.654 113.125ZM407.532 97.5455V115H404.89V100.188H404.787L400.611 102.915V100.392L404.966 97.5455H407.532ZM418.33 115.29C416.983 115.284 415.833 114.929 414.878 114.224C413.924 113.52 413.194 112.494 412.688 111.148C412.182 109.801 411.929 108.179 411.929 106.281C411.929 104.389 412.182 102.773 412.688 101.432C413.199 100.091 413.932 99.0682 414.887 98.3636C415.847 97.6591 416.995 97.3068 418.33 97.3068C419.665 97.3068 420.81 97.6619 421.765 98.3722C422.719 99.0767 423.449 100.099 423.955 101.44C424.466 102.776 424.722 104.389 424.722 106.281C424.722 108.185 424.469 109.81 423.963 111.156C423.458 112.497 422.728 113.523 421.773 114.233C420.819 114.938 419.671 115.29 418.33 115.29ZM418.33 113.014C419.512 113.014 420.435 112.438 421.1 111.284C421.77 110.131 422.105 108.463 422.105 106.281C422.105 104.832 421.952 103.608 421.645 102.608C421.344 101.602 420.909 100.841 420.341 100.324C419.779 99.8011 419.108 99.5398 418.33 99.5398C417.154 99.5398 416.23 100.119 415.56 101.278C414.89 102.437 414.551 104.105 414.546 106.281C414.546 107.736 414.696 108.966 414.998 109.972C415.304 110.972 415.739 111.73 416.301 112.247C416.864 112.759 417.54 113.014 418.33 113.014ZM433.822 115.29C432.475 115.284 431.325 114.929 430.37 114.224C429.416 113.52 428.686 112.494 428.18 111.148C427.674 109.801 427.422 108.179 427.422 106.281C427.422 104.389 427.674 102.773 428.18 101.432C428.691 100.091 429.424 99.0682 430.379 98.3636C431.339 97.6591 432.487 97.3068 433.822 97.3068C435.157 97.3068 436.302 97.6619 437.257 98.3722C438.211 99.0767 438.941 100.099 439.447 101.44C439.958 102.776 440.214 104.389 440.214 106.281C440.214 108.185 439.961 109.81 439.456 111.156C438.95 112.497 438.22 113.523 437.265 114.233C436.311 114.938 435.163 115.29 433.822 115.29ZM433.822 113.014C435.004 113.014 435.927 112.438 436.592 111.284C437.262 110.131 437.598 108.463 437.598 106.281C437.598 104.832 437.444 103.608 437.137 102.608C436.836 101.602 436.402 100.841 435.833 100.324C435.271 99.8011 434.6 99.5398 433.822 99.5398C432.646 99.5398 431.723 100.119 431.052 101.278C430.382 102.437 430.044 104.105 430.038 106.281C430.038 107.736 430.189 108.966 430.49 109.972C430.797 110.972 431.231 111.73 431.794 112.247C432.356 112.759 433.032 113.014 433.822 113.014ZM448.402 112.068V100.545H450.695V112.068H448.402ZM443.792 107.449V105.165H455.314V107.449H443.792ZM471.122 115.264C469.855 115.264 468.764 114.977 467.849 114.403C466.94 113.824 466.241 113.026 465.752 112.009C465.264 110.991 465.02 109.827 465.02 108.514C465.02 107.185 465.27 106.011 465.77 104.994C466.27 103.972 466.974 103.173 467.883 102.599C468.792 102.026 469.863 101.739 471.096 101.739C472.091 101.739 472.977 101.923 473.755 102.293C474.534 102.656 475.162 103.168 475.639 103.827C476.122 104.486 476.409 105.256 476.5 106.136H474.02C473.883 105.523 473.571 104.994 473.082 104.551C472.599 104.108 471.951 103.886 471.139 103.886C470.429 103.886 469.806 104.074 469.272 104.449C468.744 104.818 468.332 105.347 468.037 106.034C467.741 106.716 467.593 107.523 467.593 108.455C467.593 109.409 467.738 110.233 468.028 110.926C468.318 111.619 468.727 112.156 469.255 112.537C469.789 112.918 470.417 113.108 471.139 113.108C471.622 113.108 472.059 113.02 472.451 112.844C472.849 112.662 473.181 112.403 473.449 112.068C473.721 111.733 473.912 111.33 474.02 110.858H476.5C476.409 111.705 476.133 112.46 475.673 113.125C475.213 113.79 474.596 114.312 473.824 114.693C473.056 115.074 472.156 115.264 471.122 115.264ZM481.773 107.227V115H479.225V97.5455H481.739V104.04H481.901C482.208 103.335 482.676 102.776 483.307 102.361C483.938 101.946 484.762 101.739 485.779 101.739C486.676 101.739 487.461 101.923 488.131 102.293C488.807 102.662 489.33 103.213 489.699 103.946C490.074 104.673 490.262 105.582 490.262 106.673V115H487.713V106.98C487.713 106.02 487.466 105.276 486.972 104.747C486.478 104.213 485.79 103.946 484.909 103.946C484.307 103.946 483.767 104.074 483.29 104.33C482.819 104.585 482.446 104.96 482.174 105.455C481.907 105.943 481.773 106.534 481.773 107.227ZM497.472 115.29C496.642 115.29 495.892 115.136 495.222 114.83C494.551 114.517 494.02 114.065 493.628 113.474C493.242 112.884 493.049 112.159 493.049 111.301C493.049 110.562 493.191 109.955 493.475 109.477C493.759 109 494.142 108.622 494.625 108.344C495.108 108.065 495.648 107.855 496.245 107.713C496.841 107.571 497.449 107.463 498.069 107.389C498.853 107.298 499.489 107.224 499.978 107.168C500.466 107.105 500.821 107.006 501.043 106.869C501.265 106.733 501.375 106.511 501.375 106.205V106.145C501.375 105.401 501.165 104.824 500.745 104.415C500.33 104.006 499.711 103.801 498.887 103.801C498.029 103.801 497.353 103.991 496.858 104.372C496.37 104.747 496.032 105.165 495.844 105.625L493.449 105.08C493.733 104.284 494.148 103.642 494.694 103.153C495.245 102.659 495.878 102.301 496.594 102.08C497.31 101.852 498.063 101.739 498.853 101.739C499.375 101.739 499.929 101.801 500.515 101.926C501.105 102.045 501.657 102.267 502.168 102.591C502.685 102.915 503.108 103.378 503.438 103.98C503.767 104.577 503.932 105.352 503.932 106.307V115H501.444V113.21H501.341C501.176 113.54 500.929 113.864 500.6 114.182C500.27 114.5 499.847 114.764 499.33 114.974C498.813 115.185 498.194 115.29 497.472 115.29ZM498.026 113.244C498.73 113.244 499.333 113.105 499.833 112.827C500.338 112.548 500.722 112.185 500.983 111.736C501.25 111.281 501.384 110.795 501.384 110.278V108.591C501.293 108.682 501.117 108.767 500.855 108.847C500.6 108.92 500.307 108.986 499.978 109.043C499.648 109.094 499.327 109.142 499.015 109.188C498.702 109.227 498.441 109.261 498.23 109.29C497.736 109.352 497.284 109.457 496.875 109.605C496.472 109.753 496.148 109.966 495.904 110.244C495.665 110.517 495.546 110.881 495.546 111.335C495.546 111.966 495.779 112.443 496.245 112.767C496.711 113.085 497.304 113.244 498.026 113.244ZM509.875 107.227V115H507.326V101.909H509.772V104.04H509.934C510.235 103.347 510.707 102.79 511.349 102.369C511.997 101.949 512.812 101.739 513.795 101.739C514.687 101.739 515.468 101.926 516.139 102.301C516.809 102.67 517.329 103.222 517.699 103.955C518.068 104.687 518.252 105.594 518.252 106.673V115H515.704V106.98C515.704 106.031 515.457 105.29 514.963 104.756C514.468 104.216 513.789 103.946 512.926 103.946C512.335 103.946 511.809 104.074 511.349 104.33C510.895 104.585 510.534 104.96 510.267 105.455C510.005 105.943 509.875 106.534 509.875 107.227ZM524.218 107.227V115H521.67V101.909H524.116V104.04H524.278C524.579 103.347 525.051 102.79 525.693 102.369C526.341 101.949 527.156 101.739 528.139 101.739C529.031 101.739 529.812 101.926 530.483 102.301C531.153 102.67 531.673 103.222 532.042 103.955C532.412 104.687 532.596 105.594 532.596 106.673V115H530.048V106.98C530.048 106.031 529.801 105.29 529.306 104.756C528.812 104.216 528.133 103.946 527.27 103.946C526.679 103.946 526.153 104.074 525.693 104.33C525.238 104.585 524.877 104.96 524.61 105.455C524.349 105.943 524.218 106.534 524.218 107.227ZM541.656 115.264C540.366 115.264 539.255 114.989 538.324 114.438C537.397 113.881 536.681 113.099 536.176 112.094C535.676 111.082 535.426 109.898 535.426 108.54C535.426 107.199 535.676 106.017 536.176 104.994C536.681 103.972 537.386 103.173 538.289 102.599C539.199 102.026 540.261 101.739 541.477 101.739C542.216 101.739 542.931 101.861 543.625 102.105C544.318 102.349 544.94 102.733 545.491 103.256C546.042 103.778 546.477 104.457 546.795 105.293C547.113 106.122 547.272 107.131 547.272 108.318V109.222H536.866V107.312H544.775C544.775 106.642 544.639 106.048 544.366 105.531C544.093 105.009 543.71 104.597 543.216 104.295C542.727 103.994 542.153 103.844 541.494 103.844C540.778 103.844 540.153 104.02 539.619 104.372C539.091 104.719 538.681 105.173 538.392 105.736C538.108 106.293 537.966 106.898 537.966 107.551V109.043C537.966 109.918 538.119 110.662 538.426 111.276C538.738 111.889 539.173 112.358 539.73 112.682C540.287 113 540.937 113.159 541.681 113.159C542.164 113.159 542.605 113.091 543.002 112.955C543.4 112.812 543.744 112.602 544.034 112.324C544.324 112.045 544.545 111.702 544.699 111.293L547.11 111.727C546.917 112.437 546.571 113.06 546.071 113.594C545.576 114.122 544.954 114.534 544.204 114.83C543.46 115.119 542.61 115.264 541.656 115.264ZM552.648 97.5455V115H550.1V97.5455H552.648ZM565.886 105.105L563.576 105.514C563.48 105.219 563.326 104.937 563.116 104.67C562.912 104.403 562.633 104.185 562.281 104.014C561.929 103.844 561.488 103.759 560.96 103.759C560.238 103.759 559.636 103.92 559.153 104.244C558.67 104.562 558.429 104.974 558.429 105.48C558.429 105.918 558.591 106.27 558.914 106.537C559.238 106.804 559.761 107.023 560.483 107.193L562.562 107.67C563.767 107.949 564.664 108.378 565.255 108.957C565.846 109.537 566.142 110.29 566.142 111.216C566.142 112 565.914 112.699 565.46 113.312C565.011 113.92 564.383 114.398 563.576 114.744C562.775 115.091 561.846 115.264 560.789 115.264C559.324 115.264 558.127 114.952 557.201 114.327C556.275 113.696 555.707 112.801 555.497 111.642L557.96 111.267C558.113 111.909 558.429 112.395 558.906 112.724C559.383 113.048 560.005 113.21 560.772 113.21C561.608 113.21 562.275 113.037 562.775 112.69C563.275 112.338 563.525 111.909 563.525 111.403C563.525 110.994 563.372 110.651 563.065 110.372C562.764 110.094 562.301 109.884 561.676 109.741L559.46 109.256C558.238 108.977 557.335 108.534 556.75 107.926C556.17 107.318 555.88 106.548 555.88 105.616C555.88 104.844 556.096 104.168 556.528 103.588C556.96 103.009 557.556 102.557 558.318 102.233C559.079 101.903 559.951 101.739 560.934 101.739C562.349 101.739 563.463 102.045 564.275 102.659C565.088 103.267 565.625 104.082 565.886 105.105ZM570.623 115.162C570.157 115.162 569.756 114.997 569.421 114.668C569.086 114.332 568.918 113.929 568.918 113.457C568.918 112.991 569.086 112.594 569.421 112.264C569.756 111.929 570.157 111.761 570.623 111.761C571.088 111.761 571.489 111.929 571.824 112.264C572.159 112.594 572.327 112.991 572.327 113.457C572.327 113.77 572.248 114.057 572.088 114.318C571.935 114.574 571.73 114.778 571.475 114.932C571.219 115.085 570.935 115.162 570.623 115.162ZM0.155895 144V126.545H11.0991V128.812H2.78942V134.131H10.5281V136.389H2.78942V141.733H11.2014V144H0.155895ZM16.9606 136.227V144H14.4123V130.909H16.8583V133.04H17.0202C17.3214 132.347 17.793 131.79 18.435 131.369C19.0827 130.949 19.8981 130.739 20.881 130.739C21.7731 130.739 22.5543 130.926 23.2248 131.301C23.8952 131.67 24.4151 132.222 24.7844 132.955C25.1538 133.687 25.3384 134.594 25.3384 135.673V144H22.7901V135.98C22.7901 135.031 22.543 134.29 22.0487 133.756C21.5543 133.216 20.8754 132.946 20.0117 132.946C19.4208 132.946 18.8952 133.074 18.435 133.33C17.9805 133.585 17.6197 133.96 17.3526 134.455C17.0913 134.943 16.9606 135.534 16.9606 136.227ZM28.756 130.909H31.3043V144.852C31.3043 145.727 31.1452 146.466 30.8271 147.068C30.5146 147.67 30.0487 148.128 29.4293 148.44C28.8157 148.753 28.0572 148.909 27.1538 148.909C27.0629 148.909 26.9776 148.909 26.8981 148.909C26.8129 148.909 26.7248 148.906 26.6339 148.901V146.71C26.7134 146.71 26.7844 146.71 26.8469 146.71C26.9038 146.71 26.9691 146.71 27.043 146.71C27.6452 146.71 28.0799 146.548 28.3469 146.224C28.6197 145.906 28.756 145.443 28.756 144.835V130.909ZM30.0174 128.889C29.5742 128.889 29.1935 128.741 28.8754 128.446C28.5629 128.145 28.4066 127.787 28.4066 127.372C28.4066 126.952 28.5629 126.594 28.8754 126.298C29.1935 125.997 29.5742 125.847 30.0174 125.847C30.4606 125.847 30.8384 125.997 31.1509 126.298C31.4691 126.594 31.6282 126.952 31.6282 127.372C31.6282 127.787 31.4691 128.145 31.1509 128.446C30.8384 128.741 30.4606 128.889 30.0174 128.889ZM40.2468 144.264C39.0195 144.264 37.9485 143.983 37.0337 143.42C36.119 142.858 35.4087 142.071 34.9031 141.06C34.3974 140.048 34.1445 138.866 34.1445 137.514C34.1445 136.156 34.3974 134.969 34.9031 133.952C35.4087 132.935 36.119 132.145 37.0337 131.582C37.9485 131.02 39.0195 130.739 40.2468 130.739C41.4741 130.739 42.5451 131.02 43.4599 131.582C44.3746 132.145 45.0849 132.935 45.5906 133.952C46.0962 134.969 46.3491 136.156 46.3491 137.514C46.3491 138.866 46.0962 140.048 45.5906 141.06C45.0849 142.071 44.3746 142.858 43.4599 143.42C42.5451 143.983 41.4741 144.264 40.2468 144.264ZM40.2553 142.125C41.0508 142.125 41.7099 141.915 42.2326 141.494C42.7553 141.074 43.1417 140.514 43.3917 139.815C43.6474 139.116 43.7752 138.347 43.7752 137.506C43.7752 136.67 43.6474 135.903 43.3917 135.205C43.1417 134.5 42.7553 133.935 42.2326 133.509C41.7099 133.082 41.0508 132.869 40.2553 132.869C39.4542 132.869 38.7894 133.082 38.261 133.509C37.7383 133.935 37.3491 134.5 37.0934 135.205C36.8434 135.903 36.7184 136.67 36.7184 137.506C36.7184 138.347 36.8434 139.116 37.0934 139.815C37.3491 140.514 37.7383 141.074 38.261 141.494C38.7894 141.915 39.4542 142.125 40.2553 142.125ZM50.359 148.909C49.9783 148.909 49.6317 148.878 49.3192 148.815C49.0067 148.759 48.7738 148.696 48.6204 148.628L49.234 146.54C49.6999 146.665 50.1147 146.719 50.4783 146.702C50.842 146.685 51.163 146.548 51.4414 146.293C51.7255 146.037 51.9755 145.619 52.1914 145.04L52.5067 144.17L47.717 130.909H50.4442L53.7596 141.068H53.896L57.2113 130.909H59.9471L54.5522 145.747C54.3022 146.429 53.984 147.006 53.5977 147.477C53.2113 147.955 52.7511 148.313 52.217 148.551C51.6829 148.79 51.0636 148.909 50.359 148.909ZM74.8043 130.909V132.955H67.6538V130.909H74.8043ZM69.5714 127.773H72.1197V140.156C72.1197 140.651 72.1935 141.023 72.3413 141.273C72.489 141.517 72.6793 141.685 72.9123 141.776C73.1509 141.861 73.4094 141.903 73.6879 141.903C73.8924 141.903 74.0714 141.889 74.2248 141.861C74.3782 141.832 74.4975 141.81 74.5827 141.793L75.043 143.898C74.8952 143.955 74.685 144.011 74.4123 144.068C74.1396 144.131 73.7987 144.165 73.3896 144.17C72.7191 144.182 72.0941 144.062 71.5146 143.812C70.935 143.562 70.4663 143.176 70.1083 142.653C69.7504 142.131 69.5714 141.474 69.5714 140.685V127.773ZM80.4528 136.227V144H77.9045V126.545H80.4187V133.04H80.5806C80.8874 132.335 81.3562 131.776 81.9869 131.361C82.6175 130.946 83.4414 130.739 84.4585 130.739C85.3562 130.739 86.1403 130.923 86.8107 131.293C87.4869 131.662 88.0096 132.213 88.3789 132.946C88.7539 133.673 88.9414 134.582 88.9414 135.673V144H86.3931V135.98C86.3931 135.02 86.146 134.276 85.6516 133.747C85.1573 133.213 84.4698 132.946 83.5891 132.946C82.9869 132.946 82.4471 133.074 81.9698 133.33C81.4982 133.585 81.1261 133.96 80.8533 134.455C80.5863 134.943 80.4528 135.534 80.4528 136.227ZM92.342 144V130.909H94.8903V144H92.342ZM93.6289 128.889C93.1857 128.889 92.805 128.741 92.4869 128.446C92.1744 128.145 92.0181 127.787 92.0181 127.372C92.0181 126.952 92.1744 126.594 92.4869 126.298C92.805 125.997 93.1857 125.847 93.6289 125.847C94.0721 125.847 94.4499 125.997 94.7624 126.298C95.0806 126.594 95.2397 126.952 95.2397 127.372C95.2397 127.787 95.0806 128.145 94.7624 128.446C94.4499 128.741 94.0721 128.889 93.6289 128.889ZM108.128 134.105L105.819 134.514C105.722 134.219 105.569 133.937 105.358 133.67C105.154 133.403 104.875 133.185 104.523 133.014C104.171 132.844 103.73 132.759 103.202 132.759C102.48 132.759 101.878 132.92 101.395 133.244C100.912 133.562 100.671 133.974 100.671 134.48C100.671 134.918 100.833 135.27 101.157 135.537C101.48 135.804 102.003 136.023 102.725 136.193L104.804 136.67C106.009 136.949 106.907 137.378 107.498 137.957C108.088 138.537 108.384 139.29 108.384 140.216C108.384 141 108.157 141.699 107.702 142.312C107.253 142.92 106.625 143.398 105.819 143.744C105.017 144.091 104.088 144.264 103.032 144.264C101.566 144.264 100.37 143.952 99.4435 143.327C98.5174 142.696 97.9492 141.801 97.739 140.642L100.202 140.267C100.355 140.909 100.671 141.395 101.148 141.724C101.625 142.048 102.248 142.21 103.015 142.21C103.85 142.21 104.517 142.037 105.017 141.69C105.517 141.338 105.767 140.909 105.767 140.403C105.767 139.994 105.614 139.651 105.307 139.372C105.006 139.094 104.543 138.884 103.918 138.741L101.702 138.256C100.48 137.977 99.5771 137.534 98.9918 136.926C98.4123 136.318 98.1225 135.548 98.1225 134.616C98.1225 133.844 98.3384 133.168 98.7702 132.588C99.2021 132.009 99.7987 131.557 100.56 131.233C101.321 130.903 102.194 130.739 103.176 130.739C104.591 130.739 105.705 131.045 106.517 131.659C107.33 132.267 107.867 133.082 108.128 134.105ZM120.086 126.545V144H117.537V126.545H120.086ZM123.514 144V130.909H126.062V144H123.514ZM124.801 128.889C124.358 128.889 123.977 128.741 123.659 128.446C123.346 128.145 123.19 127.787 123.19 127.372C123.19 126.952 123.346 126.594 123.659 126.298C123.977 125.997 124.358 125.847 124.801 125.847C125.244 125.847 125.622 125.997 125.934 126.298C126.252 126.594 126.412 126.952 126.412 127.372C126.412 127.787 126.252 128.145 125.934 128.446C125.622 128.741 125.244 128.889 124.801 128.889ZM129.49 144V130.909H131.936V133.04H132.098C132.371 132.318 132.817 131.756 133.436 131.352C134.056 130.943 134.797 130.739 135.661 130.739C136.536 130.739 137.269 130.943 137.86 131.352C138.456 131.761 138.897 132.324 139.181 133.04H139.317C139.63 132.341 140.127 131.784 140.809 131.369C141.49 130.949 142.303 130.739 143.246 130.739C144.434 130.739 145.402 131.111 146.152 131.855C146.908 132.599 147.286 133.722 147.286 135.222V144H144.738V135.46C144.738 134.574 144.496 133.932 144.013 133.534C143.53 133.136 142.953 132.938 142.283 132.938C141.453 132.938 140.809 133.193 140.348 133.705C139.888 134.21 139.658 134.861 139.658 135.656V144H137.118V135.298C137.118 134.588 136.897 134.017 136.453 133.585C136.01 133.153 135.434 132.938 134.723 132.938C134.24 132.938 133.794 133.065 133.385 133.321C132.982 133.571 132.655 133.92 132.405 134.369C132.161 134.818 132.039 135.338 132.039 135.929V144H129.49ZM150.701 144V130.909H153.25V144H150.701ZM151.988 128.889C151.545 128.889 151.164 128.741 150.846 128.446C150.534 128.145 150.377 127.787 150.377 127.372C150.377 126.952 150.534 126.594 150.846 126.298C151.164 125.997 151.545 125.847 151.988 125.847C152.431 125.847 152.809 125.997 153.122 126.298C153.44 126.594 153.599 126.952 153.599 127.372C153.599 127.787 153.44 128.145 153.122 128.446C152.809 128.741 152.431 128.889 151.988 128.889ZM162.789 130.909V132.955H155.638V130.909H162.789ZM157.556 127.773H160.104V140.156C160.104 140.651 160.178 141.023 160.326 141.273C160.473 141.517 160.664 141.685 160.897 141.776C161.135 141.861 161.394 141.903 161.672 141.903C161.877 141.903 162.056 141.889 162.209 141.861C162.363 141.832 162.482 141.81 162.567 141.793L163.027 143.898C162.88 143.955 162.669 144.011 162.397 144.068C162.124 144.131 161.783 144.165 161.374 144.17C160.703 144.182 160.078 144.062 159.499 143.812C158.919 143.562 158.451 143.176 158.093 142.653C157.735 142.131 157.556 141.474 157.556 140.685V127.773ZM171.109 144.264C169.819 144.264 168.708 143.989 167.777 143.438C166.85 142.881 166.135 142.099 165.629 141.094C165.129 140.082 164.879 138.898 164.879 137.54C164.879 136.199 165.129 135.017 165.629 133.994C166.135 132.972 166.839 132.173 167.743 131.599C168.652 131.026 169.714 130.739 170.93 130.739C171.669 130.739 172.385 130.861 173.078 131.105C173.771 131.349 174.393 131.733 174.944 132.256C175.495 132.778 175.93 133.457 176.248 134.293C176.566 135.122 176.725 136.131 176.725 137.318V138.222H166.319V136.312H174.228C174.228 135.642 174.092 135.048 173.819 134.531C173.547 134.009 173.163 133.597 172.669 133.295C172.18 132.994 171.606 132.844 170.947 132.844C170.231 132.844 169.606 133.02 169.072 133.372C168.544 133.719 168.135 134.173 167.845 134.736C167.561 135.293 167.419 135.898 167.419 136.551V138.043C167.419 138.918 167.572 139.662 167.879 140.276C168.191 140.889 168.626 141.358 169.183 141.682C169.74 142 170.39 142.159 171.135 142.159C171.618 142.159 172.058 142.091 172.456 141.955C172.853 141.812 173.197 141.602 173.487 141.324C173.777 141.045 173.998 140.702 174.152 140.293L176.564 140.727C176.37 141.437 176.024 142.06 175.524 142.594C175.029 143.122 174.407 143.534 173.657 143.83C172.913 144.119 172.064 144.264 171.109 144.264ZM184.453 144.256C183.397 144.256 182.453 143.986 181.624 143.446C180.8 142.901 180.152 142.125 179.681 141.119C179.215 140.108 178.982 138.895 178.982 137.48C178.982 136.065 179.218 134.855 179.689 133.849C180.167 132.844 180.82 132.074 181.65 131.54C182.479 131.006 183.419 130.739 184.471 130.739C185.283 130.739 185.936 130.875 186.431 131.148C186.931 131.415 187.317 131.727 187.59 132.085C187.868 132.443 188.084 132.759 188.238 133.031H188.391V126.545H190.939V144H188.451V141.963H188.238C188.084 142.241 187.863 142.56 187.573 142.918C187.289 143.276 186.897 143.588 186.397 143.855C185.897 144.122 185.249 144.256 184.453 144.256ZM185.016 142.082C185.749 142.082 186.368 141.889 186.874 141.503C187.385 141.111 187.772 140.568 188.033 139.875C188.3 139.182 188.434 138.375 188.434 137.455C188.434 136.545 188.303 135.75 188.042 135.068C187.78 134.386 187.397 133.855 186.891 133.474C186.385 133.094 185.76 132.903 185.016 132.903C184.249 132.903 183.61 133.102 183.098 133.5C182.587 133.898 182.201 134.44 181.939 135.128C181.684 135.815 181.556 136.591 181.556 137.455C181.556 138.33 181.686 139.116 181.948 139.815C182.209 140.514 182.596 141.068 183.107 141.477C183.624 141.881 184.26 142.082 185.016 142.082ZM207.039 130.909V132.955H199.888V130.909H207.039ZM201.806 127.773H204.354V140.156C204.354 140.651 204.428 141.023 204.576 141.273C204.723 141.517 204.914 141.685 205.147 141.776C205.385 141.861 205.644 141.903 205.922 141.903C206.127 141.903 206.306 141.889 206.459 141.861C206.613 141.832 206.732 141.81 206.817 141.793L207.277 143.898C207.13 143.955 206.919 144.011 206.647 144.068C206.374 144.131 206.033 144.165 205.624 144.17C204.953 144.182 204.328 144.062 203.749 143.812C203.169 143.562 202.701 143.176 202.343 142.653C201.985 142.131 201.806 141.474 201.806 140.685V127.773ZM209.858 144V130.909H212.406V144H209.858ZM211.145 128.889C210.701 128.889 210.321 128.741 210.002 128.446C209.69 128.145 209.534 127.787 209.534 127.372C209.534 126.952 209.69 126.594 210.002 126.298C210.321 125.997 210.701 125.847 211.145 125.847C211.588 125.847 211.966 125.997 212.278 126.298C212.596 126.594 212.755 126.952 212.755 127.372C212.755 127.787 212.596 128.145 212.278 128.446C211.966 128.741 211.588 128.889 211.145 128.889ZM215.834 144V130.909H218.28V133.04H218.442C218.715 132.318 219.161 131.756 219.78 131.352C220.4 130.943 221.141 130.739 222.005 130.739C222.88 130.739 223.613 130.943 224.203 131.352C224.8 131.761 225.24 132.324 225.525 133.04H225.661C225.973 132.341 226.471 131.784 227.152 131.369C227.834 130.949 228.647 130.739 229.59 130.739C230.777 130.739 231.746 131.111 232.496 131.855C233.252 132.599 233.63 133.722 233.63 135.222V144H231.081V135.46C231.081 134.574 230.84 133.932 230.357 133.534C229.874 133.136 229.297 132.938 228.627 132.938C227.797 132.938 227.152 133.193 226.692 133.705C226.232 134.21 226.002 134.861 226.002 135.656V144H223.462V135.298C223.462 134.588 223.24 134.017 222.797 133.585C222.354 133.153 221.777 132.938 221.067 132.938C220.584 132.938 220.138 133.065 219.729 133.321C219.326 133.571 218.999 133.92 218.749 134.369C218.505 134.818 218.382 135.338 218.382 135.929V144H215.834ZM242.687 144.264C241.397 144.264 240.287 143.989 239.355 143.438C238.429 142.881 237.713 142.099 237.207 141.094C236.707 140.082 236.457 138.898 236.457 137.54C236.457 136.199 236.707 135.017 237.207 133.994C237.713 132.972 238.417 132.173 239.321 131.599C240.23 131.026 241.292 130.739 242.508 130.739C243.247 130.739 243.963 130.861 244.656 131.105C245.349 131.349 245.971 131.733 246.522 132.256C247.074 132.778 247.508 133.457 247.826 134.293C248.145 135.122 248.304 136.131 248.304 137.318V138.222H237.897V136.312H245.806C245.806 135.642 245.67 135.048 245.397 134.531C245.125 134.009 244.741 133.597 244.247 133.295C243.758 132.994 243.184 132.844 242.525 132.844C241.809 132.844 241.184 133.02 240.65 133.372C240.122 133.719 239.713 134.173 239.423 134.736C239.139 135.293 238.997 135.898 238.997 136.551V138.043C238.997 138.918 239.15 139.662 239.457 140.276C239.77 140.889 240.204 141.358 240.761 141.682C241.318 142 241.968 142.159 242.713 142.159C243.196 142.159 243.636 142.091 244.034 141.955C244.431 141.812 244.775 141.602 245.065 141.324C245.355 141.045 245.576 140.702 245.73 140.293L248.142 140.727C247.949 141.437 247.602 142.06 247.102 142.594C246.608 143.122 245.985 143.534 245.235 143.83C244.491 144.119 243.642 144.264 242.687 144.264ZM262.997 144.264C261.77 144.264 260.699 143.983 259.784 143.42C258.869 142.858 258.159 142.071 257.653 141.06C257.147 140.048 256.895 138.866 256.895 137.514C256.895 136.156 257.147 134.969 257.653 133.952C258.159 132.935 258.869 132.145 259.784 131.582C260.699 131.02 261.77 130.739 262.997 130.739C264.224 130.739 265.295 131.02 266.21 131.582C267.125 132.145 267.835 132.935 268.341 133.952C268.846 134.969 269.099 136.156 269.099 137.514C269.099 138.866 268.846 140.048 268.341 141.06C267.835 142.071 267.125 142.858 266.21 143.42C265.295 143.983 264.224 144.264 262.997 144.264ZM263.005 142.125C263.801 142.125 264.46 141.915 264.983 141.494C265.505 141.074 265.892 140.514 266.142 139.815C266.397 139.116 266.525 138.347 266.525 137.506C266.525 136.67 266.397 135.903 266.142 135.205C265.892 134.5 265.505 133.935 264.983 133.509C264.46 133.082 263.801 132.869 263.005 132.869C262.204 132.869 261.539 133.082 261.011 133.509C260.488 133.935 260.099 134.5 259.843 135.205C259.593 135.903 259.468 136.67 259.468 137.506C259.468 138.347 259.593 139.116 259.843 139.815C260.099 140.514 260.488 141.074 261.011 141.494C261.539 141.915 262.204 142.125 263.005 142.125ZM278.174 130.909V132.955H270.776V130.909H278.174ZM272.804 144V129.392C272.804 128.574 272.983 127.895 273.341 127.355C273.699 126.81 274.174 126.403 274.765 126.136C275.355 125.864 275.998 125.727 276.691 125.727C277.202 125.727 277.64 125.77 278.003 125.855C278.367 125.935 278.637 126.009 278.813 126.077L278.216 128.139C278.097 128.105 277.944 128.065 277.756 128.02C277.569 127.969 277.341 127.943 277.074 127.943C276.455 127.943 276.012 128.097 275.745 128.403C275.483 128.71 275.353 129.153 275.353 129.733V144H272.804ZM287.033 130.909V132.955H279.635V130.909H287.033ZM281.664 144V129.392C281.664 128.574 281.843 127.895 282.201 127.355C282.559 126.81 283.033 126.403 283.624 126.136C284.215 125.864 284.857 125.727 285.55 125.727C286.061 125.727 286.499 125.77 286.863 125.855C287.226 125.935 287.496 126.009 287.672 126.077L287.076 128.139C286.956 128.105 286.803 128.065 286.615 128.02C286.428 127.969 286.201 127.943 285.934 127.943C285.314 127.943 284.871 128.097 284.604 128.403C284.343 128.71 284.212 129.153 284.212 129.733V144H281.664ZM294.789 144.264C293.499 144.264 292.388 143.989 291.456 143.438C290.53 142.881 289.814 142.099 289.309 141.094C288.809 140.082 288.559 138.898 288.559 137.54C288.559 136.199 288.809 135.017 289.309 133.994C289.814 132.972 290.519 132.173 291.422 131.599C292.331 131.026 293.394 130.739 294.61 130.739C295.348 130.739 296.064 130.861 296.757 131.105C297.451 131.349 298.073 131.733 298.624 132.256C299.175 132.778 299.61 133.457 299.928 134.293C300.246 135.122 300.405 136.131 300.405 137.318V138.222H289.999V136.312H297.908C297.908 135.642 297.772 135.048 297.499 134.531C297.226 134.009 296.843 133.597 296.348 133.295C295.86 132.994 295.286 132.844 294.627 132.844C293.911 132.844 293.286 133.02 292.752 133.372C292.223 133.719 291.814 134.173 291.525 134.736C291.24 135.293 291.098 135.898 291.098 136.551V138.043C291.098 138.918 291.252 139.662 291.559 140.276C291.871 140.889 292.306 141.358 292.863 141.682C293.419 142 294.07 142.159 294.814 142.159C295.297 142.159 295.738 142.091 296.135 141.955C296.533 141.812 296.877 141.602 297.167 141.324C297.456 141.045 297.678 140.702 297.831 140.293L300.243 140.727C300.05 141.437 299.703 142.06 299.203 142.594C298.709 143.122 298.087 143.534 297.337 143.83C296.593 144.119 295.743 144.264 294.789 144.264ZM303.233 144V130.909H305.696V132.989H305.832C306.071 132.284 306.491 131.73 307.093 131.327C307.701 130.918 308.389 130.713 309.156 130.713C309.315 130.713 309.502 130.719 309.718 130.73C309.94 130.741 310.113 130.756 310.238 130.773V133.21C310.136 133.182 309.954 133.151 309.693 133.116C309.431 133.077 309.17 133.057 308.909 133.057C308.306 133.057 307.77 133.185 307.298 133.44C306.832 133.69 306.463 134.04 306.19 134.489C305.917 134.932 305.781 135.437 305.781 136.006V144H303.233ZM327.088 138.571V130.909H329.645V144H327.139V141.733H327.002C326.701 142.432 326.218 143.014 325.554 143.48C324.895 143.94 324.074 144.17 323.091 144.17C322.25 144.17 321.505 143.986 320.858 143.616C320.216 143.241 319.71 142.688 319.341 141.955C318.977 141.222 318.795 140.315 318.795 139.236V130.909H321.343V138.929C321.343 139.821 321.591 140.531 322.085 141.06C322.579 141.588 323.221 141.852 324.011 141.852C324.488 141.852 324.963 141.733 325.434 141.494C325.912 141.256 326.306 140.895 326.619 140.412C326.937 139.929 327.093 139.315 327.088 138.571ZM335.617 136.227V144H333.069V130.909H335.515V133.04H335.676C335.978 132.347 336.449 131.79 337.091 131.369C337.739 130.949 338.554 130.739 339.537 130.739C340.429 130.739 341.211 130.926 341.881 131.301C342.551 131.67 343.071 132.222 343.441 132.955C343.81 133.687 343.995 134.594 343.995 135.673V144H341.446V135.98C341.446 135.031 341.199 134.29 340.705 133.756C340.211 133.216 339.532 132.946 338.668 132.946C338.077 132.946 337.551 133.074 337.091 133.33C336.637 133.585 336.276 133.96 336.009 134.455C335.748 134.943 335.617 135.534 335.617 136.227ZM353.523 130.909V132.955H346.373V130.909H353.523ZM348.29 127.773H350.838V140.156C350.838 140.651 350.912 141.023 351.06 141.273C351.208 141.517 351.398 141.685 351.631 141.776C351.87 141.861 352.128 141.903 352.407 141.903C352.611 141.903 352.79 141.889 352.944 141.861C353.097 141.832 353.216 141.81 353.301 141.793L353.762 143.898C353.614 143.955 353.404 144.011 353.131 144.068C352.858 144.131 352.517 144.165 352.108 144.17C351.438 144.182 350.813 144.062 350.233 143.812C349.654 143.562 349.185 143.176 348.827 142.653C348.469 142.131 348.29 141.474 348.29 140.685V127.773ZM356.342 144V130.909H358.89V144H356.342ZM357.629 128.889C357.186 128.889 356.805 128.741 356.487 128.446C356.174 128.145 356.018 127.787 356.018 127.372C356.018 126.952 356.174 126.594 356.487 126.298C356.805 125.997 357.186 125.847 357.629 125.847C358.072 125.847 358.45 125.997 358.762 126.298C359.081 126.594 359.24 126.952 359.24 127.372C359.24 127.787 359.081 128.145 358.762 128.446C358.45 128.741 358.072 128.889 357.629 128.889ZM364.867 126.545V144H362.319V126.545H364.867ZM374.613 144V142.091L380.519 135.972C381.15 135.307 381.669 134.724 382.078 134.224C382.493 133.719 382.803 133.239 383.007 132.784C383.212 132.33 383.314 131.847 383.314 131.335C383.314 130.756 383.178 130.256 382.905 129.835C382.632 129.409 382.26 129.082 381.789 128.855C381.317 128.622 380.786 128.506 380.195 128.506C379.57 128.506 379.025 128.634 378.559 128.889C378.093 129.145 377.735 129.506 377.485 129.972C377.235 130.437 377.11 130.983 377.11 131.608H374.596C374.596 130.545 374.84 129.616 375.328 128.821C375.817 128.026 376.488 127.409 377.34 126.972C378.192 126.528 379.161 126.307 380.246 126.307C381.343 126.307 382.309 126.526 383.144 126.963C383.985 127.395 384.641 127.986 385.113 128.736C385.584 129.48 385.82 130.321 385.82 131.259C385.82 131.906 385.698 132.54 385.453 133.159C385.215 133.778 384.797 134.469 384.201 135.23C383.604 135.986 382.775 136.903 381.712 137.983L378.243 141.614V141.741H386.101V144H374.613ZM395.229 144.239C394.007 144.239 392.928 144.028 391.99 143.608C391.059 143.187 390.328 142.608 389.8 141.869C389.272 141.131 389.01 140.29 389.016 139.347C389.01 138.608 389.161 137.929 389.468 137.31C389.78 136.685 390.203 136.165 390.738 135.75C391.272 135.33 391.868 135.062 392.527 134.949V134.847C391.658 134.636 390.962 134.17 390.439 133.449C389.917 132.727 389.658 131.898 389.664 130.96C389.658 130.068 389.894 129.273 390.371 128.574C390.854 127.869 391.516 127.315 392.357 126.912C393.198 126.509 394.155 126.307 395.229 126.307C396.292 126.307 397.24 126.511 398.076 126.92C398.917 127.324 399.578 127.878 400.061 128.582C400.544 129.281 400.789 130.074 400.794 130.96C400.789 131.898 400.522 132.727 399.993 133.449C399.465 134.17 398.777 134.636 397.931 134.847V134.949C398.584 135.062 399.172 135.33 399.695 135.75C400.223 136.165 400.644 136.685 400.956 137.31C401.275 137.929 401.436 138.608 401.442 139.347C401.436 140.29 401.169 141.131 400.641 141.869C400.113 142.608 399.38 143.187 398.442 143.608C397.51 144.028 396.439 144.239 395.229 144.239ZM395.229 142.082C395.951 142.082 396.576 141.963 397.104 141.724C397.632 141.48 398.042 141.142 398.331 140.71C398.621 140.273 398.769 139.761 398.775 139.176C398.769 138.568 398.61 138.031 398.297 137.565C397.99 137.099 397.573 136.733 397.044 136.466C396.516 136.199 395.911 136.065 395.229 136.065C394.542 136.065 393.931 136.199 393.397 136.466C392.863 136.733 392.442 137.099 392.135 137.565C391.828 138.031 391.678 138.568 391.684 139.176C391.678 139.761 391.817 140.273 392.101 140.71C392.391 141.142 392.803 141.48 393.337 141.724C393.871 141.963 394.502 142.082 395.229 142.082ZM395.229 133.96C395.809 133.96 396.323 133.844 396.772 133.611C397.221 133.378 397.573 133.054 397.828 132.639C398.09 132.224 398.223 131.739 398.229 131.182C398.223 130.636 398.093 130.159 397.837 129.75C397.587 129.341 397.238 129.026 396.789 128.804C396.34 128.577 395.82 128.463 395.229 128.463C394.627 128.463 394.098 128.577 393.644 128.804C393.195 129.026 392.846 129.341 392.596 129.75C392.346 130.159 392.223 130.636 392.229 131.182C392.223 131.739 392.348 132.224 392.604 132.639C392.86 133.054 393.212 133.378 393.661 133.611C394.115 133.844 394.638 133.96 395.229 133.96ZM411.086 144V126.545H421.909V128.812H413.719V134.131H421.134V136.389H413.719V144H411.086ZM429.625 144.264C428.335 144.264 427.224 143.989 426.292 143.438C425.366 142.881 424.65 142.099 424.145 141.094C423.645 140.082 423.395 138.898 423.395 137.54C423.395 136.199 423.645 135.017 424.145 133.994C424.65 132.972 425.355 132.173 426.258 131.599C427.167 131.026 428.23 130.739 429.446 130.739C430.184 130.739 430.9 130.861 431.593 131.105C432.287 131.349 432.909 131.733 433.46 132.256C434.011 132.778 434.446 133.457 434.764 134.293C435.082 135.122 435.241 136.131 435.241 137.318V138.222H424.835V136.312H432.744C432.744 135.642 432.608 135.048 432.335 134.531C432.062 134.009 431.679 133.597 431.184 133.295C430.696 132.994 430.122 132.844 429.463 132.844C428.747 132.844 428.122 133.02 427.588 133.372C427.059 133.719 426.65 134.173 426.36 134.736C426.076 135.293 425.934 135.898 425.934 136.551V138.043C425.934 138.918 426.088 139.662 426.395 140.276C426.707 140.889 427.142 141.358 427.699 141.682C428.255 142 428.906 142.159 429.65 142.159C430.133 142.159 430.574 142.091 430.971 141.955C431.369 141.812 431.713 141.602 432.002 141.324C432.292 141.045 432.514 140.702 432.667 140.293L435.079 140.727C434.886 141.437 434.539 142.06 434.039 142.594C433.545 143.122 432.923 143.534 432.173 143.83C431.429 144.119 430.579 144.264 429.625 144.264ZM438.273 144V126.545H440.821V133.031H440.975C441.123 132.759 441.336 132.443 441.614 132.085C441.892 131.727 442.279 131.415 442.773 131.148C443.267 130.875 443.921 130.739 444.733 130.739C445.79 130.739 446.733 131.006 447.563 131.54C448.392 132.074 449.043 132.844 449.515 133.849C449.992 134.855 450.23 136.065 450.23 137.48C450.23 138.895 449.995 140.108 449.523 141.119C449.051 142.125 448.404 142.901 447.58 143.446C446.756 143.986 445.816 144.256 444.759 144.256C443.963 144.256 443.313 144.122 442.807 143.855C442.307 143.588 441.915 143.276 441.631 142.918C441.347 142.56 441.128 142.241 440.975 141.963H440.762V144H438.273ZM440.77 137.455C440.77 138.375 440.904 139.182 441.171 139.875C441.438 140.568 441.824 141.111 442.33 141.503C442.836 141.889 443.455 142.082 444.188 142.082C444.949 142.082 445.586 141.881 446.097 141.477C446.608 141.068 446.995 140.514 447.256 139.815C447.523 139.116 447.657 138.33 447.657 137.455C447.657 136.591 447.526 135.815 447.265 135.128C447.009 134.44 446.623 133.898 446.105 133.5C445.594 133.102 444.955 132.903 444.188 132.903C443.449 132.903 442.824 133.094 442.313 133.474C441.807 133.855 441.424 134.386 441.162 135.068C440.901 135.75 440.77 136.545 440.77 137.455ZM453.092 144V130.909H455.555V132.989H455.691C455.93 132.284 456.35 131.73 456.953 131.327C457.561 130.918 458.248 130.713 459.015 130.713C459.174 130.713 459.362 130.719 459.578 130.73C459.799 130.741 459.973 130.756 460.098 130.773V133.21C459.995 133.182 459.814 133.151 459.552 133.116C459.291 133.077 459.029 133.057 458.768 133.057C458.166 133.057 457.629 133.185 457.157 133.44C456.691 133.69 456.322 134.04 456.049 134.489C455.777 134.932 455.64 135.437 455.64 136.006V144H453.092ZM470.596 138.571V130.909H473.152V144H470.647V141.733H470.51C470.209 142.432 469.726 143.014 469.061 143.48C468.402 143.94 467.581 144.17 466.598 144.17C465.757 144.17 465.013 143.986 464.365 143.616C463.723 143.241 463.218 142.688 462.848 141.955C462.485 141.222 462.303 140.315 462.303 139.236V130.909H464.851V138.929C464.851 139.821 465.098 140.531 465.593 141.06C466.087 141.588 466.729 141.852 467.519 141.852C467.996 141.852 468.471 141.733 468.942 141.494C469.419 141.256 469.814 140.895 470.127 140.412C470.445 139.929 470.601 139.315 470.596 138.571ZM480.386 144.29C479.556 144.29 478.806 144.136 478.136 143.83C477.466 143.517 476.934 143.065 476.542 142.474C476.156 141.884 475.963 141.159 475.963 140.301C475.963 139.562 476.105 138.955 476.389 138.477C476.673 138 477.056 137.622 477.539 137.344C478.022 137.065 478.562 136.855 479.159 136.713C479.755 136.571 480.363 136.463 480.983 136.389C481.767 136.298 482.403 136.224 482.892 136.168C483.38 136.105 483.735 136.006 483.957 135.869C484.179 135.733 484.289 135.511 484.289 135.205V135.145C484.289 134.401 484.079 133.824 483.659 133.415C483.244 133.006 482.625 132.801 481.801 132.801C480.943 132.801 480.267 132.991 479.772 133.372C479.284 133.747 478.946 134.165 478.758 134.625L476.363 134.08C476.647 133.284 477.062 132.642 477.608 132.153C478.159 131.659 478.792 131.301 479.508 131.08C480.224 130.852 480.977 130.739 481.767 130.739C482.289 130.739 482.843 130.801 483.429 130.926C484.02 131.045 484.571 131.267 485.082 131.591C485.599 131.915 486.022 132.378 486.352 132.98C486.681 133.577 486.846 134.352 486.846 135.307V144H484.358V142.21H484.255C484.091 142.54 483.843 142.864 483.514 143.182C483.184 143.5 482.761 143.764 482.244 143.974C481.727 144.185 481.108 144.29 480.386 144.29ZM480.94 142.244C481.645 142.244 482.247 142.105 482.747 141.827C483.252 141.548 483.636 141.185 483.897 140.736C484.164 140.281 484.298 139.795 484.298 139.278V137.591C484.207 137.682 484.031 137.767 483.77 137.847C483.514 137.92 483.221 137.986 482.892 138.043C482.562 138.094 482.241 138.142 481.929 138.188C481.616 138.227 481.355 138.261 481.145 138.29C480.65 138.352 480.199 138.457 479.789 138.605C479.386 138.753 479.062 138.966 478.818 139.244C478.579 139.517 478.46 139.881 478.46 140.335C478.46 140.966 478.693 141.443 479.159 141.767C479.625 142.085 480.218 142.244 480.94 142.244ZM490.24 144V130.909H492.703V132.989H492.84C493.078 132.284 493.499 131.73 494.101 131.327C494.709 130.918 495.397 130.713 496.164 130.713C496.323 130.713 496.51 130.719 496.726 130.73C496.948 130.741 497.121 130.756 497.246 130.773V133.21C497.144 133.182 496.962 133.151 496.701 133.116C496.439 133.077 496.178 133.057 495.917 133.057C495.314 133.057 494.777 133.185 494.306 133.44C493.84 133.69 493.471 134.04 493.198 134.489C492.925 134.932 492.789 135.437 492.789 136.006V144H490.24ZM501.461 148.909C501.08 148.909 500.733 148.878 500.421 148.815C500.108 148.759 499.875 148.696 499.722 148.628L500.336 146.54C500.801 146.665 501.216 146.719 501.58 146.702C501.944 146.685 502.265 146.548 502.543 146.293C502.827 146.037 503.077 145.619 503.293 145.04L503.608 144.17L498.819 130.909H501.546L504.861 141.068H504.998L508.313 130.909H511.049L505.654 145.747C505.404 146.429 505.086 147.006 504.699 147.477C504.313 147.955 503.853 148.313 503.319 148.551C502.784 148.79 502.165 148.909 501.461 148.909ZM519.761 144V142.091L525.667 135.972C526.298 135.307 526.818 134.724 527.227 134.224C527.642 133.719 527.951 133.239 528.156 132.784C528.36 132.33 528.463 131.847 528.463 131.335C528.463 130.756 528.326 130.256 528.054 129.835C527.781 129.409 527.409 129.082 526.937 128.855C526.466 128.622 525.934 128.506 525.343 128.506C524.718 128.506 524.173 128.634 523.707 128.889C523.241 129.145 522.883 129.506 522.633 129.972C522.383 130.437 522.258 130.983 522.258 131.608H519.744C519.744 130.545 519.988 129.616 520.477 128.821C520.966 128.026 521.636 127.409 522.488 126.972C523.341 126.528 524.309 126.307 525.395 126.307C526.491 126.307 527.457 126.526 528.292 126.963C529.133 127.395 529.789 127.986 530.261 128.736C530.733 129.48 530.968 130.321 530.968 131.259C530.968 131.906 530.846 132.54 530.602 133.159C530.363 133.778 529.946 134.469 529.349 135.23C528.752 135.986 527.923 136.903 526.86 137.983L523.392 141.614V141.741H531.25V144H519.761ZM540.556 144.29C539.21 144.284 538.059 143.929 537.105 143.224C536.15 142.52 535.42 141.494 534.914 140.148C534.409 138.801 534.156 137.179 534.156 135.281C534.156 133.389 534.409 131.773 534.914 130.432C535.426 129.091 536.159 128.068 537.113 127.364C538.074 126.659 539.221 126.307 540.556 126.307C541.892 126.307 543.037 126.662 543.991 127.372C544.946 128.077 545.676 129.099 546.181 130.44C546.693 131.776 546.949 133.389 546.949 135.281C546.949 137.185 546.696 138.81 546.19 140.156C545.684 141.497 544.954 142.523 544 143.233C543.045 143.938 541.897 144.29 540.556 144.29ZM540.556 142.014C541.738 142.014 542.662 141.438 543.326 140.284C543.997 139.131 544.332 137.463 544.332 135.281C544.332 133.832 544.179 132.608 543.872 131.608C543.571 130.602 543.136 129.841 542.568 129.324C542.005 128.801 541.335 128.54 540.556 128.54C539.38 128.54 538.457 129.119 537.787 130.278C537.116 131.437 536.778 133.105 536.772 135.281C536.772 136.736 536.923 137.966 537.224 138.972C537.531 139.972 537.966 140.73 538.528 141.247C539.091 141.759 539.767 142.014 540.556 142.014ZM549.972 144V142.091L555.878 135.972C556.509 135.307 557.029 134.724 557.438 134.224C557.853 133.719 558.162 133.239 558.367 132.784C558.571 132.33 558.674 131.847 558.674 131.335C558.674 130.756 558.537 130.256 558.265 129.835C557.992 129.409 557.62 129.082 557.148 128.855C556.676 128.622 556.145 128.506 555.554 128.506C554.929 128.506 554.384 128.634 553.918 128.889C553.452 129.145 553.094 129.506 552.844 129.972C552.594 130.437 552.469 130.983 552.469 131.608H549.955C549.955 130.545 550.199 129.616 550.688 128.821C551.176 128.026 551.847 127.409 552.699 126.972C553.551 126.528 554.52 126.307 555.605 126.307C556.702 126.307 557.668 126.526 558.503 126.963C559.344 127.395 560 127.986 560.472 128.736C560.944 129.48 561.179 130.321 561.179 131.259C561.179 131.906 561.057 132.54 560.813 133.159C560.574 133.778 560.157 134.469 559.56 135.23C558.963 135.986 558.134 136.903 557.071 137.983L553.603 141.614V141.741H561.461V144H549.972ZM570.767 144.239C569.597 144.239 568.551 144.037 567.631 143.634C566.716 143.23 565.992 142.67 565.458 141.955C564.929 141.233 564.645 140.398 564.605 139.449H567.282C567.316 139.966 567.489 140.415 567.801 140.795C568.12 141.17 568.534 141.46 569.046 141.665C569.557 141.869 570.125 141.972 570.75 141.972C571.438 141.972 572.046 141.852 572.574 141.614C573.108 141.375 573.526 141.043 573.827 140.616C574.128 140.185 574.279 139.688 574.279 139.125C574.279 138.54 574.128 138.026 573.827 137.582C573.532 137.134 573.097 136.781 572.523 136.526C571.955 136.27 571.267 136.142 570.461 136.142H568.986V133.994H570.461C571.108 133.994 571.676 133.878 572.165 133.645C572.659 133.412 573.046 133.088 573.324 132.673C573.603 132.253 573.742 131.761 573.742 131.199C573.742 130.659 573.62 130.19 573.375 129.793C573.137 129.389 572.796 129.074 572.353 128.847C571.915 128.619 571.398 128.506 570.801 128.506C570.233 128.506 569.702 128.611 569.208 128.821C568.719 129.026 568.321 129.321 568.015 129.707C567.708 130.088 567.543 130.545 567.52 131.08H564.972C565 130.136 565.279 129.307 565.807 128.591C566.341 127.875 567.046 127.315 567.921 126.912C568.796 126.509 569.767 126.307 570.836 126.307C571.955 126.307 572.921 126.526 573.733 126.963C574.551 127.395 575.182 127.972 575.625 128.693C576.074 129.415 576.296 130.205 576.29 131.062C576.296 132.04 576.023 132.869 575.472 133.551C574.926 134.233 574.199 134.69 573.29 134.923V135.06C574.449 135.236 575.347 135.696 575.983 136.44C576.625 137.185 576.944 138.108 576.938 139.21C576.944 140.17 576.676 141.031 576.137 141.793C575.603 142.554 574.873 143.153 573.946 143.591C573.02 144.023 571.961 144.239 570.767 144.239ZM581.357 144.162C580.891 144.162 580.49 143.997 580.155 143.668C579.82 143.332 579.652 142.929 579.652 142.457C579.652 141.991 579.82 141.594 580.155 141.264C580.49 140.929 580.891 140.761 581.357 140.761C581.823 140.761 582.223 140.929 582.559 141.264C582.894 141.594 583.061 141.991 583.061 142.457C583.061 142.77 582.982 143.057 582.823 143.318C582.669 143.574 582.465 143.778 582.209 143.932C581.953 144.085 581.669 144.162 581.357 144.162Z" fill="#686868"/>
	<defs>
		<linearGradient id="paint0_linear_0_1" x1="84.6802" y1="77.6529" x2="514" y2="77.6529" gradientUnits="userSpaceOnUse">
			<stop stop-color="#A19060"/>
			<stop offset="1" stop-color="#A19060"/>
		</linearGradient>
	</defs>
</svg>
