<svg width="320" height="89" viewBox="0 0 320 89" fill="none" xmlns="http://www.w3.org/2000/svg">
	<path d="M22.1927 40V11.76H28.4727V40H22.1927ZM33.9114 40V11.76H38.3114L40.1914 17.4V40H33.9114ZM53.3914 40L36.7514 18.68L38.3114 11.76L54.9514 33.08L53.3914 40ZM53.3914 40L51.7114 34.36V11.76H57.9914V40H53.3914ZM70.3627 40V12.16H76.6427V40H70.3627ZM61.5227 17.24V11.76H85.4827V17.24H61.5227ZM93.7895 28.36V23.72H99.7495C101.003 23.72 101.963 23.4 102.63 22.76C103.323 22.12 103.67 21.2533 103.67 20.16C103.67 19.1467 103.336 18.3067 102.67 17.64C102.003 16.9733 101.043 16.64 99.7895 16.64H93.7895V11.76H100.51C102.376 11.76 104.016 12.12 105.43 12.84C106.843 13.5333 107.95 14.5067 108.75 15.76C109.55 17.0133 109.95 18.4533 109.95 20.08C109.95 21.7333 109.55 23.1867 108.75 24.44C107.95 25.6667 106.83 26.6267 105.39 27.32C103.95 28.0133 102.256 28.36 100.31 28.36H93.7895ZM88.9895 40V11.76H95.2695V40H88.9895ZM104.35 40L95.5495 27.84L101.31 26.28L111.79 40H104.35ZM127.86 40.48C125.727 40.48 123.753 40.1067 121.94 39.36C120.153 38.6133 118.58 37.5733 117.22 36.24C115.86 34.9067 114.807 33.36 114.06 31.6C113.313 29.8133 112.94 27.8933 112.94 25.84C112.94 23.76 113.313 21.84 114.06 20.08C114.807 18.32 115.847 16.7867 117.18 15.48C118.513 14.1467 120.073 13.12 121.86 12.4C123.673 11.6533 125.647 11.28 127.78 11.28C129.887 11.28 131.833 11.6533 133.62 12.4C135.433 13.12 137.007 14.1467 138.34 15.48C139.7 16.7867 140.753 18.3333 141.5 20.12C142.247 21.88 142.62 23.8 142.62 25.88C142.62 27.9333 142.247 29.8533 141.5 31.64C140.753 33.4 139.713 34.9467 138.38 36.28C137.047 37.5867 135.473 38.6133 133.66 39.36C131.873 40.1067 129.94 40.48 127.86 40.48ZM127.78 34.76C129.46 34.76 130.927 34.3867 132.18 33.64C133.46 32.8933 134.447 31.8533 135.14 30.52C135.833 29.16 136.18 27.6 136.18 25.84C136.18 24.5067 135.98 23.3067 135.58 22.24C135.18 21.1467 134.607 20.2133 133.86 19.44C133.113 18.64 132.22 18.04 131.18 17.64C130.167 17.2133 129.033 17 127.78 17C126.1 17 124.62 17.3733 123.34 18.12C122.087 18.84 121.113 19.8667 120.42 21.2C119.727 22.5067 119.38 24.0533 119.38 25.84C119.38 27.1733 119.58 28.3867 119.98 29.48C120.38 30.5733 120.94 31.52 121.66 32.32C122.407 33.0933 123.3 33.6933 124.34 34.12C125.38 34.5467 126.527 34.76 127.78 34.76ZM159.024 29.72V24.84H165.104C165.877 24.84 166.584 24.68 167.224 24.36C167.864 24.04 168.371 23.5733 168.744 22.96C169.117 22.3467 169.304 21.6 169.304 20.72C169.304 19.8667 169.117 19.1333 168.744 18.52C168.371 17.9067 167.864 17.44 167.224 17.12C166.584 16.8 165.877 16.64 165.104 16.64H159.024V11.76H166.024C167.811 11.76 169.424 12.12 170.864 12.84C172.304 13.56 173.437 14.6 174.264 15.96C175.117 17.2933 175.544 18.88 175.544 20.72C175.544 22.56 175.117 24.16 174.264 25.52C173.437 26.8533 172.304 27.8933 170.864 28.64C169.424 29.36 167.811 29.72 166.024 29.72H159.024ZM154.224 40V11.76H160.504V40H154.224ZM183.868 28.36V23.72H189.828C191.081 23.72 192.041 23.4 192.708 22.76C193.401 22.12 193.748 21.2533 193.748 20.16C193.748 19.1467 193.414 18.3067 192.748 17.64C192.081 16.9733 191.121 16.64 189.868 16.64H183.868V11.76H190.588C192.454 11.76 194.094 12.12 195.508 12.84C196.921 13.5333 198.028 14.5067 198.828 15.76C199.628 17.0133 200.028 18.4533 200.028 20.08C200.028 21.7333 199.628 23.1867 198.828 24.44C198.028 25.6667 196.908 26.6267 195.468 27.32C194.028 28.0133 192.334 28.36 190.388 28.36H183.868ZM179.068 40V11.76H185.348V40H179.068ZM194.428 40L185.628 27.84L191.388 26.28L201.868 40H194.428ZM217.938 40.48C215.805 40.48 213.832 40.1067 212.018 39.36C210.232 38.6133 208.658 37.5733 207.298 36.24C205.938 34.9067 204.885 33.36 204.138 31.6C203.392 29.8133 203.018 27.8933 203.018 25.84C203.018 23.76 203.392 21.84 204.138 20.08C204.885 18.32 205.925 16.7867 207.258 15.48C208.592 14.1467 210.152 13.12 211.938 12.4C213.752 11.6533 215.725 11.28 217.858 11.28C219.965 11.28 221.912 11.6533 223.698 12.4C225.512 13.12 227.085 14.1467 228.418 15.48C229.778 16.7867 230.832 18.3333 231.578 20.12C232.325 21.88 232.698 23.8 232.698 25.88C232.698 27.9333 232.325 29.8533 231.578 31.64C230.832 33.4 229.792 34.9467 228.458 36.28C227.125 37.5867 225.552 38.6133 223.738 39.36C221.952 40.1067 220.018 40.48 217.938 40.48ZM217.858 34.76C219.538 34.76 221.005 34.3867 222.258 33.64C223.538 32.8933 224.525 31.8533 225.218 30.52C225.912 29.16 226.258 27.6 226.258 25.84C226.258 24.5067 226.058 23.3067 225.658 22.24C225.258 21.1467 224.685 20.2133 223.938 19.44C223.192 18.64 222.298 18.04 221.258 17.64C220.245 17.2133 219.112 17 217.858 17C216.178 17 214.698 17.3733 213.418 18.12C212.165 18.84 211.192 19.8667 210.498 21.2C209.805 22.5067 209.458 24.0533 209.458 25.84C209.458 27.1733 209.658 28.3867 210.058 29.48C210.458 30.5733 211.018 31.52 211.738 32.32C212.485 33.0933 213.378 33.6933 214.418 34.12C215.458 34.5467 216.605 34.76 217.858 34.76ZM236.685 40V11.76H241.165L252.285 29.08H250.005L261.085 11.76H265.605V40H259.325V22.36L260.445 22.64L253.205 33.92H249.045L241.845 22.64L242.925 22.36V40H236.685ZM284.501 40.48C282.367 40.48 280.394 40.1067 278.581 39.36C276.794 38.6133 275.221 37.5733 273.861 36.24C272.501 34.9067 271.447 33.36 270.701 31.6C269.954 29.8133 269.581 27.8933 269.581 25.84C269.581 23.76 269.954 21.84 270.701 20.08C271.447 18.32 272.487 16.7867 273.821 15.48C275.154 14.1467 276.714 13.12 278.501 12.4C280.314 11.6533 282.287 11.28 284.421 11.28C286.527 11.28 288.474 11.6533 290.261 12.4C292.074 13.12 293.647 14.1467 294.981 15.48C296.341 16.7867 297.394 18.3333 298.141 20.12C298.887 21.88 299.261 23.8 299.261 25.88C299.261 27.9333 298.887 29.8533 298.141 31.64C297.394 33.4 296.354 34.9467 295.021 36.28C293.687 37.5867 292.114 38.6133 290.301 39.36C288.514 40.1067 286.581 40.48 284.501 40.48ZM284.421 34.76C286.101 34.76 287.567 34.3867 288.821 33.64C290.101 32.8933 291.087 31.8533 291.781 30.52C292.474 29.16 292.821 27.6 292.821 25.84C292.821 24.5067 292.621 23.3067 292.221 22.24C291.821 21.1467 291.247 20.2133 290.501 19.44C289.754 18.64 288.861 18.04 287.821 17.64C286.807 17.2133 285.674 17 284.421 17C282.741 17 281.261 17.3733 279.981 18.12C278.727 18.84 277.754 19.8667 277.061 21.2C276.367 22.5067 276.021 24.0533 276.021 25.84C276.021 27.1733 276.221 28.3867 276.621 29.48C277.021 30.5733 277.581 31.52 278.301 32.32C279.047 33.0933 279.941 33.6933 280.981 34.12C282.021 34.5467 283.167 34.76 284.421 34.76Z" fill="url(#paint0_linear_0_1)"/>
	<path d="M32.4551 64.5653C32.4096 64.1619 32.2221 63.8494 31.8926 63.6278C31.563 63.4034 31.1483 63.2912 30.6483 63.2912C30.2903 63.2912 29.9806 63.348 29.7193 63.4616C29.4579 63.5724 29.2548 63.7259 29.1099 63.9219C28.9679 64.1151 28.8968 64.3352 28.8968 64.5824C28.8968 64.7898 28.9451 64.9687 29.0417 65.1193C29.1412 65.2699 29.2704 65.3963 29.4295 65.4986C29.5914 65.598 29.7647 65.6818 29.9494 65.75C30.1341 65.8153 30.3116 65.8693 30.4821 65.9119L31.3343 66.1335C31.6127 66.2017 31.8983 66.294 32.1909 66.4105C32.4835 66.527 32.7548 66.6804 33.0048 66.8707C33.2548 67.0611 33.4565 67.2969 33.6099 67.5781C33.7662 67.8594 33.8443 68.196 33.8443 68.5881C33.8443 69.0824 33.7164 69.5213 33.4608 69.9048C33.2079 70.2884 32.84 70.5909 32.3571 70.8125C31.877 71.0341 31.296 71.1449 30.6142 71.1449C29.9608 71.1449 29.3954 71.0412 28.9181 70.8338C28.4409 70.6264 28.0673 70.3324 27.7974 69.9517C27.5275 69.5682 27.3784 69.1136 27.35 68.5881H28.671C28.6966 68.9034 28.7988 69.1662 28.9778 69.3764C29.1596 69.5838 29.3912 69.7386 29.6724 69.8409C29.9565 69.9403 30.2676 69.9901 30.6056 69.9901C30.9778 69.9901 31.3088 69.9318 31.5985 69.8153C31.8912 69.696 32.1213 69.5312 32.2889 69.321C32.4565 69.108 32.5403 68.8594 32.5403 68.5753C32.5403 68.3168 32.4664 68.1051 32.3187 67.9403C32.1738 67.7756 31.9764 67.6392 31.7264 67.5312C31.4792 67.4233 31.1994 67.3281 30.8869 67.2457L29.8556 66.9645C29.1568 66.7741 28.6028 66.4943 28.1937 66.125C27.7875 65.7557 27.5843 65.267 27.5843 64.6591C27.5843 64.1562 27.7207 63.7173 27.9934 63.3423C28.2662 62.9673 28.6355 62.6761 29.1014 62.4688C29.5673 62.2585 30.0929 62.1534 30.6781 62.1534C31.269 62.1534 31.7903 62.2571 32.242 62.4645C32.6966 62.6719 33.0545 62.9574 33.3159 63.321C33.5772 63.6818 33.7136 64.0966 33.725 64.5653H32.4551ZM39.4618 68.2855V64.4545H40.7402V71H39.4874V69.8665H39.4192C39.2686 70.2159 39.0272 70.5071 38.6948 70.7401C38.3652 70.9702 37.9547 71.0852 37.4632 71.0852C37.0428 71.0852 36.6706 70.9929 36.3468 70.8082C36.0257 70.6207 35.7729 70.3438 35.5882 69.9773C35.4064 69.6108 35.3155 69.1577 35.3155 68.6179V64.4545H36.5897V68.4645C36.5897 68.9105 36.7132 69.2656 36.9604 69.5298C37.2076 69.794 37.5286 69.9261 37.9235 69.9261C38.1621 69.9261 38.3993 69.8665 38.6351 69.7472C38.8738 69.6278 39.0712 69.4474 39.2275 69.206C39.3865 68.9645 39.4647 68.6577 39.4618 68.2855ZM42.5545 71V62.2727H43.8287V65.5156H43.9054C43.9792 65.3793 44.0858 65.2216 44.225 65.0426C44.3642 64.8636 44.5574 64.7074 44.8045 64.5739C45.0517 64.4375 45.3784 64.3693 45.7846 64.3693C46.313 64.3693 46.7846 64.5028 47.1994 64.7699C47.6142 65.0369 47.9395 65.4219 48.1752 65.9247C48.4139 66.4276 48.5332 67.0327 48.5332 67.7401C48.5332 68.4474 48.4153 69.054 48.1795 69.5597C47.9437 70.0625 47.6199 70.4503 47.2079 70.723C46.796 70.9929 46.3258 71.1278 45.7974 71.1278C45.3997 71.1278 45.0744 71.0611 44.8216 70.9276C44.5716 70.794 44.3755 70.6378 44.2335 70.4588C44.0914 70.2798 43.9821 70.1207 43.9054 69.9815H43.7988V71H42.5545ZM43.8031 67.7273C43.8031 68.1875 43.8699 68.5909 44.0034 68.9375C44.1369 69.2841 44.3301 69.5554 44.5829 69.7514C44.8358 69.9446 45.1454 70.0412 45.5119 70.0412C45.8926 70.0412 46.2108 69.9403 46.4664 69.7386C46.7221 69.5341 46.9153 69.2571 47.046 68.9077C47.1795 68.5582 47.2463 68.1648 47.2463 67.7273C47.2463 67.2955 47.1809 66.9077 47.0502 66.5639C46.9224 66.2202 46.7292 65.9489 46.4707 65.75C46.215 65.5511 45.8954 65.4517 45.5119 65.4517C45.1426 65.4517 44.8301 65.5469 44.5744 65.7372C44.3216 65.9276 44.1298 66.1932 43.9991 66.5341C43.8684 66.875 43.8031 67.2727 43.8031 67.7273ZM54.8688 66.0526L53.714 66.2571C53.6657 66.1094 53.589 65.9687 53.4838 65.8352C53.3816 65.7017 53.2424 65.5923 53.0662 65.5071C52.8901 65.4219 52.6699 65.3793 52.4057 65.3793C52.0449 65.3793 51.7438 65.4602 51.5023 65.6222C51.2608 65.7812 51.1401 65.9872 51.1401 66.2401C51.1401 66.4588 51.2211 66.6349 51.383 66.7685C51.5449 66.902 51.8063 67.0114 52.1671 67.0966L53.2069 67.3352C53.8091 67.4744 54.258 67.6889 54.5534 67.9787C54.8489 68.2685 54.9966 68.6449 54.9966 69.108C54.9966 69.5 54.883 69.8494 54.6557 70.1562C54.4313 70.4602 54.1174 70.6989 53.714 70.8722C53.3134 71.0455 52.8489 71.1321 52.3205 71.1321C51.5875 71.1321 50.9895 70.9759 50.5265 70.6634C50.0634 70.348 49.7793 69.9006 49.6742 69.321L50.9057 69.1335C50.9824 69.4545 51.1401 69.6974 51.3787 69.8622C51.6174 70.0241 51.9284 70.1051 52.312 70.1051C52.7296 70.1051 53.0634 70.0185 53.3134 69.8452C53.5634 69.669 53.6884 69.4545 53.6884 69.2017C53.6884 68.9972 53.6117 68.8253 53.4583 68.6861C53.3077 68.5469 53.0762 68.4418 52.7637 68.3707L51.6557 68.1278C51.0449 67.9886 50.5932 67.767 50.3006 67.4631C50.0108 67.1591 49.8659 66.7741 49.8659 66.3082C49.8659 65.9219 49.9739 65.5838 50.1898 65.294C50.4057 65.0043 50.704 64.7784 51.0847 64.6165C51.4654 64.4517 51.9015 64.3693 52.3929 64.3693C53.1003 64.3693 53.6571 64.5227 54.0634 64.8295C54.4696 65.1335 54.7381 65.5412 54.8688 66.0526ZM59.1547 71.1321C58.5211 71.1321 57.9757 70.9886 57.5183 70.7017C57.0637 70.4119 56.7143 70.0128 56.47 69.5043C56.2257 68.9957 56.1035 68.4134 56.1035 67.7571C56.1035 67.0923 56.2285 66.5057 56.4785 65.9972C56.7285 65.4858 57.0808 65.0866 57.5353 64.7997C57.9899 64.5128 58.5254 64.3693 59.1419 64.3693C59.639 64.3693 60.0822 64.4616 60.4714 64.6463C60.8606 64.8281 61.1745 65.0838 61.4132 65.4134C61.6547 65.7429 61.7981 66.1278 61.8436 66.5682H60.6035C60.5353 66.2614 60.3791 65.9972 60.1348 65.7756C59.8933 65.554 59.5694 65.4432 59.1632 65.4432C58.8081 65.4432 58.497 65.5369 58.2299 65.7244C57.9657 65.9091 57.7598 66.1733 57.612 66.517C57.4643 66.858 57.3904 67.2614 57.3904 67.7273C57.3904 68.2045 57.4629 68.6165 57.6078 68.9631C57.7527 69.3097 57.9572 69.5781 58.2214 69.7685C58.4885 69.9588 58.8024 70.054 59.1632 70.054C59.4047 70.054 59.6234 70.0099 59.8194 69.9219C60.0183 69.831 60.1845 69.7017 60.318 69.5341C60.4544 69.3665 60.5495 69.1648 60.6035 68.929H61.8436C61.7981 69.3523 61.6603 69.7301 61.4302 70.0625C61.2001 70.3949 60.8919 70.6562 60.5055 70.8466C60.122 71.0369 59.6717 71.1321 59.1547 71.1321ZM63.2061 71V64.4545H64.4377V65.4943H64.5059C64.6252 65.142 64.8354 64.8651 65.1365 64.6634C65.4405 64.4588 65.7843 64.3565 66.1678 64.3565C66.2473 64.3565 66.3411 64.3594 66.449 64.3651C66.5598 64.3707 66.6465 64.3778 66.709 64.3864V65.6051C66.6578 65.5909 66.5669 65.5753 66.4363 65.5582C66.3056 65.5384 66.1749 65.5284 66.0442 65.5284C65.7431 65.5284 65.4746 65.5923 65.2388 65.7202C65.0059 65.8452 64.8212 66.0199 64.6848 66.2443C64.5485 66.4659 64.4803 66.7187 64.4803 67.0028V71H63.2061ZM67.8116 71V64.4545H69.0858V71H67.8116ZM68.4551 63.4446C68.2335 63.4446 68.0431 63.3707 67.8841 63.223C67.7278 63.0724 67.6497 62.8935 67.6497 62.6861C67.6497 62.4759 67.7278 62.2969 67.8841 62.1491C68.0431 61.9986 68.2335 61.9233 68.4551 61.9233C68.6767 61.9233 68.8656 61.9986 69.0218 62.1491C69.1809 62.2969 69.2605 62.4759 69.2605 62.6861C69.2605 62.8935 69.1809 63.0724 69.0218 63.223C68.8656 63.3707 68.6767 63.4446 68.4551 63.4446ZM70.9022 71V62.2727H72.1763V65.5156H72.253C72.3269 65.3793 72.4334 65.2216 72.5726 65.0426C72.7118 64.8636 72.905 64.7074 73.1522 64.5739C73.3993 64.4375 73.726 64.3693 74.1323 64.3693C74.6607 64.3693 75.1323 64.5028 75.5471 64.7699C75.9618 65.0369 76.2871 65.4219 76.5229 65.9247C76.7615 66.4276 76.8809 67.0327 76.8809 67.7401C76.8809 68.4474 76.763 69.054 76.5272 69.5597C76.2914 70.0625 75.9675 70.4503 75.5556 70.723C75.1436 70.9929 74.6735 71.1278 74.1451 71.1278C73.7473 71.1278 73.4221 71.0611 73.1692 70.9276C72.9192 70.794 72.7232 70.6378 72.5811 70.4588C72.4391 70.2798 72.3297 70.1207 72.253 69.9815H72.1465V71H70.9022ZM72.1507 67.7273C72.1507 68.1875 72.2175 68.5909 72.351 68.9375C72.4846 69.2841 72.6777 69.5554 72.9306 69.7514C73.1834 69.9446 73.4931 70.0412 73.8596 70.0412C74.2402 70.0412 74.5584 69.9403 74.8141 69.7386C75.0698 69.5341 75.263 69.2571 75.3936 68.9077C75.5272 68.5582 75.5939 68.1648 75.5939 67.7273C75.5939 67.2955 75.5286 66.9077 75.3979 66.5639C75.2701 66.2202 75.0769 65.9489 74.8184 65.75C74.5627 65.5511 74.2431 65.4517 73.8596 65.4517C73.4902 65.4517 73.1777 65.5469 72.9221 65.7372C72.6692 65.9276 72.4775 66.1932 72.3468 66.5341C72.2161 66.875 72.1507 67.2727 72.1507 67.7273ZM81.1326 71.1321C80.4877 71.1321 79.9324 70.9943 79.4664 70.7188C79.0034 70.4403 78.6454 70.0497 78.3926 69.5469C78.1426 69.0412 78.0176 68.4489 78.0176 67.7699C78.0176 67.0994 78.1426 66.5085 78.3926 65.9972C78.6454 65.4858 78.9977 65.0866 79.4494 64.7997C79.9039 64.5128 80.4352 64.3693 81.0431 64.3693C81.4125 64.3693 81.7704 64.4304 82.117 64.5526C82.4636 64.6747 82.7747 64.8665 83.0502 65.1278C83.3258 65.3892 83.5431 65.7287 83.7022 66.1463C83.8613 66.5611 83.9409 67.0653 83.9409 67.6591V68.1108H78.7377V67.1562H82.6923C82.6923 66.821 82.6241 66.5241 82.4877 66.2656C82.3514 66.0043 82.1596 65.7983 81.9125 65.6477C81.6681 65.4972 81.3812 65.4219 81.0517 65.4219C80.6937 65.4219 80.3812 65.5099 80.1142 65.6861C79.85 65.8594 79.6454 66.0866 79.5005 66.3679C79.3585 66.6463 79.2875 66.9489 79.2875 67.2756V68.0213C79.2875 68.4588 79.3642 68.831 79.5176 69.1378C79.6738 69.4446 79.8912 69.679 80.1696 69.8409C80.448 70 80.7733 70.0795 81.1454 70.0795C81.3869 70.0795 81.6071 70.0455 81.8059 69.9773C82.0048 69.9062 82.1767 69.8011 82.3216 69.6619C82.4664 69.5227 82.5772 69.3509 82.6539 69.1463L83.8599 69.3636C83.7633 69.7187 83.59 70.0298 83.34 70.2969C83.0929 70.5611 82.7818 70.767 82.4068 70.9148C82.0346 71.0597 81.6099 71.1321 81.1326 71.1321ZM95.6767 62.2727V71H94.4664L90.0304 64.5994H89.9494V71H88.6326V62.2727H89.8514L94.2917 68.6818H94.3727V62.2727H95.6767ZM100.252 71.1321C99.6387 71.1321 99.1032 70.9915 98.6458 70.7102C98.1884 70.429 97.8333 70.0355 97.5804 69.5298C97.3276 69.0241 97.2012 68.4332 97.2012 67.7571C97.2012 67.0781 97.3276 66.4844 97.5804 65.9759C97.8333 65.4673 98.1884 65.0724 98.6458 64.7912C99.1032 64.5099 99.6387 64.3693 100.252 64.3693C100.866 64.3693 101.401 64.5099 101.859 64.7912C102.316 65.0724 102.671 65.4673 102.924 65.9759C103.177 66.4844 103.303 67.0781 103.303 67.7571C103.303 68.4332 103.177 69.0241 102.924 69.5298C102.671 70.0355 102.316 70.429 101.859 70.7102C101.401 70.9915 100.866 71.1321 100.252 71.1321ZM100.257 70.0625C100.654 70.0625 100.984 69.9574 101.245 69.7472C101.507 69.5369 101.7 69.2571 101.825 68.9077C101.953 68.5582 102.017 68.1733 102.017 67.7528C102.017 67.3352 101.953 66.9517 101.825 66.6023C101.7 66.25 101.507 65.9673 101.245 65.7543C100.984 65.5412 100.654 65.4347 100.257 65.4347C99.856 65.4347 99.5236 65.5412 99.2594 65.7543C98.998 65.9673 98.8034 66.25 98.6756 66.6023C98.5506 66.9517 98.4881 67.3352 98.4881 67.7528C98.4881 68.1733 98.5506 68.5582 98.6756 68.9077C98.8034 69.2571 98.998 69.5369 99.2594 69.7472C99.5236 69.9574 99.856 70.0625 100.257 70.0625ZM105.945 71L104.019 64.4545H105.336L106.619 69.2614H106.683L107.97 64.4545H109.286L110.565 69.2401H110.629L111.903 64.4545H113.22L111.298 71H109.998L108.669 66.2741H108.57L107.241 71H105.945ZM119.509 71.1449C119.095 71.1449 118.72 71.0682 118.384 70.9148C118.049 70.7585 117.784 70.5327 117.588 70.2372C117.394 69.9418 117.298 69.5795 117.298 69.1506C117.298 68.7812 117.369 68.4773 117.511 68.2386C117.653 68 117.845 67.8111 118.086 67.6719C118.328 67.5327 118.597 67.4276 118.896 67.3565C119.194 67.2855 119.498 67.2315 119.808 67.1946C120.2 67.1491 120.518 67.1122 120.762 67.0838C121.007 67.0526 121.184 67.0028 121.295 66.9347C121.406 66.8665 121.461 66.7557 121.461 66.6023V66.5724C121.461 66.2003 121.356 65.9119 121.146 65.7074C120.938 65.5028 120.629 65.4006 120.217 65.4006C119.788 65.4006 119.45 65.4957 119.203 65.6861C118.958 65.8736 118.789 66.0824 118.695 66.3125L117.498 66.0398C117.64 65.642 117.847 65.321 118.12 65.0767C118.396 64.8295 118.713 64.6506 119.07 64.5398C119.428 64.4261 119.805 64.3693 120.2 64.3693C120.461 64.3693 120.738 64.4006 121.031 64.4631C121.326 64.5227 121.602 64.6335 121.857 64.7955C122.116 64.9574 122.328 65.1889 122.492 65.4901C122.657 65.7884 122.74 66.1761 122.74 66.6534V71H121.495V70.1051H121.444C121.362 70.2699 121.238 70.4318 121.073 70.5909C120.909 70.75 120.697 70.8821 120.438 70.9872C120.18 71.0923 119.87 71.1449 119.509 71.1449ZM119.786 70.1222C120.139 70.1222 120.44 70.0526 120.69 69.9134C120.943 69.7741 121.134 69.5923 121.265 69.3679C121.399 69.1406 121.465 68.8977 121.465 68.6392V67.7955C121.42 67.8409 121.332 67.8835 121.201 67.9233C121.073 67.9602 120.927 67.9929 120.762 68.0213C120.597 68.0469 120.437 68.071 120.281 68.0938C120.124 68.1136 119.994 68.1307 119.889 68.1449C119.642 68.1761 119.416 68.2287 119.211 68.3026C119.009 68.3764 118.847 68.483 118.725 68.6222C118.606 68.7585 118.546 68.9403 118.546 69.1676C118.546 69.483 118.663 69.7216 118.896 69.8835C119.129 70.0426 119.426 70.1222 119.786 70.1222ZM125.711 67.1136V71H124.437V64.4545H125.66V65.5199H125.741C125.891 65.1733 126.127 64.8949 126.448 64.6847C126.772 64.4744 127.18 64.3693 127.671 64.3693C128.117 64.3693 128.508 64.4631 128.843 64.6506C129.178 64.8352 129.438 65.1108 129.623 65.4773C129.807 65.8437 129.9 66.2969 129.9 66.8366V71H128.626V66.9901C128.626 66.5156 128.502 66.1449 128.255 65.8778C128.008 65.608 127.668 65.473 127.236 65.473C126.941 65.473 126.678 65.5369 126.448 65.6648C126.221 65.7926 126.04 65.9801 125.907 66.2273C125.776 66.4716 125.711 66.767 125.711 67.1136ZM134.059 71.1278C133.53 71.1278 133.059 70.9929 132.644 70.723C132.232 70.4503 131.908 70.0625 131.672 69.5597C131.439 69.054 131.323 68.4474 131.323 67.7401C131.323 67.0327 131.441 66.4276 131.677 65.9247C131.915 65.4219 132.242 65.0369 132.657 64.7699C133.072 64.5028 133.542 64.3693 134.067 64.3693C134.474 64.3693 134.8 64.4375 135.047 64.5739C135.297 64.7074 135.491 64.8636 135.627 65.0426C135.766 65.2216 135.874 65.3793 135.951 65.5156H136.028V62.2727H137.302V71H136.057V69.9815H135.951C135.874 70.1207 135.763 70.2798 135.618 70.4588C135.476 70.6378 135.28 70.794 135.03 70.9276C134.78 71.0611 134.456 71.1278 134.059 71.1278ZM134.34 70.0412C134.706 70.0412 135.016 69.9446 135.269 69.7514C135.525 69.5554 135.718 69.2841 135.849 68.9375C135.982 68.5909 136.049 68.1875 136.049 67.7273C136.049 67.2727 135.983 66.875 135.853 66.5341C135.722 66.1932 135.53 65.9276 135.278 65.7372C135.025 65.5469 134.712 65.4517 134.34 65.4517C133.956 65.4517 133.637 65.5511 133.381 65.75C133.126 65.9489 132.932 66.2202 132.802 66.5639C132.674 66.9077 132.61 67.2955 132.61 67.7273C132.61 68.1648 132.675 68.5582 132.806 68.9077C132.937 69.2571 133.13 69.5341 133.385 69.7386C133.644 69.9403 133.962 70.0412 134.34 70.0412ZM145.04 73.5909C144.52 73.5909 144.073 73.5227 143.698 73.3864C143.326 73.25 143.022 73.0696 142.786 72.8452C142.55 72.6207 142.374 72.375 142.258 72.108L143.353 71.6562C143.43 71.7812 143.532 71.9134 143.66 72.0526C143.79 72.1946 143.966 72.3153 144.188 72.4148C144.412 72.5142 144.701 72.5639 145.053 72.5639C145.536 72.5639 145.935 72.446 146.251 72.2102C146.566 71.9773 146.724 71.6051 146.724 71.0938V69.8068H146.643C146.566 69.946 146.455 70.1009 146.31 70.2713C146.168 70.4418 145.972 70.5895 145.722 70.7145C145.472 70.8395 145.147 70.902 144.746 70.902C144.229 70.902 143.763 70.7812 143.349 70.5398C142.937 70.2955 142.61 69.9361 142.368 69.4616C142.13 68.9844 142.01 68.3977 142.01 67.7017C142.01 67.0057 142.128 66.4091 142.364 65.9119C142.603 65.4148 142.93 65.0341 143.344 64.7699C143.759 64.5028 144.229 64.3693 144.755 64.3693C145.161 64.3693 145.489 64.4375 145.739 64.5739C145.989 64.7074 146.184 64.8636 146.323 65.0426C146.465 65.2216 146.574 65.3793 146.651 65.5156H146.745V64.4545H147.993V71.1449C147.993 71.7074 147.863 72.169 147.601 72.5298C147.34 72.8906 146.986 73.1577 146.54 73.331C146.097 73.5043 145.597 73.5909 145.04 73.5909ZM145.028 69.8452C145.394 69.8452 145.704 69.7599 145.956 69.5895C146.212 69.4162 146.405 69.169 146.536 68.848C146.67 68.5241 146.736 68.1364 146.736 67.6847C146.736 67.2443 146.671 66.8565 146.54 66.5213C146.41 66.1861 146.218 65.9247 145.965 65.7372C145.712 65.5469 145.4 65.4517 145.028 65.4517C144.644 65.4517 144.324 65.5511 144.069 65.75C143.813 65.946 143.62 66.2131 143.489 66.5511C143.361 66.8892 143.297 67.267 143.297 67.6847C143.297 68.1136 143.363 68.4901 143.493 68.8139C143.624 69.1378 143.817 69.3906 144.073 69.5724C144.331 69.7543 144.65 69.8452 145.028 69.8452ZM152.523 71.1321C151.878 71.1321 151.323 70.9943 150.857 70.7188C150.394 70.4403 150.036 70.0497 149.783 69.5469C149.533 69.0412 149.408 68.4489 149.408 67.7699C149.408 67.0994 149.533 66.5085 149.783 65.9972C150.036 65.4858 150.388 65.0866 150.84 64.7997C151.295 64.5128 151.826 64.3693 152.434 64.3693C152.803 64.3693 153.161 64.4304 153.508 64.5526C153.854 64.6747 154.165 64.8665 154.441 65.1278C154.716 65.3892 154.934 65.7287 155.093 66.1463C155.252 66.5611 155.331 67.0653 155.331 67.6591V68.1108H150.128V67.1562H154.083C154.083 66.821 154.015 66.5241 153.878 66.2656C153.742 66.0043 153.55 65.7983 153.303 65.6477C153.059 65.4972 152.772 65.4219 152.442 65.4219C152.084 65.4219 151.772 65.5099 151.505 65.6861C151.241 65.8594 151.036 66.0866 150.891 66.3679C150.749 66.6463 150.678 66.9489 150.678 67.2756V68.0213C150.678 68.4588 150.755 68.831 150.908 69.1378C151.064 69.4446 151.282 69.679 151.56 69.8409C151.839 70 152.164 70.0795 152.536 70.0795C152.778 70.0795 152.998 70.0455 153.197 69.9773C153.395 69.9062 153.567 69.8011 153.712 69.6619C153.857 69.5227 153.968 69.3509 154.045 69.1463L155.251 69.3636C155.154 69.7187 154.981 70.0298 154.731 70.2969C154.483 70.5611 154.172 70.767 153.797 70.9148C153.425 71.0597 153.001 71.1321 152.523 71.1321ZM159.801 64.4545V65.4773H156.225V64.4545H159.801ZM157.184 62.8864H158.458V69.0781C158.458 69.3253 158.495 69.5114 158.569 69.6364C158.643 69.7585 158.738 69.8423 158.855 69.8878C158.974 69.9304 159.103 69.9517 159.242 69.9517C159.345 69.9517 159.434 69.9446 159.511 69.9304C159.588 69.9162 159.647 69.9048 159.69 69.8963L159.92 70.9489C159.846 70.9773 159.741 71.0057 159.605 71.0341C159.468 71.0653 159.298 71.0824 159.093 71.0852C158.758 71.0909 158.445 71.0312 158.156 70.9062C157.866 70.7812 157.632 70.5881 157.453 70.3267C157.274 70.0653 157.184 69.7372 157.184 69.3423V62.8864ZM166.291 71.1449C165.876 71.1449 165.501 71.0682 165.166 70.9148C164.83 70.7585 164.565 70.5327 164.369 70.2372C164.176 69.9418 164.079 69.5795 164.079 69.1506C164.079 68.7812 164.15 68.4773 164.292 68.2386C164.434 68 164.626 67.8111 164.867 67.6719C165.109 67.5327 165.379 67.4276 165.677 67.3565C165.975 67.2855 166.279 67.2315 166.589 67.1946C166.981 67.1491 167.299 67.1122 167.544 67.0838C167.788 67.0526 167.965 67.0028 168.076 66.9347C168.187 66.8665 168.242 66.7557 168.242 66.6023V66.5724C168.242 66.2003 168.137 65.9119 167.927 65.7074C167.72 65.5028 167.41 65.4006 166.998 65.4006C166.569 65.4006 166.231 65.4957 165.984 65.6861C165.74 65.8736 165.57 66.0824 165.477 66.3125L164.279 66.0398C164.421 65.642 164.629 65.321 164.901 65.0767C165.177 64.8295 165.494 64.6506 165.852 64.5398C166.21 64.4261 166.586 64.3693 166.981 64.3693C167.242 64.3693 167.519 64.4006 167.812 64.4631C168.107 64.5227 168.383 64.6335 168.639 64.7955C168.897 64.9574 169.109 65.1889 169.274 65.4901C169.438 65.7884 169.521 66.1761 169.521 66.6534V71H168.276V70.1051H168.225C168.143 70.2699 168.019 70.4318 167.855 70.5909C167.69 70.75 167.478 70.8821 167.22 70.9872C166.961 71.0923 166.651 71.1449 166.291 71.1449ZM166.568 70.1222C166.92 70.1222 167.221 70.0526 167.471 69.9134C167.724 69.7741 167.916 69.5923 168.046 69.3679C168.18 69.1406 168.247 68.8977 168.247 68.6392V67.7955C168.201 67.8409 168.113 67.8835 167.982 67.9233C167.855 67.9602 167.708 67.9929 167.544 68.0213C167.379 68.0469 167.218 68.071 167.062 68.0938C166.906 68.1136 166.775 68.1307 166.67 68.1449C166.423 68.1761 166.197 68.2287 165.992 68.3026C165.791 68.3764 165.629 68.483 165.507 68.6222C165.387 68.7585 165.328 68.9403 165.328 69.1676C165.328 69.483 165.444 69.7216 165.677 69.8835C165.91 70.0426 166.207 70.1222 166.568 70.1222ZM173.975 71.1321C173.341 71.1321 172.796 70.9886 172.339 70.7017C171.884 70.4119 171.535 70.0128 171.29 69.5043C171.046 68.9957 170.924 68.4134 170.924 67.7571C170.924 67.0923 171.049 66.5057 171.299 65.9972C171.549 65.4858 171.901 65.0866 172.356 64.7997C172.81 64.5128 173.346 64.3693 173.962 64.3693C174.459 64.3693 174.903 64.4616 175.292 64.6463C175.681 64.8281 175.995 65.0838 176.233 65.4134C176.475 65.7429 176.618 66.1278 176.664 66.5682H175.424C175.356 66.2614 175.199 65.9972 174.955 65.7756C174.714 65.554 174.39 65.4432 173.983 65.4432C173.628 65.4432 173.317 65.5369 173.05 65.7244C172.786 65.9091 172.58 66.1733 172.432 66.517C172.285 66.858 172.211 67.2614 172.211 67.7273C172.211 68.2045 172.283 68.6165 172.428 68.9631C172.573 69.3097 172.778 69.5781 173.042 69.7685C173.309 69.9588 173.623 70.054 173.983 70.054C174.225 70.054 174.444 70.0099 174.64 69.9219C174.839 69.831 175.005 69.7017 175.138 69.5341C175.275 69.3665 175.37 69.1648 175.424 68.929H176.664C176.618 69.3523 176.481 69.7301 176.251 70.0625C176.02 70.3949 175.712 70.6562 175.326 70.8466C174.942 71.0369 174.492 71.1321 173.975 71.1321ZM180.784 71.1321C180.15 71.1321 179.605 70.9886 179.147 70.7017C178.693 70.4119 178.343 70.0128 178.099 69.5043C177.855 68.9957 177.732 68.4134 177.732 67.7571C177.732 67.0923 177.857 66.5057 178.107 65.9972C178.357 65.4858 178.71 65.0866 179.164 64.7997C179.619 64.5128 180.154 64.3693 180.771 64.3693C181.268 64.3693 181.711 64.4616 182.1 64.6463C182.49 64.8281 182.803 65.0838 183.042 65.4134C183.284 65.7429 183.427 66.1278 183.472 66.5682H182.232C182.164 66.2614 182.008 65.9972 181.764 65.7756C181.522 65.554 181.198 65.4432 180.792 65.4432C180.437 65.4432 180.126 65.5369 179.859 65.7244C179.595 65.9091 179.389 66.1733 179.241 66.517C179.093 66.858 179.019 67.2614 179.019 67.7273C179.019 68.2045 179.092 68.6165 179.237 68.9631C179.382 69.3097 179.586 69.5781 179.85 69.7685C180.117 69.9588 180.431 70.054 180.792 70.054C181.034 70.054 181.252 70.0099 181.448 69.9219C181.647 69.831 181.813 69.7017 181.947 69.5341C182.083 69.3665 182.178 69.1648 182.232 68.929H183.472C183.427 69.3523 183.289 69.7301 183.059 70.0625C182.829 70.3949 182.521 70.6562 182.134 70.8466C181.751 71.0369 181.301 71.1321 180.784 71.1321ZM187.656 71.1321C187.011 71.1321 186.456 70.9943 185.99 70.7188C185.527 70.4403 185.169 70.0497 184.916 69.5469C184.666 69.0412 184.541 68.4489 184.541 67.7699C184.541 67.0994 184.666 66.5085 184.916 65.9972C185.169 65.4858 185.521 65.0866 185.973 64.7997C186.427 64.5128 186.959 64.3693 187.567 64.3693C187.936 64.3693 188.294 64.4304 188.64 64.5526C188.987 64.6747 189.298 64.8665 189.574 65.1278C189.849 65.3892 190.067 65.7287 190.226 66.1463C190.385 66.5611 190.464 67.0653 190.464 67.6591V68.1108H185.261V67.1562H189.216C189.216 66.821 189.148 66.5241 189.011 66.2656C188.875 66.0043 188.683 65.7983 188.436 65.6477C188.192 65.4972 187.905 65.4219 187.575 65.4219C187.217 65.4219 186.905 65.5099 186.638 65.6861C186.373 65.8594 186.169 66.0866 186.024 66.3679C185.882 66.6463 185.811 66.9489 185.811 67.2756V68.0213C185.811 68.4588 185.888 68.831 186.041 69.1378C186.197 69.4446 186.415 69.679 186.693 69.8409C186.971 70 187.297 70.0795 187.669 70.0795C187.91 70.0795 188.131 70.0455 188.329 69.9773C188.528 69.9062 188.7 69.8011 188.845 69.6619C188.99 69.5227 189.101 69.3509 189.177 69.1463L190.383 69.3636C190.287 69.7187 190.113 70.0298 189.863 70.2969C189.616 70.5611 189.305 70.767 188.93 70.9148C188.558 71.0597 188.133 71.1321 187.656 71.1321ZM196.783 66.0526L195.628 66.2571C195.58 66.1094 195.503 65.9687 195.398 65.8352C195.296 65.7017 195.156 65.5923 194.98 65.5071C194.804 65.4219 194.584 65.3793 194.32 65.3793C193.959 65.3793 193.658 65.4602 193.416 65.6222C193.175 65.7812 193.054 65.9872 193.054 66.2401C193.054 66.4588 193.135 66.6349 193.297 66.7685C193.459 66.902 193.72 67.0114 194.081 67.0966L195.121 67.3352C195.723 67.4744 196.172 67.6889 196.468 67.9787C196.763 68.2685 196.911 68.6449 196.911 69.108C196.911 69.5 196.797 69.8494 196.57 70.1562C196.345 70.4602 196.031 70.6989 195.628 70.8722C195.227 71.0455 194.763 71.1321 194.235 71.1321C193.502 71.1321 192.904 70.9759 192.441 70.6634C191.977 70.348 191.693 69.9006 191.588 69.321L192.82 69.1335C192.896 69.4545 193.054 69.6974 193.293 69.8622C193.531 70.0241 193.843 70.1051 194.226 70.1051C194.644 70.1051 194.977 70.0185 195.227 69.8452C195.477 69.669 195.602 69.4545 195.602 69.2017C195.602 68.9972 195.526 68.8253 195.372 68.6861C195.222 68.5469 194.99 68.4418 194.678 68.3707L193.57 68.1278C192.959 67.9886 192.507 67.767 192.215 67.4631C191.925 67.1591 191.78 66.7741 191.78 66.3082C191.78 65.9219 191.888 65.5838 192.104 65.294C192.32 65.0043 192.618 64.7784 192.999 64.6165C193.379 64.4517 193.816 64.3693 194.307 64.3693C195.014 64.3693 195.571 64.5227 195.977 64.8295C196.384 65.1335 196.652 65.5412 196.783 66.0526ZM203.216 66.0526L202.062 66.2571C202.013 66.1094 201.937 65.9687 201.831 65.8352C201.729 65.7017 201.59 65.5923 201.414 65.5071C201.238 65.4219 201.018 65.3793 200.753 65.3793C200.393 65.3793 200.091 65.4602 199.85 65.6222C199.608 65.7812 199.488 65.9872 199.488 66.2401C199.488 66.4588 199.569 66.6349 199.731 66.7685C199.893 66.902 200.154 67.0114 200.515 67.0966L201.555 67.3352C202.157 67.4744 202.606 67.6889 202.901 67.9787C203.197 68.2685 203.344 68.6449 203.344 69.108C203.344 69.5 203.231 69.8494 203.003 70.1562C202.779 70.4602 202.465 70.6989 202.062 70.8722C201.661 71.0455 201.197 71.1321 200.668 71.1321C199.935 71.1321 199.337 70.9759 198.874 70.6634C198.411 70.348 198.127 69.9006 198.022 69.321L199.253 69.1335C199.33 69.4545 199.488 69.6974 199.726 69.8622C199.965 70.0241 200.276 70.1051 200.66 70.1051C201.077 70.1051 201.411 70.0185 201.661 69.8452C201.911 69.669 202.036 69.4545 202.036 69.2017C202.036 68.9972 201.959 68.8253 201.806 68.6861C201.655 68.5469 201.424 68.4418 201.111 68.3707L200.003 68.1278C199.393 67.9886 198.941 67.767 198.648 67.4631C198.358 67.1591 198.214 66.7741 198.214 66.3082C198.214 65.9219 198.322 65.5838 198.537 65.294C198.753 65.0043 199.052 64.7784 199.432 64.6165C199.813 64.4517 200.249 64.3693 200.741 64.3693C201.448 64.3693 202.005 64.5227 202.411 64.8295C202.817 65.1335 203.086 65.5412 203.216 66.0526ZM210.976 64.4545V65.4773H207.401V64.4545H210.976ZM208.36 62.8864H209.634V69.0781C209.634 69.3253 209.671 69.5114 209.745 69.6364C209.819 69.7585 209.914 69.8423 210.03 69.8878C210.15 69.9304 210.279 69.9517 210.418 69.9517C210.52 69.9517 210.61 69.9446 210.687 69.9304C210.763 69.9162 210.823 69.9048 210.866 69.8963L211.096 70.9489C211.022 70.9773 210.917 71.0057 210.78 71.0341C210.644 71.0653 210.474 71.0824 210.269 71.0852C209.934 71.0909 209.621 71.0312 209.331 70.9062C209.042 70.7812 208.807 70.5881 208.628 70.3267C208.449 70.0653 208.36 69.7372 208.36 69.3423V62.8864ZM215.073 71.1321C214.459 71.1321 213.923 70.9915 213.466 70.7102C213.009 70.429 212.654 70.0355 212.401 69.5298C212.148 69.0241 212.021 68.4332 212.021 67.7571C212.021 67.0781 212.148 66.4844 212.401 65.9759C212.654 65.4673 213.009 65.0724 213.466 64.7912C213.923 64.5099 214.459 64.3693 215.073 64.3693C215.686 64.3693 216.222 64.5099 216.679 64.7912C217.137 65.0724 217.492 65.4673 217.744 65.9759C217.997 66.4844 218.124 67.0781 218.124 67.7571C218.124 68.4332 217.997 69.0241 217.744 69.5298C217.492 70.0355 217.137 70.429 216.679 70.7102C216.222 70.9915 215.686 71.1321 215.073 71.1321ZM215.077 70.0625C215.475 70.0625 215.804 69.9574 216.066 69.7472C216.327 69.5369 216.52 69.2571 216.645 68.9077C216.773 68.5582 216.837 68.1733 216.837 67.7528C216.837 67.3352 216.773 66.9517 216.645 66.6023C216.52 66.25 216.327 65.9673 216.066 65.7543C215.804 65.5412 215.475 65.4347 215.077 65.4347C214.676 65.4347 214.344 65.5412 214.08 65.7543C213.818 65.9673 213.624 66.25 213.496 66.6023C213.371 66.9517 213.308 67.3352 213.308 67.7528C213.308 68.1733 213.371 68.5582 213.496 68.9077C213.624 69.2571 213.818 69.5369 214.08 69.7472C214.344 69.9574 214.676 70.0625 215.077 70.0625ZM226.016 62.2727V71H224.695V63.5938H224.644L222.556 64.9574V63.696L224.733 62.2727H226.016ZM231.415 71.1449C230.742 71.142 230.166 70.9645 229.689 70.6122C229.212 70.2599 228.847 69.7472 228.594 69.0739C228.341 68.4006 228.215 67.5895 228.215 66.6406C228.215 65.6946 228.341 64.8864 228.594 64.2159C228.85 63.5455 229.216 63.0341 229.693 62.6818C230.173 62.3295 230.747 62.1534 231.415 62.1534C232.083 62.1534 232.655 62.331 233.132 62.6861C233.61 63.0384 233.975 63.5497 234.227 64.2202C234.483 64.8878 234.611 65.6946 234.611 66.6406C234.611 67.5923 234.485 68.4048 234.232 69.0781C233.979 69.7486 233.614 70.2614 233.137 70.6165C232.659 70.9688 232.085 71.1449 231.415 71.1449ZM231.415 70.0071C232.006 70.0071 232.468 69.7188 232.8 69.142C233.135 68.5653 233.303 67.7315 233.303 66.6406C233.303 65.9162 233.226 65.304 233.073 64.804C232.922 64.3011 232.705 63.9205 232.421 63.6619C232.139 63.4006 231.804 63.2699 231.415 63.2699C230.827 63.2699 230.365 63.5597 230.03 64.1392C229.695 64.7187 229.526 65.5526 229.523 66.6406C229.523 67.3679 229.598 67.983 229.749 68.4858C229.902 68.9858 230.119 69.3651 230.401 69.6236C230.682 69.8793 231.02 70.0071 231.415 70.0071ZM239.161 71.1449C238.488 71.142 237.912 70.9645 237.435 70.6122C236.958 70.2599 236.593 69.7472 236.34 69.0739C236.087 68.4006 235.961 67.5895 235.961 66.6406C235.961 65.6946 236.087 64.8864 236.34 64.2159C236.596 63.5455 236.962 63.0341 237.439 62.6818C237.92 62.3295 238.493 62.1534 239.161 62.1534C239.829 62.1534 240.401 62.331 240.878 62.6861C241.356 63.0384 241.721 63.5497 241.974 64.2202C242.229 64.8878 242.357 65.6946 242.357 66.6406C242.357 67.5923 242.231 68.4048 241.978 69.0781C241.725 69.7486 241.36 70.2614 240.883 70.6165C240.405 70.9688 239.831 71.1449 239.161 71.1449ZM239.161 70.0071C239.752 70.0071 240.214 69.7188 240.546 69.142C240.881 68.5653 241.049 67.7315 241.049 66.6406C241.049 65.9162 240.972 65.304 240.819 64.804C240.668 64.3011 240.451 63.9205 240.167 63.6619C239.885 63.4006 239.55 63.2699 239.161 63.2699C238.573 63.2699 238.111 63.5597 237.776 64.1392C237.441 64.7187 237.272 65.5526 237.269 66.6406C237.269 67.3679 237.344 67.983 237.495 68.4858C237.648 68.9858 237.866 69.3651 238.147 69.6236C238.428 69.8793 238.766 70.0071 239.161 70.0071ZM246.451 69.5341V63.7727H247.597V69.5341H246.451ZM244.146 67.2244V66.0824H249.907V67.2244H244.146ZM257.811 71.1321C257.177 71.1321 256.632 70.9886 256.175 70.7017C255.72 70.4119 255.371 70.0128 255.126 69.5043C254.882 68.9957 254.76 68.4134 254.76 67.7571C254.76 67.0923 254.885 66.5057 255.135 65.9972C255.385 65.4858 255.737 65.0866 256.192 64.7997C256.646 64.5128 257.182 64.3693 257.798 64.3693C258.295 64.3693 258.738 64.4616 259.128 64.6463C259.517 64.8281 259.831 65.0838 260.069 65.4134C260.311 65.7429 260.454 66.1278 260.5 66.5682H259.26C259.192 66.2614 259.035 65.9972 258.791 65.7756C258.55 65.554 258.226 65.4432 257.819 65.4432C257.464 65.4432 257.153 65.5369 256.886 65.7244C256.622 65.9091 256.416 66.1733 256.268 66.517C256.121 66.858 256.047 67.2614 256.047 67.7273C256.047 68.2045 256.119 68.6165 256.264 68.9631C256.409 69.3097 256.613 69.5781 256.878 69.7685C257.145 69.9588 257.459 70.054 257.819 70.054C258.061 70.054 258.28 70.0099 258.476 69.9219C258.675 69.831 258.841 69.7017 258.974 69.5341C259.111 69.3665 259.206 69.1648 259.26 68.929H260.5C260.454 69.3523 260.317 69.7301 260.086 70.0625C259.856 70.3949 259.548 70.6562 259.162 70.8466C258.778 71.0369 258.328 71.1321 257.811 71.1321ZM263.137 67.1136V71H261.862V62.2727H263.119V65.5199H263.2C263.354 65.1676 263.588 64.8878 263.904 64.6804C264.219 64.473 264.631 64.3693 265.139 64.3693C265.588 64.3693 265.98 64.4616 266.316 64.6463C266.654 64.831 266.915 65.1065 267.1 65.473C267.287 65.8366 267.381 66.2912 267.381 66.8366V71H266.107V66.9901C266.107 66.5099 265.983 66.1378 265.736 65.8736C265.489 65.6065 265.145 65.473 264.705 65.473C264.404 65.473 264.134 65.5369 263.895 65.6648C263.659 65.7926 263.473 65.9801 263.337 66.2273C263.203 66.4716 263.137 66.767 263.137 67.1136ZM270.986 71.1449C270.571 71.1449 270.196 71.0682 269.861 70.9148C269.526 70.7585 269.26 70.5327 269.064 70.2372C268.871 69.9418 268.774 69.5795 268.774 69.1506C268.774 68.7812 268.845 68.4773 268.987 68.2386C269.129 68 269.321 67.8111 269.563 67.6719C269.804 67.5327 270.074 67.4276 270.372 67.3565C270.671 67.2855 270.975 67.2315 271.284 67.1946C271.676 67.1491 271.994 67.1122 272.239 67.0838C272.483 67.0526 272.661 67.0028 272.771 66.9347C272.882 66.8665 272.938 66.7557 272.938 66.6023V66.5724C272.938 66.2003 272.833 65.9119 272.622 65.7074C272.415 65.5028 272.105 65.4006 271.693 65.4006C271.264 65.4006 270.926 65.4957 270.679 65.6861C270.435 65.8736 270.266 66.0824 270.172 66.3125L268.975 66.0398C269.117 65.642 269.324 65.321 269.597 65.0767C269.872 64.8295 270.189 64.6506 270.547 64.5398C270.905 64.4261 271.281 64.3693 271.676 64.3693C271.938 64.3693 272.215 64.4006 272.507 64.4631C272.803 64.5227 273.078 64.6335 273.334 64.7955C273.593 64.9574 273.804 65.1889 273.969 65.4901C274.134 65.7884 274.216 66.1761 274.216 66.6534V71H272.972V70.1051H272.921C272.838 70.2699 272.715 70.4318 272.55 70.5909C272.385 70.75 272.173 70.8821 271.915 70.9872C271.656 71.0923 271.347 71.1449 270.986 71.1449ZM271.263 70.1222C271.615 70.1222 271.916 70.0526 272.166 69.9134C272.419 69.7741 272.611 69.5923 272.742 69.3679C272.875 69.1406 272.942 68.8977 272.942 68.6392V67.7955C272.896 67.8409 272.808 67.8835 272.678 67.9233C272.55 67.9602 272.404 67.9929 272.239 68.0213C272.074 68.0469 271.914 68.071 271.757 68.0938C271.601 68.1136 271.47 68.1307 271.365 68.1449C271.118 68.1761 270.892 68.2287 270.688 68.3026C270.486 68.3764 270.324 68.483 270.202 68.6222C270.083 68.7585 270.023 68.9403 270.023 69.1676C270.023 69.483 270.139 69.7216 270.372 69.8835C270.605 70.0426 270.902 70.1222 271.263 70.1222ZM277.187 67.1136V71H275.913V64.4545H277.136V65.5199H277.217C277.368 65.1733 277.604 64.8949 277.925 64.6847C278.248 64.4744 278.656 64.3693 279.148 64.3693C279.594 64.3693 279.984 64.4631 280.319 64.6506C280.655 64.8352 280.915 65.1108 281.099 65.4773C281.284 65.8437 281.376 66.2969 281.376 66.8366V71H280.102V66.9901C280.102 66.5156 279.979 66.1449 279.731 65.8778C279.484 65.608 279.145 65.473 278.713 65.473C278.417 65.473 278.155 65.5369 277.925 65.6648C277.697 65.7926 277.517 65.9801 277.383 66.2273C277.253 66.4716 277.187 66.767 277.187 67.1136ZM284.359 67.1136V71H283.085V64.4545H284.308V65.5199H284.389C284.54 65.1733 284.775 64.8949 285.096 64.6847C285.42 64.4744 285.828 64.3693 286.319 64.3693C286.765 64.3693 287.156 64.4631 287.491 64.6506C287.827 64.8352 288.086 65.1108 288.271 65.4773C288.456 65.8437 288.548 66.2969 288.548 66.8366V71H287.274V66.9901C287.274 66.5156 287.15 66.1449 286.903 65.8778C286.656 65.608 286.317 65.473 285.885 65.473C285.589 65.473 285.327 65.5369 285.096 65.6648C284.869 65.7926 284.689 65.9801 284.555 66.2273C284.425 66.4716 284.359 66.767 284.359 67.1136ZM293.078 71.1321C292.433 71.1321 291.878 70.9943 291.412 70.7188C290.949 70.4403 290.591 70.0497 290.338 69.5469C290.088 69.0412 289.963 68.4489 289.963 67.7699C289.963 67.0994 290.088 66.5085 290.338 65.9972C290.591 65.4858 290.943 65.0866 291.395 64.7997C291.849 64.5128 292.381 64.3693 292.988 64.3693C293.358 64.3693 293.716 64.4304 294.062 64.5526C294.409 64.6747 294.72 64.8665 294.996 65.1278C295.271 65.3892 295.488 65.7287 295.648 66.1463C295.807 66.5611 295.886 67.0653 295.886 67.6591V68.1108H290.683V67.1562H294.638C294.638 66.821 294.569 66.5241 294.433 66.2656C294.297 66.0043 294.105 65.7983 293.858 65.6477C293.613 65.4972 293.327 65.4219 292.997 65.4219C292.639 65.4219 292.327 65.5099 292.059 65.6861C291.795 65.8594 291.591 66.0866 291.446 66.3679C291.304 66.6463 291.233 66.9489 291.233 67.2756V68.0213C291.233 68.4588 291.309 68.831 291.463 69.1378C291.619 69.4446 291.836 69.679 292.115 69.8409C292.393 70 292.719 70.0795 293.091 70.0795C293.332 70.0795 293.552 70.0455 293.751 69.9773C293.95 69.9062 294.122 69.8011 294.267 69.6619C294.412 69.5227 294.523 69.3509 294.599 69.1463L295.805 69.3636C295.709 69.7187 295.535 70.0298 295.285 70.2969C295.038 70.5611 294.727 70.767 294.352 70.9148C293.98 71.0597 293.555 71.1321 293.078 71.1321ZM298.574 62.2727V71H297.3V62.2727H298.574ZM305.193 66.0526L304.038 66.2571C303.99 66.1094 303.913 65.9687 303.808 65.8352C303.706 65.7017 303.567 65.5923 303.39 65.5071C303.214 65.4219 302.994 65.3793 302.73 65.3793C302.369 65.3793 302.068 65.4602 301.827 65.6222C301.585 65.7812 301.464 65.9872 301.464 66.2401C301.464 66.4588 301.545 66.6349 301.707 66.7685C301.869 66.902 302.131 67.0114 302.491 67.0966L303.531 67.3352C304.133 67.4744 304.582 67.6889 304.878 67.9787C305.173 68.2685 305.321 68.6449 305.321 69.108C305.321 69.5 305.207 69.8494 304.98 70.1562C304.756 70.4602 304.442 70.6989 304.038 70.8722C303.638 71.0455 303.173 71.1321 302.645 71.1321C301.912 71.1321 301.314 70.9759 300.851 70.6634C300.388 70.348 300.104 69.9006 299.998 69.321L301.23 69.1335C301.307 69.4545 301.464 69.6974 301.703 69.8622C301.942 70.0241 302.253 70.1051 302.636 70.1051C303.054 70.1051 303.388 70.0185 303.638 69.8452C303.888 69.669 304.013 69.4545 304.013 69.2017C304.013 68.9972 303.936 68.8253 303.782 68.6861C303.632 68.5469 303.4 68.4418 303.088 68.3707L301.98 68.1278C301.369 67.9886 300.917 67.767 300.625 67.4631C300.335 67.1591 300.19 66.7741 300.19 66.3082C300.19 65.9219 300.298 65.5838 300.514 65.294C300.73 65.0043 301.028 64.7784 301.409 64.6165C301.79 64.4517 302.226 64.3693 302.717 64.3693C303.425 64.3693 303.981 64.5227 304.388 64.8295C304.794 65.1335 305.062 65.5412 305.193 66.0526ZM307.561 71.081C307.328 71.081 307.128 70.9986 306.96 70.8338C306.793 70.6662 306.709 70.4645 306.709 70.2287C306.709 69.9957 306.793 69.7969 306.96 69.6321C307.128 69.4645 307.328 69.3807 307.561 69.3807C307.794 69.3807 307.994 69.4645 308.162 69.6321C308.33 69.7969 308.414 69.9957 308.414 70.2287C308.414 70.3849 308.374 70.5284 308.294 70.6591C308.218 70.7869 308.115 70.8892 307.987 70.9659C307.86 71.0426 307.718 71.081 307.561 71.081ZM22.3279 86V77.2727H27.7995V78.4062H23.6447V81.0653H27.514V82.1946H23.6447V84.8665H27.8507V86H22.3279ZM30.7303 82.1136V86H29.4561V79.4545H30.6792V80.5199H30.7601C30.9107 80.1733 31.1465 79.8949 31.4675 79.6847C31.7914 79.4744 32.199 79.3693 32.6905 79.3693C33.1365 79.3693 33.5272 79.4631 33.8624 79.6506C34.1976 79.8352 34.4576 80.1108 34.6422 80.4773C34.8269 80.8437 34.9192 81.2969 34.9192 81.8366V86H33.6451V81.9901C33.6451 81.5156 33.5215 81.1449 33.2743 80.8778C33.0272 80.608 32.6877 80.473 32.2559 80.473C31.9604 80.473 31.6976 80.5369 31.4675 80.6648C31.2402 80.7926 31.0598 80.9801 30.9263 81.2273C30.7956 81.4716 30.7303 81.767 30.7303 82.1136ZM36.628 79.4545H37.9022V86.4261C37.9022 86.8636 37.8226 87.233 37.6635 87.5341C37.5073 87.8352 37.2743 88.0639 36.9647 88.2202C36.6578 88.3764 36.2786 88.4545 35.8269 88.4545C35.7814 88.4545 35.7388 88.4545 35.699 88.4545C35.6564 88.4545 35.6124 88.4531 35.5669 88.4503V87.3551C35.6067 87.3551 35.6422 87.3551 35.6735 87.3551C35.7019 87.3551 35.7346 87.3551 35.7715 87.3551C36.0726 87.3551 36.29 87.2741 36.4235 87.1122C36.5598 86.9531 36.628 86.7216 36.628 86.4176V79.4545ZM37.2587 78.4446C37.0371 78.4446 36.8468 78.3707 36.6877 78.223C36.5314 78.0724 36.4533 77.8935 36.4533 77.6861C36.4533 77.4759 36.5314 77.2969 36.6877 77.1491C36.8468 76.9986 37.0371 76.9233 37.2587 76.9233C37.4803 76.9233 37.6692 76.9986 37.8255 77.1491C37.9846 77.2969 38.0641 77.4759 38.0641 77.6861C38.0641 77.8935 37.9846 78.0724 37.8255 78.223C37.6692 78.3707 37.4803 78.4446 37.2587 78.4446ZM42.3734 86.1321C41.7598 86.1321 41.2243 85.9915 40.7669 85.7102C40.3095 85.429 39.9544 85.0355 39.7015 84.5298C39.4487 84.0241 39.3223 83.4332 39.3223 82.7571C39.3223 82.0781 39.4487 81.4844 39.7015 80.9759C39.9544 80.4673 40.3095 80.0724 40.7669 79.7912C41.2243 79.5099 41.7598 79.3693 42.3734 79.3693C42.987 79.3693 43.5225 79.5099 43.9799 79.7912C44.4373 80.0724 44.7924 80.4673 45.0453 80.9759C45.2981 81.4844 45.4245 82.0781 45.4245 82.7571C45.4245 83.4332 45.2981 84.0241 45.0453 84.5298C44.7924 85.0355 44.4373 85.429 43.9799 85.7102C43.5225 85.9915 42.987 86.1321 42.3734 86.1321ZM42.3777 85.0625C42.7754 85.0625 43.1049 84.9574 43.3663 84.7472C43.6277 84.5369 43.8208 84.2571 43.9458 83.9077C44.0737 83.5582 44.1376 83.1733 44.1376 82.7528C44.1376 82.3352 44.0737 81.9517 43.9458 81.6023C43.8208 81.25 43.6277 80.9673 43.3663 80.7543C43.1049 80.5412 42.7754 80.4347 42.3777 80.4347C41.9771 80.4347 41.6447 80.5412 41.3805 80.7543C41.1191 80.9673 40.9245 81.25 40.7967 81.6023C40.6717 81.9517 40.6092 82.3352 40.6092 82.7528C40.6092 83.1733 40.6717 83.5582 40.7967 83.9077C40.9245 84.2571 41.1191 84.5369 41.3805 84.7472C41.6447 84.9574 41.9771 85.0625 42.3777 85.0625ZM47.4295 88.4545C47.2392 88.4545 47.0659 88.4389 46.9096 88.4077C46.7534 88.3793 46.6369 88.348 46.5602 88.3139L46.867 87.2699C47.1 87.3324 47.3074 87.3594 47.4892 87.3509C47.671 87.3423 47.8315 87.2741 47.9707 87.1463C48.1127 87.0185 48.2377 86.8097 48.3457 86.5199L48.5034 86.0852L46.1085 79.4545H47.4721L49.1298 84.5341H49.198L50.8556 79.4545H52.2235L49.5261 86.8736C49.4011 87.2145 49.242 87.5028 49.0488 87.7386C48.8556 87.9773 48.6255 88.1563 48.3585 88.2756C48.0914 88.3949 47.7818 88.4545 47.4295 88.4545ZM59.6522 79.4545V80.4773H56.0769V79.4545H59.6522ZM57.0357 77.8864H58.3098V84.0781C58.3098 84.3253 58.3468 84.5114 58.4206 84.6364C58.4945 84.7585 58.5897 84.8423 58.7061 84.8878C58.8255 84.9304 58.9547 84.9517 59.0939 84.9517C59.1962 84.9517 59.2857 84.9446 59.3624 84.9304C59.4391 84.9162 59.4988 84.9048 59.5414 84.8963L59.7715 85.9489C59.6976 85.9773 59.5925 86.0057 59.4561 86.0341C59.3198 86.0653 59.1493 86.0824 58.9448 86.0852C58.6096 86.0909 58.2971 86.0312 58.0073 85.9062C57.7175 85.7812 57.4831 85.5881 57.3042 85.3267C57.1252 85.0653 57.0357 84.7372 57.0357 84.3423V77.8864ZM62.4764 82.1136V86H61.2022V77.2727H62.4593V80.5199H62.5403C62.6937 80.1676 62.9281 79.8878 63.2434 79.6804C63.5588 79.473 63.9707 79.3693 64.4792 79.3693C64.9281 79.3693 65.3201 79.4616 65.6554 79.6463C65.9934 79.831 66.2548 80.1065 66.4395 80.473C66.627 80.8366 66.7207 81.2912 66.7207 81.8366V86H65.4466V81.9901C65.4466 81.5099 65.323 81.1378 65.0758 80.8736C64.8287 80.6065 64.4849 80.473 64.0446 80.473C63.7434 80.473 63.4735 80.5369 63.2349 80.6648C62.9991 80.7926 62.813 80.9801 62.6767 81.2273C62.5431 81.4716 62.4764 81.767 62.4764 82.1136ZM68.421 86V79.4545H69.6951V86H68.421ZM69.0645 78.4446C68.8429 78.4446 68.6525 78.3707 68.4934 78.223C68.3372 78.0724 68.2591 77.8935 68.2591 77.6861C68.2591 77.4759 68.3372 77.2969 68.4934 77.1491C68.6525 76.9986 68.8429 76.9233 69.0645 76.9233C69.286 76.9233 69.475 76.9986 69.6312 77.1491C69.7903 77.2969 69.8699 77.4759 69.8699 77.6861C69.8699 77.8935 69.7903 78.0724 69.6312 78.223C69.475 78.3707 69.286 78.4446 69.0645 78.4446ZM76.3141 81.0526L75.1593 81.2571C75.111 81.1094 75.0343 80.9687 74.9292 80.8352C74.8269 80.7017 74.6877 80.5923 74.5115 80.5071C74.3354 80.4219 74.1152 80.3793 73.851 80.3793C73.4902 80.3793 73.1891 80.4602 72.9476 80.6222C72.7061 80.7812 72.5854 80.9872 72.5854 81.2401C72.5854 81.4588 72.6664 81.6349 72.8283 81.7685C72.9902 81.902 73.2516 82.0114 73.6124 82.0966L74.6522 82.3352C75.2544 82.4744 75.7033 82.6889 75.9988 82.9787C76.2942 83.2685 76.4419 83.6449 76.4419 84.108C76.4419 84.5 76.3283 84.8494 76.101 85.1562C75.8766 85.4602 75.5627 85.6989 75.1593 85.8722C74.7587 86.0455 74.2942 86.1321 73.7658 86.1321C73.0328 86.1321 72.4348 85.9759 71.9718 85.6634C71.5087 85.348 71.2246 84.9006 71.1195 84.321L72.351 84.1335C72.4277 84.4545 72.5854 84.6974 72.824 84.8622C73.0627 85.0241 73.3738 85.1051 73.7573 85.1051C74.1749 85.1051 74.5087 85.0185 74.7587 84.8452C75.0087 84.669 75.1337 84.4545 75.1337 84.2017C75.1337 83.9972 75.057 83.8253 74.9036 83.6861C74.753 83.5469 74.5215 83.4418 74.209 83.3707L73.101 83.1278C72.4902 82.9886 72.0385 82.767 71.7459 82.4631C71.4561 82.1591 71.3113 81.7741 71.3113 81.3082C71.3113 80.9219 71.4192 80.5838 71.6351 80.294C71.851 80.0043 72.1493 79.7784 72.53 79.6165C72.9107 79.4517 73.3468 79.3693 73.8382 79.3693C74.5456 79.3693 75.1025 79.5227 75.5087 79.8295C75.915 80.1335 76.1834 80.5412 76.3141 81.0526ZM82.2928 77.2727V86H81.0186V77.2727H82.2928ZM84.0069 86V79.4545H85.2811V86H84.0069ZM84.6504 78.4446C84.4288 78.4446 84.2385 78.3707 84.0794 78.223C83.9231 78.0724 83.845 77.8935 83.845 77.6861C83.845 77.4759 83.9231 77.2969 84.0794 77.1491C84.2385 76.9986 84.4288 76.9233 84.6504 76.9233C84.872 76.9233 85.0609 76.9986 85.2172 77.1491C85.3762 77.2969 85.4558 77.4759 85.4558 77.6861C85.4558 77.8935 85.3762 78.0724 85.2172 78.223C85.0609 78.3707 84.872 78.4446 84.6504 78.4446ZM86.9952 86V79.4545H88.2182V80.5199H88.2992C88.4355 80.1591 88.6586 79.8778 88.9682 79.6761C89.2779 79.4716 89.6486 79.3693 90.0804 79.3693C90.5179 79.3693 90.8844 79.4716 91.1799 79.6761C91.4782 79.8807 91.6983 80.1619 91.8404 80.5199H91.9086C92.0648 80.1705 92.3134 79.892 92.6543 79.6847C92.9952 79.4744 93.4015 79.3693 93.873 79.3693C94.4668 79.3693 94.9512 79.5554 95.3262 79.9276C95.704 80.2997 95.8929 80.8608 95.8929 81.6108V86H94.6188V81.7301C94.6188 81.2869 94.498 80.9659 94.2566 80.767C94.0151 80.5682 93.7267 80.4688 93.3915 80.4688C92.9767 80.4688 92.6543 80.5966 92.4242 80.8523C92.1941 81.1051 92.079 81.4304 92.079 81.8281V86H90.8091V81.6491C90.8091 81.294 90.6983 81.0085 90.4767 80.7926C90.2551 80.5767 89.9668 80.4688 89.6117 80.4688C89.3702 80.4688 89.1472 80.5327 88.9426 80.6605C88.7409 80.7855 88.5776 80.9602 88.4526 81.1847C88.3304 81.4091 88.2694 81.669 88.2694 81.9645V86H86.9952ZM97.6007 86V79.4545H98.8748V86H97.6007ZM98.2441 78.4446C98.0225 78.4446 97.8322 78.3707 97.6731 78.223C97.5169 78.0724 97.4387 77.8935 97.4387 77.6861C97.4387 77.4759 97.5169 77.2969 97.6731 77.1491C97.8322 76.9986 98.0225 76.9233 98.2441 76.9233C98.4657 76.9233 98.6547 76.9986 98.8109 77.1491C98.97 77.2969 99.0495 77.4759 99.0495 77.6861C99.0495 77.8935 98.97 78.0724 98.8109 78.223C98.6547 78.3707 98.4657 78.4446 98.2441 78.4446ZM103.644 79.4545V80.4773H100.069V79.4545H103.644ZM101.028 77.8864H102.302V84.0781C102.302 84.3253 102.339 84.5114 102.413 84.6364C102.487 84.7585 102.582 84.8423 102.698 84.8878C102.818 84.9304 102.947 84.9517 103.086 84.9517C103.188 84.9517 103.278 84.9446 103.355 84.9304C103.431 84.9162 103.491 84.9048 103.534 84.8963L103.764 85.9489C103.69 85.9773 103.585 86.0057 103.448 86.0341C103.312 86.0653 103.142 86.0824 102.937 86.0852C102.602 86.0909 102.289 86.0312 101.999 85.9062C101.71 85.7812 101.475 85.5881 101.296 85.3267C101.117 85.0653 101.028 84.7372 101.028 84.3423V77.8864ZM107.805 86.1321C107.16 86.1321 106.604 85.9943 106.138 85.7188C105.675 85.4403 105.317 85.0497 105.064 84.5469C104.814 84.0412 104.689 83.4489 104.689 82.7699C104.689 82.0994 104.814 81.5085 105.064 80.9972C105.317 80.4858 105.67 80.0866 106.121 79.7997C106.576 79.5128 107.107 79.3693 107.715 79.3693C108.084 79.3693 108.442 79.4304 108.789 79.5526C109.135 79.6747 109.447 79.8665 109.722 80.1278C109.998 80.3892 110.215 80.7287 110.374 81.1463C110.533 81.5611 110.613 82.0653 110.613 82.6591V83.1108H105.41V82.1562H109.364C109.364 81.821 109.296 81.5241 109.16 81.2656C109.023 81.0043 108.831 80.7983 108.584 80.6477C108.34 80.4972 108.053 80.4219 107.724 80.4219C107.366 80.4219 107.053 80.5099 106.786 80.6861C106.522 80.8594 106.317 81.0866 106.172 81.3679C106.03 81.6463 105.959 81.9489 105.959 82.2756V83.0213C105.959 83.4588 106.036 83.831 106.189 84.1378C106.346 84.4446 106.563 84.679 106.841 84.8409C107.12 85 107.445 85.0795 107.817 85.0795C108.059 85.0795 108.279 85.0455 108.478 84.9773C108.677 84.9062 108.849 84.8011 108.993 84.6619C109.138 84.5227 109.249 84.3509 109.326 84.1463L110.532 84.3636C110.435 84.7187 110.262 85.0298 110.012 85.2969C109.765 85.5611 109.454 85.767 109.079 85.9148C108.706 86.0597 108.282 86.1321 107.805 86.1321ZM114.477 86.1278C113.948 86.1278 113.477 85.9929 113.062 85.723C112.65 85.4503 112.326 85.0625 112.09 84.5597C111.857 84.054 111.741 83.4474 111.741 82.7401C111.741 82.0327 111.859 81.4276 112.095 80.9247C112.333 80.4219 112.66 80.0369 113.075 79.7699C113.49 79.5028 113.96 79.3693 114.485 79.3693C114.892 79.3693 115.218 79.4375 115.465 79.5739C115.715 79.7074 115.909 79.8636 116.045 80.0426C116.184 80.2216 116.292 80.3793 116.369 80.5156H116.445V77.2727H117.72V86H116.475V84.9815H116.369C116.292 85.1207 116.181 85.2798 116.036 85.4588C115.894 85.6378 115.698 85.794 115.448 85.9276C115.198 86.0611 114.874 86.1278 114.477 86.1278ZM114.758 85.0412C115.124 85.0412 115.434 84.9446 115.687 84.7514C115.943 84.5554 116.136 84.2841 116.267 83.9375C116.4 83.5909 116.467 83.1875 116.467 82.7273C116.467 82.2727 116.401 81.875 116.271 81.5341C116.14 81.1932 115.948 80.9276 115.695 80.7372C115.443 80.5469 115.13 80.4517 114.758 80.4517C114.374 80.4517 114.055 80.5511 113.799 80.75C113.544 80.9489 113.35 81.2202 113.22 81.5639C113.092 81.9077 113.028 82.2955 113.028 82.7273C113.028 83.1648 113.093 83.5582 113.224 83.9077C113.355 84.2571 113.548 84.5341 113.803 84.7386C114.062 84.9403 114.38 85.0412 114.758 85.0412ZM125.769 79.4545V80.4773H122.194V79.4545H125.769ZM123.153 77.8864H124.427V84.0781C124.427 84.3253 124.464 84.5114 124.538 84.6364C124.612 84.7585 124.707 84.8423 124.823 84.8878C124.943 84.9304 125.072 84.9517 125.211 84.9517C125.313 84.9517 125.403 84.9446 125.48 84.9304C125.556 84.9162 125.616 84.9048 125.659 84.8963L125.889 85.9489C125.815 85.9773 125.71 86.0057 125.573 86.0341C125.437 86.0653 125.267 86.0824 125.062 86.0852C124.727 86.0909 124.414 86.0312 124.124 85.9062C123.835 85.7812 123.6 85.5881 123.421 85.3267C123.242 85.0653 123.153 84.7372 123.153 84.3423V77.8864ZM127.179 86V79.4545H128.453V86H127.179ZM127.822 78.4446C127.601 78.4446 127.41 78.3707 127.251 78.223C127.095 78.0724 127.017 77.8935 127.017 77.6861C127.017 77.4759 127.095 77.2969 127.251 77.1491C127.41 76.9986 127.601 76.9233 127.822 76.9233C128.044 76.9233 128.233 76.9986 128.389 77.1491C128.548 77.2969 128.628 77.4759 128.628 77.6861C128.628 77.8935 128.548 78.0724 128.389 78.223C128.233 78.3707 128.044 78.4446 127.822 78.4446ZM130.167 86V79.4545H131.39V80.5199H131.471C131.607 80.1591 131.83 79.8778 132.14 79.6761C132.45 79.4716 132.82 79.3693 133.252 79.3693C133.69 79.3693 134.056 79.4716 134.352 79.6761C134.65 79.8807 134.87 80.1619 135.012 80.5199H135.08C135.237 80.1705 135.485 79.892 135.826 79.6847C136.167 79.4744 136.573 79.3693 137.045 79.3693C137.639 79.3693 138.123 79.5554 138.498 79.9276C138.876 80.2997 139.065 80.8608 139.065 81.6108V86H137.791V81.7301C137.791 81.2869 137.67 80.9659 137.428 80.767C137.187 80.5682 136.899 80.4688 136.563 80.4688C136.149 80.4688 135.826 80.5966 135.596 80.8523C135.366 81.1051 135.251 81.4304 135.251 81.8281V86H133.981V81.6491C133.981 81.294 133.87 81.0085 133.649 80.7926C133.427 80.5767 133.139 80.4688 132.784 80.4688C132.542 80.4688 132.319 80.5327 132.115 80.6605C131.913 80.7855 131.749 80.9602 131.624 81.1847C131.502 81.4091 131.441 81.669 131.441 81.9645V86H130.167ZM143.594 86.1321C142.949 86.1321 142.393 85.9943 141.927 85.7188C141.464 85.4403 141.106 85.0497 140.854 84.5469C140.604 84.0412 140.479 83.4489 140.479 82.7699C140.479 82.0994 140.604 81.5085 140.854 80.9972C141.106 80.4858 141.459 80.0866 141.91 79.7997C142.365 79.5128 142.896 79.3693 143.504 79.3693C143.873 79.3693 144.231 79.4304 144.578 79.5526C144.925 79.6747 145.236 79.8665 145.511 80.1278C145.787 80.3892 146.004 80.7287 146.163 81.1463C146.322 81.5611 146.402 82.0653 146.402 82.6591V83.1108H141.199V82.1562H145.153C145.153 81.821 145.085 81.5241 144.949 81.2656C144.812 81.0043 144.621 80.7983 144.373 80.6477C144.129 80.4972 143.842 80.4219 143.513 80.4219C143.155 80.4219 142.842 80.5099 142.575 80.6861C142.311 80.8594 142.106 81.0866 141.961 81.3679C141.819 81.6463 141.748 81.9489 141.748 82.2756V83.0213C141.748 83.4588 141.825 83.831 141.979 84.1378C142.135 84.4446 142.352 84.679 142.631 84.8409C142.909 85 143.234 85.0795 143.606 85.0795C143.848 85.0795 144.068 85.0455 144.267 84.9773C144.466 84.9062 144.638 84.8011 144.782 84.6619C144.927 84.5227 145.038 84.3509 145.115 84.1463L146.321 84.3636C146.224 84.7187 146.051 85.0298 145.801 85.2969C145.554 85.5611 145.243 85.767 144.868 85.9148C144.496 86.0597 144.071 86.1321 143.594 86.1321ZM153.748 86.1321C153.135 86.1321 152.599 85.9915 152.142 85.7102C151.684 85.429 151.329 85.0355 151.077 84.5298C150.824 84.0241 150.697 83.4332 150.697 82.7571C150.697 82.0781 150.824 81.4844 151.077 80.9759C151.329 80.4673 151.684 80.0724 152.142 79.7912C152.599 79.5099 153.135 79.3693 153.748 79.3693C154.362 79.3693 154.898 79.5099 155.355 79.7912C155.812 80.0724 156.167 80.4673 156.42 80.9759C156.673 81.4844 156.8 82.0781 156.8 82.7571C156.8 83.4332 156.673 84.0241 156.42 84.5298C156.167 85.0355 155.812 85.429 155.355 85.7102C154.898 85.9915 154.362 86.1321 153.748 86.1321ZM153.753 85.0625C154.15 85.0625 154.48 84.9574 154.741 84.7472C155.003 84.5369 155.196 84.2571 155.321 83.9077C155.449 83.5582 155.513 83.1733 155.513 82.7528C155.513 82.3352 155.449 81.9517 155.321 81.6023C155.196 81.25 155.003 80.9673 154.741 80.7543C154.48 80.5412 154.15 80.4347 153.753 80.4347C153.352 80.4347 153.02 80.5412 152.756 80.7543C152.494 80.9673 152.3 81.25 152.172 81.6023C152.047 81.9517 151.984 82.3352 151.984 82.7528C151.984 83.1733 152.047 83.5582 152.172 83.9077C152.3 84.2571 152.494 84.5369 152.756 84.7472C153.02 84.9574 153.352 85.0625 153.753 85.0625ZM161.337 79.4545V80.4773H157.638V79.4545H161.337ZM158.652 86V78.696C158.652 78.2869 158.742 77.9474 158.921 77.6776C159.1 77.4048 159.337 77.2017 159.632 77.0682C159.928 76.9318 160.249 76.8636 160.595 76.8636C160.851 76.8636 161.07 76.8849 161.252 76.9276C161.433 76.9673 161.568 77.0043 161.656 77.0384L161.358 78.0696C161.298 78.0526 161.222 78.0327 161.128 78.0099C161.034 77.9844 160.921 77.9716 160.787 77.9716C160.477 77.9716 160.256 78.0483 160.122 78.2017C159.992 78.3551 159.926 78.5767 159.926 78.8665V86H158.652ZM165.767 79.4545V80.4773H162.068V79.4545H165.767ZM163.082 86V78.696C163.082 78.2869 163.171 77.9474 163.35 77.6776C163.529 77.4048 163.767 77.2017 164.062 77.0682C164.357 76.9318 164.678 76.8636 165.025 76.8636C165.281 76.8636 165.499 76.8849 165.681 76.9276C165.863 76.9673 165.998 77.0043 166.086 77.0384L165.788 78.0696C165.728 78.0526 165.651 78.0327 165.558 78.0099C165.464 77.9844 165.35 77.9716 165.217 77.9716C164.907 77.9716 164.686 78.0483 164.552 78.2017C164.421 78.3551 164.356 78.5767 164.356 78.8665V86H163.082ZM169.644 86.1321C168.999 86.1321 168.444 85.9943 167.978 85.7188C167.515 85.4403 167.157 85.0497 166.904 84.5469C166.654 84.0412 166.529 83.4489 166.529 82.7699C166.529 82.0994 166.654 81.5085 166.904 80.9972C167.157 80.4858 167.509 80.0866 167.961 79.7997C168.416 79.5128 168.947 79.3693 169.555 79.3693C169.924 79.3693 170.282 79.4304 170.629 79.5526C170.975 79.6747 171.286 79.8665 171.562 80.1278C171.838 80.3892 172.055 80.7287 172.214 81.1463C172.373 81.5611 172.453 82.0653 172.453 82.6591V83.1108H167.249V82.1562H171.204C171.204 81.821 171.136 81.5241 170.999 81.2656C170.863 81.0043 170.671 80.7983 170.424 80.6477C170.18 80.4972 169.893 80.4219 169.563 80.4219C169.205 80.4219 168.893 80.5099 168.626 80.6861C168.362 80.8594 168.157 81.0866 168.012 81.3679C167.87 81.6463 167.799 81.9489 167.799 82.2756V83.0213C167.799 83.4588 167.876 83.831 168.029 84.1378C168.186 84.4446 168.403 84.679 168.681 84.8409C168.96 85 169.285 85.0795 169.657 85.0795C169.899 85.0795 170.119 85.0455 170.318 84.9773C170.517 84.9062 170.688 84.8011 170.833 84.6619C170.978 84.5227 171.089 84.3509 171.166 84.1463L172.372 84.3636C172.275 84.7187 172.102 85.0298 171.852 85.2969C171.605 85.5611 171.294 85.767 170.919 85.9148C170.546 86.0597 170.122 86.1321 169.644 86.1321ZM173.866 86V79.4545H175.098V80.4943H175.166C175.285 80.142 175.496 79.8651 175.797 79.6634C176.101 79.4588 176.444 79.3565 176.828 79.3565C176.907 79.3565 177.001 79.3594 177.109 79.3651C177.22 79.3707 177.307 79.3778 177.369 79.3864V80.6051C177.318 80.5909 177.227 80.5753 177.096 80.5582C176.966 80.5384 176.835 80.5284 176.704 80.5284C176.403 80.5284 176.135 80.5923 175.899 80.7202C175.666 80.8452 175.481 81.0199 175.345 81.2443C175.209 81.4659 175.14 81.7187 175.14 82.0028V86H173.866ZM185.794 83.2855V79.4545H187.072V86H185.819V84.8665H185.751C185.601 85.2159 185.359 85.5071 185.027 85.7401C184.697 85.9702 184.287 86.0852 183.795 86.0852C183.375 86.0852 183.003 85.9929 182.679 85.8082C182.358 85.6207 182.105 85.3438 181.92 84.9773C181.738 84.6108 181.648 84.1577 181.648 83.6179V79.4545H182.922V83.4645C182.922 83.9105 183.045 84.2656 183.292 84.5298C183.54 84.794 183.861 84.9261 184.256 84.9261C184.494 84.9261 184.731 84.8665 184.967 84.7472C185.206 84.6278 185.403 84.4474 185.559 84.206C185.719 83.9645 185.797 83.6577 185.794 83.2855ZM190.058 82.1136V86H188.784V79.4545H190.007V80.5199H190.088C190.239 80.1733 190.475 79.8949 190.796 79.6847C191.119 79.4744 191.527 79.3693 192.019 79.3693C192.465 79.3693 192.855 79.4631 193.191 79.6506C193.526 79.8352 193.786 80.1108 193.97 80.4773C194.155 80.8437 194.247 81.2969 194.247 81.8366V86H192.973V81.9901C192.973 81.5156 192.85 81.1449 192.602 80.8778C192.355 80.608 192.016 80.473 191.584 80.473C191.289 80.473 191.026 80.5369 190.796 80.6648C190.568 80.7926 190.388 80.9801 190.254 81.2273C190.124 81.4716 190.058 81.767 190.058 82.1136ZM199.012 79.4545V80.4773H195.436V79.4545H199.012ZM196.395 77.8864H197.669V84.0781C197.669 84.3253 197.706 84.5114 197.78 84.6364C197.854 84.7585 197.949 84.8423 198.066 84.8878C198.185 84.9304 198.314 84.9517 198.453 84.9517C198.556 84.9517 198.645 84.9446 198.722 84.9304C198.798 84.9162 198.858 84.9048 198.901 84.8963L199.131 85.9489C199.057 85.9773 198.952 86.0057 198.816 86.0341C198.679 86.0653 198.509 86.0824 198.304 86.0852C197.969 86.0909 197.656 86.0312 197.367 85.9062C197.077 85.7812 196.843 85.5881 196.664 85.3267C196.485 85.0653 196.395 84.7372 196.395 84.3423V77.8864ZM200.421 86V79.4545H201.695V86H200.421ZM201.064 78.4446C200.843 78.4446 200.653 78.3707 200.493 78.223C200.337 78.0724 200.259 77.8935 200.259 77.6861C200.259 77.4759 200.337 77.2969 200.493 77.1491C200.653 76.9986 200.843 76.9233 201.064 76.9233C201.286 76.9233 201.475 76.9986 201.631 77.1491C201.79 77.2969 201.87 77.4759 201.87 77.6861C201.87 77.8935 201.79 78.0724 201.631 78.223C201.475 78.3707 201.286 78.4446 201.064 78.4446ZM204.683 77.2727V86H203.409V77.2727H204.683ZM209.556 86V85.0455L212.509 81.9858C212.825 81.6534 213.085 81.3622 213.289 81.1122C213.497 80.8594 213.651 80.6193 213.754 80.392C213.856 80.1648 213.907 79.9233 213.907 79.6676C213.907 79.3778 213.839 79.1278 213.703 78.9176C213.566 78.7045 213.38 78.5412 213.144 78.4276C212.909 78.3111 212.643 78.2528 212.347 78.2528C212.035 78.2528 211.762 78.3168 211.529 78.4446C211.296 78.5724 211.117 78.7528 210.992 78.9858C210.867 79.2187 210.805 79.4915 210.805 79.804H209.548C209.548 79.2727 209.67 78.8082 209.914 78.4105C210.159 78.0128 210.494 77.7045 210.92 77.4858C211.346 77.2642 211.83 77.1534 212.373 77.1534C212.921 77.1534 213.404 77.2628 213.822 77.4815C214.242 77.6974 214.57 77.9929 214.806 78.3679C215.042 78.7401 215.16 79.1605 215.16 79.6293C215.16 79.9531 215.099 80.2699 214.977 80.5795C214.857 80.8892 214.649 81.2344 214.35 81.6151C214.052 81.9929 213.637 82.4517 213.106 82.9915L211.372 84.8068V84.8707H215.301V86H209.556ZM219.865 86.1193C219.254 86.1193 218.714 86.0142 218.245 85.804C217.779 85.5937 217.414 85.304 217.15 84.9347C216.886 84.5653 216.755 84.1449 216.758 83.6733C216.755 83.304 216.83 82.9645 216.984 82.6548C217.14 82.3423 217.352 82.0824 217.619 81.875C217.886 81.6648 218.184 81.5312 218.514 81.4744V81.4233C218.079 81.3182 217.731 81.0852 217.47 80.7244C217.208 80.3636 217.079 79.9489 217.082 79.4801C217.079 79.0341 217.197 78.6364 217.436 78.2869C217.677 77.9347 218.008 77.6577 218.428 77.456C218.849 77.2543 219.328 77.1534 219.865 77.1534C220.396 77.1534 220.87 77.2557 221.288 77.4602C221.708 77.6619 222.039 77.9389 222.281 78.2912C222.522 78.6406 222.644 79.0369 222.647 79.4801C222.644 79.9489 222.511 80.3636 222.247 80.7244C221.982 81.0852 221.639 81.3182 221.215 81.4233V81.4744C221.542 81.5312 221.836 81.6648 222.097 81.875C222.362 82.0824 222.572 82.3423 222.728 82.6548C222.887 82.9645 222.968 83.304 222.971 83.6733C222.968 84.1449 222.835 84.5653 222.57 84.9347C222.306 85.304 221.94 85.5937 221.471 85.804C221.005 86.0142 220.47 86.1193 219.865 86.1193ZM219.865 85.0412C220.225 85.0412 220.538 84.9815 220.802 84.8622C221.066 84.7401 221.271 84.571 221.416 84.3551C221.561 84.1364 221.634 83.8807 221.637 83.5881C221.634 83.2841 221.555 83.0156 221.399 82.7827C221.245 82.5497 221.036 82.3665 220.772 82.233C220.508 82.0994 220.205 82.0327 219.865 82.0327C219.521 82.0327 219.215 82.0994 218.948 82.233C218.681 82.3665 218.471 82.5497 218.318 82.7827C218.164 83.0156 218.089 83.2841 218.092 83.5881C218.089 83.8807 218.159 84.1364 218.301 84.3551C218.445 84.571 218.651 84.7401 218.919 84.8622C219.186 84.9815 219.501 85.0412 219.865 85.0412ZM219.865 80.9801C220.154 80.9801 220.411 80.9219 220.636 80.8054C220.86 80.6889 221.036 80.527 221.164 80.3196C221.295 80.1122 221.362 79.8693 221.365 79.5909C221.362 79.3182 221.296 79.0795 221.169 78.875C221.044 78.6705 220.869 78.5128 220.644 78.402C220.42 78.2884 220.16 78.2315 219.865 78.2315C219.563 78.2315 219.299 78.2884 219.072 78.402C218.847 78.5128 218.673 78.6705 218.548 78.875C218.423 79.0795 218.362 79.3182 218.365 79.5909C218.362 79.8693 218.424 80.1122 218.552 80.3196C218.68 80.527 218.856 80.6889 219.08 80.8054C219.308 80.9219 219.569 80.9801 219.865 80.9801ZM227.793 86V77.2727H233.205V78.4062H229.11V81.0653H232.817V82.1946H229.11V86H227.793ZM237.062 86.1321C236.417 86.1321 235.862 85.9943 235.396 85.7188C234.933 85.4403 234.575 85.0497 234.322 84.5469C234.072 84.0412 233.947 83.4489 233.947 82.7699C233.947 82.0994 234.072 81.5085 234.322 80.9972C234.575 80.4858 234.927 80.0866 235.379 79.7997C235.834 79.5128 236.365 79.3693 236.973 79.3693C237.342 79.3693 237.7 79.4304 238.047 79.5526C238.393 79.6747 238.704 79.8665 238.98 80.1278C239.256 80.3892 239.473 80.7287 239.632 81.1463C239.791 81.5611 239.871 82.0653 239.871 82.6591V83.1108H234.667V82.1562H238.622C238.622 81.821 238.554 81.5241 238.417 81.2656C238.281 81.0043 238.089 80.7983 237.842 80.6477C237.598 80.4972 237.311 80.4219 236.981 80.4219C236.623 80.4219 236.311 80.5099 236.044 80.6861C235.78 80.8594 235.575 81.0866 235.43 81.3679C235.288 81.6463 235.217 81.9489 235.217 82.2756V83.0213C235.217 83.4588 235.294 83.831 235.447 84.1378C235.604 84.4446 235.821 84.679 236.099 84.8409C236.378 85 236.703 85.0795 237.075 85.0795C237.317 85.0795 237.537 85.0455 237.736 84.9773C237.934 84.9062 238.106 84.8011 238.251 84.6619C238.396 84.5227 238.507 84.3509 238.584 84.1463L239.79 84.3636C239.693 84.7187 239.52 85.0298 239.27 85.2969C239.023 85.5611 238.711 85.767 238.336 85.9148C237.964 86.0597 237.54 86.1321 237.062 86.1321ZM241.387 86V77.2727H242.661V80.5156H242.737C242.811 80.3793 242.918 80.2216 243.057 80.0426C243.196 79.8636 243.389 79.7074 243.637 79.5739C243.884 79.4375 244.21 79.3693 244.617 79.3693C245.145 79.3693 245.617 79.5028 246.031 79.7699C246.446 80.0369 246.771 80.4219 247.007 80.9247C247.246 81.4276 247.365 82.0327 247.365 82.7401C247.365 83.4474 247.247 84.054 247.012 84.5597C246.776 85.0625 246.452 85.4503 246.04 85.723C245.628 85.9929 245.158 86.1278 244.629 86.1278C244.232 86.1278 243.906 86.0611 243.654 85.9276C243.404 85.794 243.208 85.6378 243.066 85.4588C242.923 85.2798 242.814 85.1207 242.737 84.9815H242.631V86H241.387ZM242.635 82.7273C242.635 83.1875 242.702 83.5909 242.835 83.9375C242.969 84.2841 243.162 84.5554 243.415 84.7514C243.668 84.9446 243.977 85.0412 244.344 85.0412C244.725 85.0412 245.043 84.9403 245.298 84.7386C245.554 84.5341 245.747 84.2571 245.878 83.9077C246.012 83.5582 246.078 83.1648 246.078 82.7273C246.078 82.2955 246.013 81.9077 245.882 81.5639C245.754 81.2202 245.561 80.9489 245.303 80.75C245.047 80.5511 244.727 80.4517 244.344 80.4517C243.975 80.4517 243.662 80.5469 243.406 80.7372C243.154 80.9276 242.962 81.1932 242.831 81.5341C242.7 81.875 242.635 82.2727 242.635 82.7273ZM248.796 86V79.4545H250.028V80.4943H250.096C250.215 80.142 250.425 79.8651 250.726 79.6634C251.03 79.4588 251.374 79.3565 251.758 79.3565C251.837 79.3565 251.931 79.3594 252.039 79.3651C252.15 79.3707 252.236 79.3778 252.299 79.3864V80.6051C252.248 80.5909 252.157 80.5753 252.026 80.5582C251.895 80.5384 251.765 80.5284 251.634 80.5284C251.333 80.5284 251.064 80.5923 250.829 80.7202C250.596 80.8452 250.411 81.0199 250.275 81.2443C250.138 81.4659 250.07 81.7187 250.07 82.0028V86H248.796ZM257.548 83.2855V79.4545H258.826V86H257.573V84.8665H257.505C257.355 85.2159 257.113 85.5071 256.781 85.7401C256.451 85.9702 256.041 86.0852 255.549 86.0852C255.129 86.0852 254.757 85.9929 254.433 85.8082C254.112 85.6207 253.859 85.3438 253.674 84.9773C253.492 84.6108 253.401 84.1577 253.401 83.6179V79.4545H254.676V83.4645C254.676 83.9105 254.799 84.2656 255.046 84.5298C255.294 84.794 255.615 84.9261 256.009 84.9261C256.248 84.9261 256.485 84.8665 256.721 84.7472C256.96 84.6278 257.157 84.4474 257.313 84.206C257.472 83.9645 257.551 83.6577 257.548 83.2855ZM262.443 86.1449C262.028 86.1449 261.653 86.0682 261.318 85.9148C260.983 85.7585 260.717 85.5327 260.521 85.2372C260.328 84.9418 260.231 84.5795 260.231 84.1506C260.231 83.7812 260.302 83.4773 260.444 83.2386C260.586 83 260.778 82.8111 261.02 82.6719C261.261 82.5327 261.531 82.4276 261.829 82.3565C262.128 82.2855 262.432 82.2315 262.741 82.1946C263.133 82.1491 263.452 82.1122 263.696 82.0838C263.94 82.0526 264.118 82.0028 264.229 81.9347C264.339 81.8665 264.395 81.7557 264.395 81.6023V81.5724C264.395 81.2003 264.29 80.9119 264.079 80.7074C263.872 80.5028 263.562 80.4006 263.15 80.4006C262.721 80.4006 262.383 80.4957 262.136 80.6861C261.892 80.8736 261.723 81.0824 261.629 81.3125L260.432 81.0398C260.574 80.642 260.781 80.321 261.054 80.0767C261.329 79.8295 261.646 79.6506 262.004 79.5398C262.362 79.4261 262.738 79.3693 263.133 79.3693C263.395 79.3693 263.672 79.4006 263.964 79.4631C264.26 79.5227 264.535 79.6335 264.791 79.7955C265.05 79.9574 265.261 80.1889 265.426 80.4901C265.591 80.7884 265.673 81.1761 265.673 81.6534V86H264.429V85.1051H264.378C264.295 85.2699 264.172 85.4318 264.007 85.5909C263.842 85.75 263.631 85.8821 263.372 85.9872C263.113 86.0923 262.804 86.1449 262.443 86.1449ZM262.72 85.1222C263.072 85.1222 263.373 85.0526 263.623 84.9134C263.876 84.7741 264.068 84.5923 264.199 84.3679C264.332 84.1406 264.399 83.8977 264.399 83.6392V82.7955C264.354 82.8409 264.265 82.8835 264.135 82.9233C264.007 82.9602 263.861 82.9929 263.696 83.0213C263.531 83.0469 263.371 83.071 263.214 83.0938C263.058 83.1136 262.927 83.1307 262.822 83.1449C262.575 83.1761 262.349 83.2287 262.145 83.3026C261.943 83.3764 261.781 83.483 261.659 83.6222C261.54 83.7585 261.48 83.9403 261.48 84.1676C261.48 84.483 261.596 84.7216 261.829 84.8835C262.062 85.0426 262.359 85.1222 262.72 85.1222ZM267.37 86V79.4545H268.602V80.4943H268.67C268.789 80.142 268.999 79.8651 269.301 79.6634C269.605 79.4588 269.948 79.3565 270.332 79.3565C270.411 79.3565 270.505 79.3594 270.613 79.3651C270.724 79.3707 270.811 79.3778 270.873 79.3864V80.6051C270.822 80.5909 270.731 80.5753 270.6 80.5582C270.47 80.5384 270.339 80.5284 270.208 80.5284C269.907 80.5284 269.639 80.5923 269.403 80.7202C269.17 80.8452 268.985 81.0199 268.849 81.2443C268.713 81.4659 268.644 81.7187 268.644 82.0028V86H267.37ZM272.98 88.4545C272.79 88.4545 272.617 88.4389 272.46 88.4077C272.304 88.3793 272.188 88.348 272.111 88.3139L272.418 87.2699C272.651 87.3324 272.858 87.3594 273.04 87.3509C273.222 87.3423 273.382 87.2741 273.521 87.1463C273.664 87.0185 273.789 86.8097 273.896 86.5199L274.054 86.0852L271.659 79.4545H273.023L274.681 84.5341H274.749L276.406 79.4545H277.774L275.077 86.8736C274.952 87.2145 274.793 87.5028 274.6 87.7386C274.406 87.9773 274.176 88.1563 273.909 88.2756C273.642 88.3949 273.333 88.4545 272.98 88.4545ZM282.131 86V85.0455L285.084 81.9858C285.399 81.6534 285.659 81.3622 285.863 81.1122C286.071 80.8594 286.226 80.6193 286.328 80.392C286.43 80.1648 286.481 79.9233 286.481 79.6676C286.481 79.3778 286.413 79.1278 286.277 78.9176C286.14 78.7045 285.954 78.5412 285.719 78.4276C285.483 78.3111 285.217 78.2528 284.922 78.2528C284.609 78.2528 284.336 78.3168 284.104 78.4446C283.871 78.5724 283.692 78.7528 283.567 78.9858C283.442 79.2187 283.379 79.4915 283.379 79.804H282.122C282.122 79.2727 282.244 78.8082 282.488 78.4105C282.733 78.0128 283.068 77.7045 283.494 77.4858C283.92 77.2642 284.405 77.1534 284.947 77.1534C285.496 77.1534 285.979 77.2628 286.396 77.4815C286.817 77.6974 287.145 77.9929 287.381 78.3679C287.616 78.7401 287.734 79.1605 287.734 79.6293C287.734 79.9531 287.673 80.2699 287.551 80.5795C287.432 80.8892 287.223 81.2344 286.925 81.6151C286.626 81.9929 286.211 82.4517 285.68 82.9915L283.946 84.8068V84.8707H287.875V86H282.131ZM292.528 86.1449C291.855 86.142 291.28 85.9645 290.802 85.6122C290.325 85.2599 289.96 84.7472 289.707 84.0739C289.454 83.4006 289.328 82.5895 289.328 81.6406C289.328 80.6946 289.454 79.8864 289.707 79.2159C289.963 78.5455 290.329 78.0341 290.807 77.6818C291.287 77.3295 291.861 77.1534 292.528 77.1534C293.196 77.1534 293.768 77.331 294.246 77.6861C294.723 78.0384 295.088 78.5497 295.341 79.2202C295.596 79.8878 295.724 80.6946 295.724 81.6406C295.724 82.5923 295.598 83.4048 295.345 84.0781C295.092 84.7486 294.727 85.2614 294.25 85.6165C293.773 85.9688 293.199 86.1449 292.528 86.1449ZM292.528 85.0071C293.119 85.0071 293.581 84.7188 293.913 84.142C294.248 83.5653 294.416 82.7315 294.416 81.6406C294.416 80.9162 294.339 80.304 294.186 79.804C294.035 79.3011 293.818 78.9205 293.534 78.6619C293.253 78.4006 292.917 78.2699 292.528 78.2699C291.94 78.2699 291.479 78.5597 291.143 79.1392C290.808 79.7187 290.639 80.5526 290.636 81.6406C290.636 82.3679 290.711 82.983 290.862 83.4858C291.015 83.9858 291.233 84.3651 291.514 84.6236C291.795 84.8793 292.133 85.0071 292.528 85.0071ZM297.236 86V85.0455L300.189 81.9858C300.504 81.6534 300.764 81.3622 300.969 81.1122C301.176 80.8594 301.331 80.6193 301.433 80.392C301.536 80.1648 301.587 79.9233 301.587 79.6676C301.587 79.3778 301.519 79.1278 301.382 78.9176C301.246 78.7045 301.06 78.5412 300.824 78.4276C300.588 78.3111 300.323 78.2528 300.027 78.2528C299.715 78.2528 299.442 78.3168 299.209 78.4446C298.976 78.5724 298.797 78.7528 298.672 78.9858C298.547 79.2187 298.485 79.4915 298.485 79.804H297.227C297.227 79.2727 297.35 78.8082 297.594 78.4105C297.838 78.0128 298.173 77.7045 298.6 77.4858C299.026 77.2642 299.51 77.1534 300.053 77.1534C300.601 77.1534 301.084 77.2628 301.502 77.4815C301.922 77.6974 302.25 77.9929 302.486 78.3679C302.722 78.7401 302.84 79.1605 302.84 79.6293C302.84 79.9531 302.779 80.2699 302.656 80.5795C302.537 80.8892 302.328 81.2344 302.03 81.6151C301.732 81.9929 301.317 82.4517 300.786 82.9915L299.051 84.8068V84.8707H302.98V86H297.236ZM307.634 86.1193C307.048 86.1193 306.526 86.0185 306.066 85.8168C305.608 85.6151 305.246 85.3352 304.979 84.9773C304.715 84.6165 304.573 84.1989 304.553 83.7244H305.891C305.908 83.983 305.994 84.2074 306.151 84.3977C306.31 84.5852 306.517 84.7301 306.773 84.8324C307.029 84.9347 307.313 84.9858 307.625 84.9858C307.969 84.9858 308.273 84.9261 308.537 84.8068C308.804 84.6875 309.013 84.5213 309.164 84.3082C309.314 84.0923 309.389 83.8438 309.389 83.5625C309.389 83.2699 309.314 83.0128 309.164 82.7912C309.016 82.5668 308.798 82.3906 308.512 82.2628C308.227 82.1349 307.884 82.071 307.48 82.071H306.743V80.9972H307.48C307.804 80.9972 308.088 80.9389 308.333 80.8224C308.58 80.706 308.773 80.544 308.912 80.3366C309.051 80.1264 309.121 79.8807 309.121 79.5994C309.121 79.3295 309.06 79.0952 308.938 78.8963C308.818 78.6946 308.648 78.5369 308.426 78.4233C308.208 78.3097 307.949 78.2528 307.651 78.2528C307.367 78.2528 307.101 78.3054 306.854 78.4105C306.61 78.5128 306.411 78.6605 306.257 78.8537C306.104 79.044 306.021 79.2727 306.01 79.5398H304.736C304.75 79.0682 304.889 78.6534 305.154 78.2955C305.421 77.9375 305.773 77.6577 306.21 77.456C306.648 77.2543 307.134 77.1534 307.668 77.1534C308.227 77.1534 308.71 77.2628 309.117 77.4815C309.526 77.6974 309.841 77.9858 310.063 78.3466C310.287 78.7074 310.398 79.1023 310.395 79.5312C310.398 80.0199 310.262 80.4347 309.986 80.7756C309.713 81.1165 309.35 81.3452 308.895 81.4616V81.5298C309.475 81.6179 309.923 81.848 310.242 82.2202C310.563 82.5923 310.722 83.054 310.719 83.6051C310.722 84.0852 310.588 84.5156 310.318 84.8963C310.051 85.277 309.686 85.5767 309.223 85.7955C308.76 86.0114 308.23 86.1193 307.634 86.1193ZM312.928 86.081C312.695 86.081 312.495 85.9986 312.328 85.8338C312.16 85.6662 312.076 85.4645 312.076 85.2287C312.076 84.9957 312.16 84.7969 312.328 84.6321C312.495 84.4645 312.695 84.3807 312.928 84.3807C313.161 84.3807 313.362 84.4645 313.529 84.6321C313.697 84.7969 313.781 84.9957 313.781 85.2287C313.781 85.3849 313.741 85.5284 313.661 85.6591C313.585 85.7869 313.482 85.8892 313.355 85.9659C313.227 86.0426 313.085 86.081 312.928 86.081Z" fill="#686868"/>
	<defs>
		<linearGradient id="paint0_linear_0_1" x1="28.3239" y1="47.9339" x2="301" y2="47.9339" gradientUnits="userSpaceOnUse">
			<stop stop-color="#A19060"/>
			<stop offset="1" stop-color="#A19060"/>
		</linearGradient>
	</defs>
</svg>
