<svg width="48" height="48" viewBox="0 0 48 48" fill="none" xmlns="http://www.w3.org/2000/svg">
<path fill-rule="evenodd" clip-rule="evenodd" d="M22.0398 2.43978C21.4088 2.01912 20.5865 2.01998 19.9564 2.44196C19.3263 2.86395 19.0124 3.62396 19.1612 4.3676L19.7289 7.20622C13.0357 9.07135 8.12476 15.2122 8.12476 22.5001C8.12476 26.9054 9.92161 30.8946 12.8178 33.7686C13.5528 34.498 14.74 34.4935 15.4694 33.7585C16.1988 33.0234 16.1943 31.8363 15.4593 31.1068C13.2435 28.908 11.8748 25.8656 11.8748 22.5001C11.8748 17.0324 15.4938 12.4101 20.4672 10.8978L21.1612 14.3676C21.3099 15.1112 21.8919 15.6921 22.6359 15.8392C23.3798 15.9864 24.1392 15.6709 24.5598 15.0399L28.5598 9.03994C29.1343 8.17832 28.9014 7.01419 28.0398 6.43978L22.0398 2.43978ZM37.1817 13.1692C36.4467 12.4398 35.2595 12.4443 34.5301 13.1793C33.8007 13.9144 33.8052 15.1016 34.5403 15.831C36.756 18.0298 38.1248 21.0722 38.1248 24.4377C38.1248 29.9441 34.4541 34.5933 29.4263 36.0717L28.8383 33.1322C28.6896 32.3885 28.1076 31.8077 27.3636 31.6605C26.6197 31.5134 25.8603 31.8288 25.4397 32.4598L21.4397 38.4598C20.8652 39.3214 21.0981 40.4856 21.9597 41.06L27.9597 45.06C28.5907 45.4806 29.413 45.4798 30.0431 45.0578C30.6732 44.6358 30.9871 43.8758 30.8383 43.1322L30.1641 39.7609C36.9116 37.9315 41.8748 31.7642 41.8748 24.4377C41.8748 20.0324 40.0779 16.0432 37.1817 13.1692Z" fill="black"/>
</svg>
